<?xml version="1.0" encoding="UTF-8" standalone="no"?>
<!-- Created with Inkscape (http://www.inkscape.org/) -->

<svg
   width="169.26401mm"
   height="19.107mm"
   viewBox="0 0 169.26401 19.107"
   version="1.1"
   id="svg189"
   inkscape:version="1.1.2 (b8e25be8, 2022-02-05)"
   sodipodi:docname="trilloop-wordmark-long-path-light.svg"
   xmlns:inkscape="http://www.inkscape.org/namespaces/inkscape"
   xmlns:sodipodi="http://sodipodi.sourceforge.net/DTD/sodipodi-0.dtd"
   xmlns="http://www.w3.org/2000/svg"
   xmlns:svg="http://www.w3.org/2000/svg">
  <sodipodi:namedview
     id="namedview191"
     pagecolor="#ffffff"
     bordercolor="#666666"
     borderopacity="1.0"
     inkscape:pageshadow="2"
     inkscape:pageopacity="0.0"
     inkscape:pagecheckerboard="0"
     inkscape:document-units="mm"
     showgrid="false"
     inkscape:zoom="1"
     inkscape:cx="271.5"
     inkscape:cy="168.5"
     inkscape:window-width="1312"
     inkscape:window-height="969"
     inkscape:window-x="303"
     inkscape:window-y="176"
     inkscape:window-maximized="0"
     inkscape:current-layer="layer1" />
  <defs
     id="defs186" />
  <g
     inkscape:label="Layer 1"
     inkscape:groupmode="layer"
     id="layer1">
    <path
       id="rect5213-1-2"
       style="fill:#4f2683;fill-opacity:1;stroke:none;stroke-width:0.72823;stroke-linejoin:round"
       d="m 17.57825,5 -4.94268,8.56132 h 2.24888 l 4.94267,-8.56043 z m -3.81779,8.9e-4 -4.94267,8.56132 h 2.24887 L 16.01023,5.00179 Z M 9.94267,5.00179 5,13.56311 h 2.24797 l 4.94357,-8.56042 z m 11.42645,0.0691 -1.12399,1.94837 9.88535,-9e-4 1.12399,-1.94747 z m -1.90979,3.30737 -1.12398,1.94837 9.88534,-9e-4 1.12399,-1.94747 z m -1.90979,3.30559 -1.12399,1.94836 9.88535,-9e-4 1.12399,-1.94746 z" />
    <g
       aria-label="TRILLIUM
"
       id="text4209-1-5"
       style="font-size:13.4723px;line-height:1.25;letter-spacing:0px;stroke-width:0.459282">
      <path
         d="m 35.445736,13.784312 h 1.9939 V 6.6709381 h 2.411542 V 5.0003729 h -6.816984 v 1.6705652 h 2.411542 z"
         style="font-weight:bold;font-family:'Source Sans Pro';-inkscape-font-specification:'Source Sans Pro Bold';text-align:end;text-anchor:end"
         id="path43274" />
      <path
         d="m 41.233983,13.784312 h 1.980428 v -3.16599 h 1.091256 l 1.684038,3.16599 h 2.222929 l -1.9939,-3.51627 c 0.943061,-0.4176412 1.562787,-1.2394515 1.562787,-2.5327923 0,-2.0882064 -1.52237,-2.7348768 -3.381547,-2.7348768 H 41.233983 Z M 43.214411,9.0420628 V 6.576632 h 1.023895 c 1.037367,0 1.603204,0.2963906 1.603204,1.1586177 0,0.8622272 -0.565837,1.3068131 -1.603204,1.3068131 z"
         style="font-weight:bold;font-family:'Source Sans Pro';-inkscape-font-specification:'Source Sans Pro Bold';text-align:end;text-anchor:end"
         id="path43276" />
      <path
         d="M 49.496292,13.784312 H 51.47672 V 5.0003729 h -1.980428 z"
         style="font-weight:bold;font-family:'Source Sans Pro';-inkscape-font-specification:'Source Sans Pro Bold';text-align:end;text-anchor:end"
         id="path43278" />
      <path
         d="m 53.548507,13.784312 h 5.456281 V 12.113747 H 55.528935 V 5.0003729 h -1.980428 z"
         style="font-weight:bold;font-family:'Source Sans Pro';-inkscape-font-specification:'Source Sans Pro Bold';text-align:end;text-anchor:end"
         id="path43280" />
      <path
         d="m 60.521474,13.784312 h 5.456281 V 12.113747 H 62.501902 V 5.0003729 h -1.980428 z"
         style="font-weight:bold;font-family:'Source Sans Pro';-inkscape-font-specification:'Source Sans Pro Bold';text-align:end;text-anchor:end"
         id="path43282" />
      <path
         d="m 67.494443,13.784312 h 1.980428 V 5.0003729 h -1.980428 z"
         style="font-weight:bold;font-family:'Source Sans Pro';-inkscape-font-specification:'Source Sans Pro Bold';text-align:end;text-anchor:end"
         id="path43284" />
      <path
         d="m 75.00904,13.94598 c 2.263346,0 3.462381,-1.279869 3.462381,-4.2303022 V 5.0003729 h -1.913067 v 4.9173894 c 0,1.7244547 -0.565836,2.3172357 -1.549314,2.3172357 -0.983478,0 -1.52237,-0.592781 -1.52237,-2.3172357 V 5.0003729 h -1.993901 v 4.7153049 c 0,2.9504332 1.239452,4.2303022 3.516271,4.2303022 z"
         style="font-weight:bold;font-family:'Source Sans Pro';-inkscape-font-specification:'Source Sans Pro Bold';text-align:end;text-anchor:end"
         id="path43286" />
      <path
         d="m 80.493108,13.784312 h 1.778343 v -3.219879 c 0,-0.8622275 -0.161667,-2.142096 -0.255973,-2.9908509 h 0.05389 l 0.70056,2.0882065 1.252923,3.3546024 h 1.091257 l 1.252924,-3.3546024 0.714031,-2.0882065 h 0.05389 c -0.09431,0.8487549 -0.255974,2.1286234 -0.255974,2.9908509 v 3.219879 h 1.805288 V 5.0003729 h -2.155568 l -1.387647,3.9069669 c -0.17514,0.5119474 -0.323335,1.077784 -0.498475,1.6166762 h -0.05389 C 84.413547,9.9851238 84.25188,9.4192872 84.07674,8.9073398 L 82.662148,5.0003729 h -2.16904 z"
         style="font-weight:bold;font-family:'Source Sans Pro';-inkscape-font-specification:'Source Sans Pro Bold';text-align:end;text-anchor:end"
         id="path43288" />
    </g>
    <g
       aria-label="HYPERLOOP"
       id="text11476-4"
       style="font-size:13.4723px;line-height:1.25;stroke-width:0.459282">
      <path
         d="m 92.999998,13.945607 h 1.980428 v -3.664465 h 3.031268 v 3.664465 h 1.993896 V 5.1616679 H 98.011694 V 8.5432151 H 94.980426 V 5.1616679 h -1.980428 z"
         style="font-weight:bold;font-family:'Source Sans Pro';-inkscape-font-specification:'Source Sans Pro Bold'"
         id="path43291" />
      <path
         d="m 103.58691,13.945607 h 1.98043 v -3.125573 l 2.65404,-5.6583661 h -2.07473 l -0.79487,2.0208449 c -0.2425,0.6601427 -0.485,1.2663962 -0.74098,1.9400111 h -0.0539 C 104.31441,8.448909 104.08539,7.8426555 103.84288,7.1825128 l -0.78139,-2.0208449 h -2.12862 l 2.65404,5.6583661 z"
         style="font-weight:bold;font-family:'Source Sans Pro';-inkscape-font-specification:'Source Sans Pro Bold'"
         id="path43293" />
      <path
         d="m 109.15623,13.945607 h 1.98043 v -2.977378 h 1.09126 c 1.85917,0 3.43543,-0.916116 3.43543,-2.9773782 0,-2.1286234 -1.56278,-2.8291829 -3.48932,-2.8291829 h -3.0178 z m 1.98043,-4.5536371 v -2.654043 h 0.91612 c 1.07778,0 1.67056,0.3368075 1.67056,1.2529239 0,0.9161163 -0.52542,1.4011191 -1.61667,1.4011191 z"
         style="font-weight:bold;font-family:'Source Sans Pro';-inkscape-font-specification:'Source Sans Pro Bold'"
         id="path43295" />
      <path
         d="m 117.18172,13.945607 h 5.63142 v -1.670565 h -3.65099 V 10.254197 H 122.153 V 8.5971043 h -2.99085 V 6.832233 h 3.51627 V 5.1616679 h -5.4967 z"
         style="font-weight:bold;font-family:'Source Sans Pro';-inkscape-font-specification:'Source Sans Pro Bold'"
         id="path43297" />
      <path
         d="m 124.5757,13.945607 h 1.98043 v -3.16599 h 1.09126 l 1.68403,3.16599 h 2.22293 l -1.9939,-3.51627 c 0.94306,-0.417641 1.56279,-1.2394516 1.56279,-2.5327923 0,-2.0882065 -1.52237,-2.7348768 -3.38155,-2.7348768 h -3.16599 z m 1.98043,-4.7422493 V 6.7379269 h 1.02389 c 1.03737,0 1.60321,0.2963906 1.60321,1.1586178 0,0.8622271 -0.56584,1.306813 -1.60321,1.306813 z"
         style="font-weight:bold;font-family:'Source Sans Pro';-inkscape-font-specification:'Source Sans Pro Bold'"
         id="path43299" />
      <path
         d="m 132.83801,13.945607 h 5.45628 v -1.670565 h -3.47585 V 5.1616679 h -1.98043 z"
         style="font-weight:bold;font-family:'Source Sans Pro';-inkscape-font-specification:'Source Sans Pro Bold'"
         id="path43301" />
      <path
         d="m 142.9075,14.107275 c 2.37112,0 3.9878,-1.724455 3.9878,-4.5940544 0,-2.8561275 -1.61668,-4.5132203 -3.9878,-4.5132203 -2.37113,0 -3.9878,1.6436205 -3.9878,4.5132203 0,2.8695994 1.61667,4.5940544 3.9878,4.5940544 z m 0,-1.710982 c -1.19904,0 -1.95348,-1.118201 -1.95348,-2.8830724 0,-1.7513989 0.75444,-2.8022383 1.95348,-2.8022383 1.19903,0 1.95348,1.0508394 1.95348,2.8022383 0,1.7648714 -0.75445,2.8830724 -1.95348,2.8830724 z"
         style="font-weight:bold;font-family:'Source Sans Pro';-inkscape-font-specification:'Source Sans Pro Bold'"
         id="path43303" />
      <path
         d="m 152.11708,14.107275 c 2.37112,0 3.9878,-1.724455 3.9878,-4.5940544 0,-2.8561275 -1.61668,-4.5132203 -3.9878,-4.5132203 -2.37113,0 -3.9878,1.6436205 -3.9878,4.5132203 0,2.8695994 1.61667,4.5940544 3.9878,4.5940544 z m 0,-1.710982 c -1.19904,0 -1.95348,-1.118201 -1.95348,-2.8830724 0,-1.7513989 0.75444,-2.8022383 1.95348,-2.8022383 1.19903,0 1.95348,1.0508394 1.95348,2.8022383 0,1.7648714 -0.75445,2.8830724 -1.95348,2.8830724 z"
         style="font-weight:bold;font-family:'Source Sans Pro';-inkscape-font-specification:'Source Sans Pro Bold'"
         id="path43305" />
      <path
         d="m 157.7565,13.945607 h 1.98043 v -2.977378 h 1.09125 c 1.85918,0 3.43544,-0.916116 3.43544,-2.9773782 0,-2.1286234 -1.56279,-2.8291829 -3.48933,-2.8291829 h -3.01779 z m 1.98043,-4.5536371 v -2.654043 h 0.91611 c 1.07779,0 1.67057,0.3368075 1.67057,1.2529239 0,0.9161163 -0.52542,1.4011191 -1.61668,1.4011191 z"
         style="font-weight:bold;font-family:'Source Sans Pro';-inkscape-font-specification:'Source Sans Pro Bold'"
         id="path43307" />
    </g>
  </g>
</svg>
