<?xml version="1.0" encoding="UTF-8" standalone="no"?>
<!-- Created with Inkscape (http://www.inkscape.org/) -->

<svg
   width="134mm"
   height="52mm"
   viewBox="0 0 134 52"
   version="1.1"
   id="svg1147"
   inkscape:version="1.1 (c4e8f9e, 2021-05-24)"
   sodipodi:docname="trilloop-full-raw.svg"
   xmlns:inkscape="http://www.inkscape.org/namespaces/inkscape"
   xmlns:sodipodi="http://sodipodi.sourceforge.net/DTD/sodipodi-0.dtd"
   xmlns="http://www.w3.org/2000/svg"
   xmlns:svg="http://www.w3.org/2000/svg">
  <sodipodi:namedview
     id="namedview1149"
     pagecolor="#ffffff"
     bordercolor="#666666"
     borderopacity="1.0"
     inkscape:pageshadow="2"
     inkscape:pageopacity="0.0"
     inkscape:pagecheckerboard="0"
     inkscape:document-units="mm"
     showgrid="false"
     inkscape:zoom="4.3994184"
     inkscape:cx="234.0082"
     inkscape:cy="105.12753"
     inkscape:window-width="3440"
     inkscape:window-height="1387"
     inkscape:window-x="0"
     inkscape:window-y="25"
     inkscape:window-maximized="1"
     inkscape:current-layer="layer3" />
  <defs
     id="defs1144" />
  <g
     inkscape:groupmode="layer"
     id="layer2"
     inkscape:label="Wordmark">
    <g
       inkscape:groupmode="layer"
       id="layer5"
       inkscape:label="WE">
      <path
         id="rect5213-1-2"
         style="fill:#4f2683;fill-opacity:1;stroke:none;stroke-width:0.72823;stroke-linejoin:round"
         d="m 57.557552,10.627 -4.942678,8.56132 h 2.248873 l 4.942675,-8.56043 z m -3.817794,8.9e-4 -4.942672,8.56132 h 2.248872 l 4.94357,-8.56042 z m -3.817789,9e-4 -4.942672,8.56132 h 2.247973 l 4.943574,-8.56042 z m 11.426453,0.0691 -1.12399,1.94837 9.88535,-9e-4 1.12399,-1.94747 z m -1.90979,3.30737 -1.12398,1.94837 9.88534,-9e-4 1.12399,-1.94747 z m -1.90979,3.30559 -1.123989,1.94836 9.885349,-9e-4 1.12399,-1.94746 z" />
    </g>
    <g
       inkscape:groupmode="layer"
       id="layer6"
       inkscape:label="Team">
      <text
         xml:space="preserve"
         style="font-style:normal;font-weight:normal;font-size:13.4723px;line-height:1.25;font-family:sans-serif;letter-spacing:0px;fill:#000000;fill-opacity:1;stroke:none;stroke-width:0.459282"
         x="129.69714"
         y="19.411312"
         id="text4209-1-5"><tspan
           sodipodi:role="line"
           id="tspan4207-0-4"
           style="font-style:normal;font-variant:normal;font-weight:bold;font-stretch:normal;font-size:13.4723px;font-family:'Source Sans Pro';-inkscape-font-specification:'Source Sans Pro Bold';text-align:end;text-anchor:end;fill:#000000;fill-opacity:1;stroke-width:0.459282"
           x="129.69714"
           y="19.411312">TRILLIUM</tspan><tspan
           sodipodi:role="line"
           style="font-style:normal;font-variant:normal;font-weight:bold;font-stretch:normal;font-size:13.4723px;font-family:'Source Sans Pro';-inkscape-font-specification:'Source Sans Pro Bold';text-align:end;text-anchor:end;fill:#000000;fill-opacity:1;stroke-width:0.459282"
           x="129.69714"
           y="36.754612"
           id="tspan6796-2" /></text>
      <text
         xml:space="preserve"
         style="font-style:normal;font-weight:normal;font-size:15.9218px;line-height:1.25;font-family:sans-serif;fill:#000000;fill-opacity:1;stroke:none;stroke-width:0.459282"
         x="43.518867"
         y="31.820927"
         id="text11476-4"><tspan
           sodipodi:role="line"
           id="tspan11474-2"
           style="font-style:normal;font-variant:normal;font-weight:bold;font-stretch:normal;font-size:15.9218px;font-family:'Source Sans Pro';-inkscape-font-specification:'Source Sans Pro Bold';fill:#000000;fill-opacity:1;stroke-width:0.459282"
           x="43.518867"
           y="31.820927">HYPERLOOP</tspan></text>
    </g>
  </g>
  <g
     inkscape:label="Trillium"
     inkscape:groupmode="layer"
     id="layer1">
    <g
       inkscape:groupmode="layer"
       id="layer4"
       inkscape:label="Gray">
      <path
         id="path1600-3-5-0-91"
         style="fill:#807f83;fill-opacity:1;fill-rule:nonzero;stroke-width:0.850001"
         d="M 98.267578 18.898438 C 92.590873 30.281922 88.729087 41.413865 86.113281 51.289062 L 91.289062 54.277344 C 93.120394 48.878439 95.396694 43.2081 98.267578 37.451172 C 101.72211 44.378524 104.32068 51.181137 106.30078 57.527344 L 111.27734 54.65625 C 108.67995 43.98569 104.60126 31.599414 98.267578 18.898438 z M 62.361328 90.298828 C 54.813354 97.67634 46.687849 106.9549 39.324219 118.08203 C 52.456212 117.27995 64.408866 114.93802 74.482422 112.14258 L 74.482422 106.23438 C 68.61432 107.44867 62.203857 108.38861 55.392578 108.80469 C 59.364808 102.80228 63.613156 97.507644 67.8125 92.859375 L 62.361328 92.859375 L 62.361328 90.298828 z M 133.06641 93.771484 L 127.91992 96.742188 C 131.83133 101.15569 135.76803 106.13167 139.46289 111.71484 C 132.78582 111.30698 126.51952 110.3862 120.74609 109.20703 L 120.74609 115.1543 C 130.73977 117.90379 142.5618 120.19802 155.53125 120.99023 C 148.35312 110.14349 140.45216 101.05818 133.06641 93.771484 z M 75.445312 106.03711 C 75.382279 106.05061 75.317076 106.06273 75.253906 106.07617 L 75.447266 106.07617 C 75.447109 106.06401 75.445451 106.04921 75.445312 106.03711 z "
         transform="scale(0.26458333)" />
    </g>
    <g
       inkscape:groupmode="layer"
       id="layer3"
       inkscape:label="Purple">
      <path
         id="path1600-3-7-2-3-28"
         style="fill:#4f2683;fill-opacity:1;fill-rule:nonzero;stroke-width:0.278866"
         d="M 9.880839,10.2947 C 8.349048,10.3007 6.71771,10.40149 5,10.62698 c 3.53907,8.53507 8.929632,13.16361 11.156942,14.48025 2.00788,1.06504 5.548784,0.62987 8.015014,-0.62219 -1.82339,0.62363 -3.983003,0.73808 -5.308203,0.0351 -1.78184,-1.05333 -6.09482,-4.75623 -8.92607,-11.5843 7.32889,-0.96209 12.692119,0.92139 14.495239,1.93787 0.30186,0.18905 0.587206,0.44217 0.852143,0.7431 -0.580088,-1.1089 -1.321535,-2.03878 -2.166274,-2.5678 C 21.287489,12.01666 16.5186,10.26866 9.880839,10.29466 Z m 14.291117,14.19035 c -1.39046,0.90588 -2.678482,2.61521 -2.727482,3.97805 0.01596,1.55234 0.803776,5.74202 4.177007,10.1415 3.373239,-4.39948 4.161006,-8.58916 4.177006,-10.1415 -0.02147,-0.59765 -0.282017,-1.26141 -0.684197,-1.89549 0.07693,0.22794 0.122224,0.45202 0.130225,0.66559 -0.01277,1.24186 -0.642808,4.59362 -3.341399,8.1132 -2.698589,-3.51958 -3.329114,-6.87134 -3.341914,-8.1132 0.0323,-0.89948 0.739694,-1.98777 1.610754,-2.74815 z M 42.11918,10.2947 c -6.637769,-0.026 -11.406656,1.722 -13.237951,2.75435 -1.926291,1.20636 -3.319722,4.48991 -3.468521,7.25176 0.371629,-1.89093 1.352251,-3.818 2.623611,-4.6142 1.80313,-1.01645 7.16634,-2.89996 14.49524,-1.93786 -2.83125,6.82806 -7.14422,10.53048 -8.92607,11.58379 -0.314661,0.16689 -0.676106,0.28792 -1.069187,0.3669 1.250371,0.0521 2.426256,-0.12515 3.306776,-0.59221 2.2273,-1.31665 7.617873,-5.94517 11.156942,-14.48025 C 45.282308,10.40149 43.650974,10.3007 42.11918,10.2947 Z M 25.412708,20.30081 c -0.08929,-1.65712 -0.925758,-3.62733 -2.081527,-4.35116 -1.35235,-0.76234 -5.374501,-2.1747 -10.871171,-1.45314 2.12344,5.12105 5.357775,7.89836 6.694165,8.68836 0.52831,0.28027 1.233628,0.38622 1.983858,0.35501 -0.23584,-0.0474 -0.452495,-0.12003 -0.641305,-0.22014 -1.0691,-0.63199 -3.656995,-2.85364 -5.355745,-6.95048 4.39734,-0.57726 7.615273,0.55338 8.697143,1.16324 0.76282,0.47772 1.351602,1.63375 1.574582,2.76831 z m 11.349178,-5.34748 c -3.863538,0.0243 -6.636605,1.0446 -7.714258,1.65209 -0.506841,0.31742 -0.951613,0.87565 -1.299662,1.54099 0.158959,-0.18055 0.330486,-0.3325 0.511596,-0.44596 1.08186,-0.60987 4.299286,-1.73998 8.696626,-1.16272 -1.698749,4.09684 -4.286139,6.31848 -5.355227,6.95048 -0.795121,0.42177 -2.09078,0.3535 -3.184819,-0.0207 1.47974,0.75123 3.603752,1.01211 4.808492,0.3731 1.336379,-0.79 4.570725,-3.56732 6.694165,-8.68836 -1.116512,-0.14657 -2.172092,-0.20515 -3.156913,-0.19895 z m -8.345744,8.51421 c 1.451769,1.2673 2.630233,3.08043 2.684073,4.57956 -0.0213,2.06978 -1.07152,7.6562 -5.569169,13.52217 -4.49765,-5.86597 -5.547899,-11.45239 -5.569169,-13.52217 0.0128,-0.35595 0.0889,-0.72958 0.217041,-1.10949 -0.67029,1.05682 -1.104719,2.16393 -1.140499,3.16001 0.0266,2.58723 1.339789,9.56987 6.96185,16.90233 5.622049,-7.33246 6.935247,-14.3151 6.961848,-16.90233 -0.0816,-2.2714 -2.228545,-5.12029 -4.545975,-6.63008 z" />
    </g>
  </g>
</svg>
