<?xml version="1.0" encoding="UTF-8" standalone="no"?>
<!-- Created with Inkscape (http://www.inkscape.org/) -->

<svg
   width="52mm"
   height="52mm"
   viewBox="0 0 52 52"
   version="1.1"
   id="svg934"
   inkscape:version="1.1 (c4e8f9e, 2021-05-24)"
   sodipodi:docname="trilloop-logo.svg"
   xmlns:inkscape="http://www.inkscape.org/namespaces/inkscape"
   xmlns:sodipodi="http://sodipodi.sourceforge.net/DTD/sodipodi-0.dtd"
   xmlns="http://www.w3.org/2000/svg"
   xmlns:svg="http://www.w3.org/2000/svg">
  <sodipodi:namedview
     id="namedview936"
     pagecolor="#ffffff"
     bordercolor="#666666"
     borderopacity="1.0"
     inkscape:pageshadow="2"
     inkscape:pageopacity="0.0"
     inkscape:pagecheckerboard="0"
     inkscape:document-units="mm"
     showgrid="false"
     inkscape:zoom="4.3994184"
     inkscape:cx="186.04732"
     inkscape:cy="110.3555"
     inkscape:window-width="3440"
     inkscape:window-height="1387"
     inkscape:window-x="0"
     inkscape:window-y="25"
     inkscape:window-maximized="1"
     inkscape:current-layer="layer1" />
  <defs
     id="defs931" />
  <g
     inkscape:label="Layer 1"
     inkscape:groupmode="layer"
     id="layer1">
    <path
       id="path1600-3-5-0-91"
       style="fill:#807f83;fill-opacity:1;fill-rule:nonzero;stroke-width:0.224896"
       d="m 25.999963,5 c -1.501961,3.01188 -2.523726,5.957206 -3.215824,8.570019 l 1.369425,0.790649 c 0.48454,-1.42846 1.086811,-2.928737 1.846399,-4.451924 0.914012,1.832862 1.60155,3.63272 2.125451,5.31182 l 1.316715,-0.759643 C 28.754903,11.637668 27.67575,8.360466 25.999963,5 Z m -9.500195,18.891353 c -1.997068,1.951966 -4.146941,4.406919 -6.095235,7.350972 3.474506,-0.212217 6.636979,-0.831853 9.302274,-1.57148 v -1.563211 c -1.552602,0.321281 -3.248703,0.569973 -5.050854,0.680061 1.050986,-1.588137 2.175028,-2.98901 3.286104,-4.218864 h -1.442289 z m 18.707386,0.918806 -1.361676,0.785999 c 1.034894,1.167739 2.076479,2.484301 3.054078,3.961514 -1.766642,-0.107913 -3.4246,-0.351536 -4.952153,-0.663524 v 1.573548 c 2.644161,0.727469 5.772073,1.334484 9.203573,1.54409 -1.89921,-2.869867 -3.989676,-5.273688 -5.943822,-7.201627 z M 19.961572,28.05544 c -0.01668,0.0036 -0.03393,0.0068 -0.05064,0.01035 h 0.05116 c -4.2e-5,-0.0032 -4.76e-4,-0.0071 -5.29e-4,-0.01035 z" />
    <path
       id="path1600-3-7-2-3-28"
       style="fill:#4f2683;fill-opacity:1;fill-rule:nonzero;stroke-width:0.278866"
       d="M 9.880839,10.294488 C 8.349048,10.300488 6.71771,10.401278 5,10.626768 c 3.53907,8.53507 8.929632,13.16361 11.156942,14.48025 2.00788,1.06504 5.548784,0.62987 8.015014,-0.62219 -1.82339,0.62363 -3.983003,0.73808 -5.308203,0.0351 -1.78184,-1.05333 -6.09482,-4.75623 -8.92607,-11.5843 7.32889,-0.96209 12.692119,0.92139 14.495239,1.93787 0.30186,0.18905 0.587206,0.44217 0.852143,0.7431 -0.580088,-1.1089 -1.321535,-2.03878 -2.166274,-2.5678 -1.831302,-1.03235 -6.600191,-2.78035 -13.237952,-2.75435 z m 14.291117,14.19035 c -1.39046,0.90588 -2.678482,2.61521 -2.727482,3.97805 0.01596,1.55234 0.803776,5.74202 4.177007,10.1415 3.373239,-4.39948 4.161006,-8.58916 4.177006,-10.1415 -0.02147,-0.59765 -0.282017,-1.26141 -0.684197,-1.89549 0.07693,0.22794 0.122224,0.45202 0.130225,0.66559 -0.01277,1.24186 -0.642808,4.59362 -3.341399,8.1132 -2.698589,-3.51958 -3.329114,-6.87134 -3.341914,-8.1132 0.0323,-0.89948 0.739694,-1.98777 1.610754,-2.74815 z m 17.94722,-14.19035 c -6.637765,-0.026 -11.406652,1.722 -13.237947,2.75435 -1.926291,1.20636 -3.319722,4.48991 -3.468521,7.25176 0.371629,-1.89093 1.352251,-3.818 2.623611,-4.6142 1.80313,-1.01645 7.16634,-2.89996 14.495237,-1.93786 -2.83125,6.82806 -7.144217,10.53048 -8.926067,11.58379 -0.314661,0.16689 -0.676106,0.28792 -1.069187,0.3669 1.250371,0.0521 2.426256,-0.12515 3.306776,-0.59221 2.2273,-1.31665 7.617878,-5.94517 11.156938,-14.48025 -1.71771,-0.22549 -3.34904,-0.32628 -4.88084,-0.33228 z m -16.706468,10.00611 c -0.08929,-1.65712 -0.925758,-3.62733 -2.081527,-4.35116 -1.35235,-0.76234 -5.374501,-2.1747 -10.871171,-1.45314 2.12344,5.12105 5.357775,7.89836 6.694165,8.68836 0.52831,0.28027 1.233628,0.38622 1.983858,0.35501 -0.23584,-0.0474 -0.452495,-0.12003 -0.641305,-0.22014 -1.0691,-0.63199 -3.656995,-2.85364 -5.355745,-6.95048 4.39734,-0.57726 7.615273,0.55338 8.697143,1.16324 0.76282,0.47772 1.351602,1.63375 1.574582,2.76831 z m 11.349178,-5.34748 c -3.863538,0.0243 -6.636605,1.0446 -7.714258,1.65209 -0.506841,0.31742 -0.951613,0.87565 -1.299662,1.54099 0.158959,-0.18055 0.330486,-0.3325 0.511596,-0.44596 1.08186,-0.60987 4.299286,-1.73998 8.696626,-1.16272 -1.698749,4.09684 -4.286139,6.31848 -5.355227,6.95048 -0.795121,0.42177 -2.09078,0.3535 -3.184819,-0.0207 1.47974,0.75123 3.603752,1.01211 4.808492,0.3731 1.336379,-0.79 4.570725,-3.56732 6.694162,-8.68836 -1.116509,-0.14657 -2.172089,-0.20515 -3.15691,-0.19895 z m -8.345744,8.51421 c 1.451769,1.2673 2.630233,3.08043 2.684073,4.57956 -0.0213,2.06978 -1.07152,7.6562 -5.569169,13.52217 -4.49765,-5.86597 -5.547899,-11.45239 -5.569169,-13.52217 0.0128,-0.35595 0.0889,-0.72958 0.217041,-1.10949 -0.67029,1.05682 -1.104719,2.16393 -1.140499,3.16001 0.0266,2.58723 1.339789,9.56987 6.96185,16.90233 5.622049,-7.33246 6.935247,-14.3151 6.961848,-16.90233 -0.0816,-2.2714 -2.228545,-5.12029 -4.545975,-6.63008 z" />
  </g>
</svg>
