<?xml version="1.0" encoding="UTF-8" standalone="no"?>
<!-- Created with Inkscape (http://www.inkscape.org/) -->

<svg
   width="94.220001mm"
   height="31.385mm"
   viewBox="0 0 94.220001 31.385"
   version="1.1"
   id="svg2209"
   inkscape:version="1.1 (c4e8f9e, 2021-05-24)"
   sodipodi:docname="trilloop-wordmark-path-light.svg"
   xmlns:inkscape="http://www.inkscape.org/namespaces/inkscape"
   xmlns:sodipodi="http://sodipodi.sourceforge.net/DTD/sodipodi-0.dtd"
   xmlns="http://www.w3.org/2000/svg"
   xmlns:svg="http://www.w3.org/2000/svg">
  <sodipodi:namedview
     id="namedview2211"
     pagecolor="#ffffff"
     bordercolor="#666666"
     borderopacity="1.0"
     inkscape:pageshadow="2"
     inkscape:pageopacity="0.0"
     inkscape:pagecheckerboard="0"
     inkscape:document-units="mm"
     showgrid="false"
     inkscape:zoom="3.1108586"
     inkscape:cx="129.06405"
     inkscape:cy="124.24223"
     inkscape:window-width="3440"
     inkscape:window-height="1387"
     inkscape:window-x="0"
     inkscape:window-y="25"
     inkscape:window-maximized="1"
     inkscape:current-layer="layer1" />
  <defs
     id="defs2206" />
  <g
     inkscape:label="Layer 1"
     inkscape:groupmode="layer"
     id="layer1">
    <path
       id="rect5213-1-2"
       style="fill:#4f2683;fill-opacity:1;stroke:none;stroke-width:0.72823;stroke-linejoin:round"
       d="m 17.812481,5 -4.942678,8.56132 h 2.248873 l 4.942675,-8.56043 z m -3.817794,8.9e-4 -4.942672,8.56132 h 2.248872 l 4.94357,-8.56042 z m -3.817789,9e-4 -4.942672,8.56132 h 2.247973 l 4.943574,-8.56042 z m 11.426453,0.0691 -1.12399,1.94837 9.88535,-9e-4 1.12399,-1.94747 z m -1.90979,3.30737 -1.12398,1.94837 9.88534,-9e-4 1.12399,-1.94747 z m -1.90979,3.30559 -1.123989,1.94836 9.885349,-9e-4 1.12399,-1.94746 z" />
    <path
       id="path1868"
       style="font-weight:bold;font-size:13.4723px;line-height:1.25;font-family:'Source Sans Pro';-inkscape-font-specification:'Source Sans Pro Bold';text-align:end;letter-spacing:0px;text-anchor:end;stroke-width:0.459282"
       d="m 33.268559,5.000258 v 1.670699 h 2.411222 v 7.113261 h 1.994194 V 6.670957 h 2.411222 V 5.000258 Z m 8.199501,0 v 8.78396 h 1.980755 V 10.61852 h 1.090891 l 1.684136,3.165698 h 2.223119 l -1.994194,-3.516064 c 0.94306,-0.417641 1.563212,-1.239322 1.563212,-2.532662 0,-2.088207 -1.522529,-2.735234 -3.381706,-2.735234 z m 8.262543,0 v 8.78396 h 1.980242 v -8.78396 z m 4.051948,0 v 8.78396 h 5.456515 V 12.113519 H 55.763309 V 5.000258 Z m 6.973218,0 v 8.78396 h 5.455999 V 12.113519 H 62.736011 V 5.000258 Z m 6.972702,0 v 8.78396 h 1.980758 v -8.78396 z m 3.998722,0 v 4.715475 c 0,2.950433 1.239245,4.230232 3.516064,4.230232 2.263352,0 3.462322,-1.279799 3.462322,-4.230232 V 5.000258 h -1.913062 v 4.917529 c 0,1.724455 -0.56578,2.317172 -1.54926,2.317172 -0.98348,0 -1.522386,-0.592717 -1.522386,-2.317172 V 5.000258 Z m 8.999966,0 v 8.78396 h 1.778704 V 10.56426 c 0,-0.862228 -0.162004,-2.14176 -0.256315,-2.990515 h 0.05426 l 0.700214,2.088244 1.253154,3.354317 h 1.091406 L 86.60122,9.661989 87.315389,7.573745 h 0.05374 C 87.274829,8.4225 87.11333,9.702032 87.11333,10.56426 v 3.219958 h 1.805059 V 5.000258 H 86.762963 L 85.375451,8.907513 C 85.200313,9.41946 85.051916,9.98506 84.876775,10.523952 h -0.05374 C 84.647895,9.98506 84.48606,9.41946 84.310922,8.907513 L 82.896536,5.000258 Z M 43.448815,6.576389 h 1.02371 c 1.037368,0 1.603005,0.296875 1.603005,1.159103 0,0.862227 -0.565637,1.30638 -1.603005,1.30638 h -1.02371 z m 20.532598,9.045443 c -2.802239,0 -4.712891,1.942697 -4.712891,5.33404 0,3.391345 1.910652,5.429126 4.712891,5.429126 2.802229,0 4.712891,-2.037781 4.712891,-5.429126 0,-3.375421 -1.910662,-5.33404 -4.712891,-5.33404 z m 10.88409,0 c -2.802241,0 -4.71289,1.942697 -4.71289,5.33404 0,3.391345 1.910649,5.429126 4.71289,5.429126 2.802229,0 4.712891,-2.037781 4.712891,-5.429126 0,-3.375421 -1.910662,-5.33404 -4.712891,-5.33404 z M 5,15.813035 v 10.380762 h 2.340427 v -4.330486 h 3.58221 v 4.330486 h 2.356445 V 15.813035 h -2.356445 v 3.996138 h -3.58221 v -3.996138 z m 9.37514,0 3.136241,6.68693 v 3.693832 h 2.340943 v -3.693832 l 3.136244,-6.68693 h -2.452047 l -0.938962,2.387968 c -0.286591,0.780168 -0.573402,1.496793 -0.875916,2.292883 h -0.06356 c -0.286594,-0.79609 -0.557284,-1.512715 -0.843875,-2.292883 l -0.923459,-2.387968 z m 9.71827,0 v 10.380762 h 2.340424 v -3.518649 h 1.289844 c 2.197209,0 4.060217,-1.082611 4.060217,-3.518648 0,-2.515644 -1.846961,-3.343465 -4.123778,-3.343465 z m 9.48469,0 v 10.380762 h 6.655409 v -1.97404 h -4.314981 v -2.388484 h 3.534666 v -1.958538 h -3.534666 v -2.08566 h 4.155818 v -1.97404 z m 8.738487,0 v 10.380762 h 2.340424 v -3.741375 h 1.289844 l 1.990058,3.741375 h 2.627231 l -2.356446,-4.155302 c 1.114526,-0.493575 1.846916,-1.465124 1.846916,-2.993616 0,-2.467879 -1.799447,-3.231844 -3.996655,-3.231844 z m 9.764259,0 v 10.380762 h 6.448703 v -1.97404 H 54.42179 v -8.406722 z m 29.449366,0 v 10.380762 h 2.340425 v -3.518649 h 1.289843 c 2.197212,0 4.059701,-1.082611 4.059701,-3.518648 0,-2.515644 -1.846958,-3.343465 -4.123777,-3.343465 z m -17.548799,1.830896 c 1.41704,0 2.308386,1.242108 2.308386,3.311941 0,2.085756 -0.891346,3.407029 -2.308386,3.407029 -1.417039,0 -2.308902,-1.321273 -2.308902,-3.407029 0,-2.069833 0.891863,-3.311941 2.308902,-3.311941 z m 10.88409,0 c 1.41704,0 2.308387,1.242108 2.308387,3.311941 0,2.085756 -0.891347,3.407029 -2.308387,3.407029 -1.417039,0 -2.308902,-1.321273 -2.308902,-3.407029 0,-2.069833 0.891863,-3.311941 2.308902,-3.311941 z m -48.431669,0.03204 h 1.082622 c 1.273744,0 1.974557,0.397848 1.974557,1.48053 0,1.082683 -0.620813,1.655713 -1.91048,1.655713 h -1.146699 z m 18.223177,0 h 1.210263 c 1.225978,0 1.894459,0.349913 1.894459,1.368909 0,1.018995 -0.668481,1.544608 -1.894459,1.544609 h -1.210263 z m 39.213626,0 h 1.082622 c 1.273741,0 1.974556,0.397848 1.974556,1.48053 0,1.082683 -0.621324,1.655713 -1.910993,1.655713 h -1.146185 z" />
    <g
       aria-label="HYPERLOOP"
       id="text11476-4"
       style="font-size:15.9218px;line-height:1.25;stroke-width:0.459282"
       transform="translate(-39.745071,-5.6269999)" />
  </g>
</svg>
