<?xml version="1.0" encoding="UTF-8" standalone="no"?>
<!-- Created with Inkscape (http://www.inkscape.org/) -->

<svg
   width="62mm"
   height="62mm"
   viewBox="0 0 62 62"
   version="1.1"
   id="svg2849"
   inkscape:export-filename="/Users/hold3n/trilloop/logos/final/trilloop-logo-purpbg.png"
   inkscape:export-xdpi="163.87"
   inkscape:export-ydpi="163.87"
   inkscape:version="1.1 (c4e8f9e, 2021-05-24)"
   sodipodi:docname="trilloop-logo-purpbg.svg"
   xmlns:inkscape="http://www.inkscape.org/namespaces/inkscape"
   xmlns:sodipodi="http://sodipodi.sourceforge.net/DTD/sodipodi-0.dtd"
   xmlns="http://www.w3.org/2000/svg"
   xmlns:svg="http://www.w3.org/2000/svg">
  <sodipodi:namedview
     id="namedview2851"
     pagecolor="#4f2683"
     bordercolor="#666666"
     borderopacity="1.0"
     inkscape:pageshadow="2"
     inkscape:pageopacity="1"
     inkscape:pagecheckerboard="0"
     inkscape:document-units="mm"
     showgrid="false"
     inkscape:zoom="3.1108586"
     inkscape:cx="127.29605"
     inkscape:cy="90.168033"
     inkscape:window-width="1855"
     inkscape:window-height="1081"
     inkscape:window-x="1298"
     inkscape:window-y="140"
     inkscape:window-maximized="0"
     inkscape:current-layer="layer1" />
  <defs
     id="defs2846" />
  <g
     inkscape:label="Layer 1"
     inkscape:groupmode="layer"
     id="layer1">
    <path
       id="path1600-3-5-0-91"
       style="fill:#807f83;fill-opacity:1;fill-rule:nonzero;stroke-width:0.224896"
       d="m 30.999967,10 c -1.50196,3.01188 -2.52373,5.95721 -3.21583,8.57002 l 1.36943,0.79065 c 0.48454,-1.42846 1.08681,-2.92874 1.8464,-4.45193 0.91401,1.83287 1.60155,3.63272 2.12545,5.31182 l 1.31671,-0.75964 C 33.754907,16.63767 32.675747,13.36047 30.999967,10 Z m -9.500199,18.89135 c -1.997068,1.95197 -4.146941,4.40692 -6.095235,7.35097 3.474506,-0.21221 6.636979,-0.83185 9.302274,-1.57148 v -1.56321 c -1.552602,0.32128 -3.248703,0.56998 -5.050854,0.68006 1.050986,-1.58813 2.175028,-2.98901 3.286104,-4.21886 h -1.442289 z m 18.707389,0.91881 -1.36168,0.786 c 1.0349,1.16774 2.07648,2.4843 3.05408,3.96151 -1.76664,-0.10791 -3.4246,-0.35153 -4.95215,-0.66352 v 1.57355 c 2.64416,0.72746 5.77207,1.33448 9.20357,1.54409 -1.89921,-2.86987 -3.98968,-5.27369 -5.94382,-7.20163 z m -15.245585,3.24528 c -0.01668,0.004 -0.03393,0.007 -0.05064,0.0103 h 0.05116 c -4.2e-5,-0.003 -4.76e-4,-0.007 -5.29e-4,-0.0103 z" />
    <path
       id="path1600-3-7-2-3-28"
       style="fill:#ffffff;fill-opacity:1;fill-rule:nonzero;stroke-width:0.278866"
       d="M 14.880839,15.29449 C 13.349048,15.30049 11.71771,15.40128 10,15.62677 c 3.53907,8.53507 8.929632,13.16361 11.156942,14.48025 2.00788,1.06504 5.548785,0.62987 8.015015,-0.62219 -1.82339,0.62363 -3.983004,0.73808 -5.308204,0.0351 -1.78184,-1.05333 -6.09482,-4.75623 -8.92607,-11.5843 7.32889,-0.96209 12.692124,0.92139 14.495244,1.93787 0.30186,0.18905 0.5872,0.44217 0.85214,0.7431 -0.58009,-1.1089 -1.32154,-2.03878 -2.16628,-2.5678 -1.8313,-1.03235 -6.600187,-2.78035 -13.237948,-2.75435 z m 14.291118,14.19035 c -1.39046,0.90588 -2.67848,2.61521 -2.72748,3.97805 0.016,1.55234 0.80377,5.74202 4.177,10.1415 3.37324,-4.39948 4.16101,-8.58916 4.17701,-10.1415 -0.0215,-0.59765 -0.28202,-1.26141 -0.6842,-1.89549 0.0769,0.22794 0.12223,0.45202 0.13023,0.66559 -0.0128,1.24186 -0.64281,4.59362 -3.3414,8.1132 -2.69859,-3.51958 -3.32911,-6.87134 -3.34191,-8.1132 0.0323,-0.89948 0.73969,-1.98777 1.61075,-2.74815 z m 17.94722,-14.19035 c -6.63777,-0.026 -11.40665,1.722 -13.23795,2.75435 -1.92629,1.20636 -3.31972,4.48991 -3.46852,7.25176 0.37163,-1.89093 1.35225,-3.818 2.62361,-4.6142 1.80313,-1.01645 7.16634,-2.89996 14.49524,-1.93786 -2.83125,6.82806 -7.14422,10.53048 -8.92607,11.58379 -0.31466,0.16689 -0.6761,0.28792 -1.06918,0.3669 1.25037,0.0521 2.42625,-0.12515 3.30677,-0.59221 2.2273,-1.31665 7.61788,-5.94517 11.15694,-14.48025 -1.71771,-0.22549 -3.34904,-0.32628 -4.88084,-0.33228 z M 30.412707,25.3006 c -0.0893,-1.65712 -0.92576,-3.62733 -2.08153,-4.35116 -1.35235,-0.76234 -5.374497,-2.1747 -10.871167,-1.45314 2.12344,5.12105 5.357775,7.89836 6.694165,8.68836 0.52831,0.28027 1.233628,0.38622 1.983862,0.35501 -0.23584,-0.0474 -0.452499,-0.12003 -0.641309,-0.22014 -1.0691,-0.63199 -3.656995,-2.85364 -5.355745,-6.95048 4.39734,-0.57726 7.615274,0.55338 8.697144,1.16324 0.76282,0.47772 1.3516,1.63375 1.57458,2.76831 z m 11.34918,-5.34748 c -3.86354,0.0243 -6.63661,1.0446 -7.71426,1.65209 -0.50684,0.31742 -0.95161,0.87565 -1.29966,1.54099 0.15896,-0.18055 0.33049,-0.3325 0.5116,-0.44596 1.08186,-0.60987 4.29928,-1.73998 8.69662,-1.16272 -1.69875,4.09684 -4.28614,6.31848 -5.35523,6.95048 -0.79512,0.42177 -2.09078,0.3535 -3.18481,-0.0207 1.47974,0.75123 3.60375,1.01211 4.80849,0.3731 1.33638,-0.79 4.57072,-3.56732 6.69416,-8.68836 -1.11651,-0.14657 -2.17209,-0.20515 -3.15691,-0.19895 z m -8.34574,8.51421 c 1.45176,1.2673 2.63023,3.08043 2.68407,4.57956 -0.0213,2.06978 -1.07152,7.6562 -5.56917,13.52217 -4.49765,-5.86597 -5.5479,-11.45239 -5.56917,-13.52217 0.0128,-0.35595 0.0889,-0.72958 0.217041,-1.10949 -0.67029,1.05682 -1.104719,2.16393 -1.140499,3.16001 0.0266,2.58723 1.339789,9.56987 6.961848,16.90233 5.62205,-7.33246 6.93525,-14.3151 6.96185,-16.90233 -0.0816,-2.2714 -2.22854,-5.12029 -4.54597,-6.63008 z" />
  </g>
</svg>
