<?xml version="1.0" encoding="UTF-8"?>
<!-- Created with Inkscape (http://www.inkscape.org/) -->
<svg width="52mm" height="52mm" version="1.1" viewBox="0 0 52 52" xmlns="http://www.w3.org/2000/svg">
 <g>
  <path d="m26 5c-1.502 3.0119-2.5237 5.9572-3.2158 8.57l1.3694 0.79065c0.48454-1.4285 1.0868-2.9287 1.8464-4.4519 0.91401 1.8329 1.6016 3.6327 2.1255 5.3118l1.3167-0.75964c-0.68723-2.8233-1.7664-6.1005-3.4422-9.4609zm-9.5002 18.891c-1.9971 1.952-4.1469 4.4069-6.0952 7.351 3.4745-0.21222 6.637-0.83185 9.3023-1.5715v-1.5632c-1.5526 0.32128-3.2487 0.56997-5.0509 0.68006 1.051-1.5881 2.175-2.989 3.2861-4.2189h-1.4423zm18.707 0.91881-1.3617 0.786c1.0349 1.1677 2.0765 2.4843 3.0541 3.9615-1.7666-0.10791-3.4246-0.35154-4.9522-0.66352v1.5735c2.6442 0.72747 5.7721 1.3345 9.2036 1.5441-1.8992-2.8699-3.9897-5.2737-5.9438-7.2016zm-15.246 3.2453c-0.01668 0.0036-0.03393 0.0068-0.05064 0.01035h0.05116c-4.2e-5 -0.0032-4.76e-4 -0.0071-5.29e-4 -0.01035z" fill="#807f83" stroke-width=".2249"/>
  <path d="m9.8808 10.294c-1.5318 6e-3 -3.1631 0.10679-4.8808 0.33228 3.5391 8.5351 8.9296 13.164 11.157 14.48 2.0079 1.065 5.5488 0.62987 8.015-0.62219-1.8234 0.62363-3.983 0.73808-5.3082 0.0351-1.7818-1.0533-6.0948-4.7562-8.9261-11.584 7.3289-0.96209 12.692 0.92139 14.495 1.9379 0.30186 0.18905 0.58721 0.44217 0.85214 0.7431-0.58009-1.1089-1.3215-2.0388-2.1663-2.5678-1.8313-1.0324-6.6002-2.7804-13.238-2.7544zm14.291 14.19c-1.3905 0.90588-2.6785 2.6152-2.7275 3.978 0.01596 1.5523 0.80378 5.742 4.177 10.142 3.3732-4.3995 4.161-8.5892 4.177-10.142-0.02147-0.59765-0.28202-1.2614-0.6842-1.8955 0.07693 0.22794 0.12222 0.45202 0.13022 0.66559-0.01277 1.2419-0.64281 4.5936-3.3414 8.1132-2.6986-3.5196-3.3291-6.8713-3.3419-8.1132 0.0323-0.89948 0.73969-1.9878 1.6108-2.7482zm17.947-14.19c-6.6378-0.026-11.407 1.722-13.238 2.7544-1.9263 1.2064-3.3197 4.4899-3.4685 7.2518 0.37163-1.8909 1.3523-3.818 2.6236-4.6142 1.8031-1.0164 7.1663-2.9 14.495-1.9379-2.8312 6.8281-7.1442 10.53-8.9261 11.584-0.31466 0.16689-0.67611 0.28792-1.0692 0.3669 1.2504 0.0521 2.4263-0.12515 3.3068-0.59221 2.2273-1.3166 7.6179-5.9452 11.157-14.48-1.7177-0.22549-3.349-0.32628-4.8808-0.33228zm-16.706 10.006c-0.08929-1.6571-0.92576-3.6273-2.0815-4.3512-1.3524-0.76234-5.3745-2.1747-10.871-1.4531 2.1234 5.121 5.3578 7.8984 6.6942 8.6884 0.52831 0.28027 1.2336 0.38622 1.9839 0.35501-0.23584-0.0474-0.4525-0.12003-0.6413-0.22014-1.0691-0.63199-3.657-2.8536-5.3557-6.9505 4.3973-0.57726 7.6153 0.55338 8.6971 1.1632 0.76282 0.47772 1.3516 1.6338 1.5746 2.7683zm11.349-5.3475c-3.8635 0.0243-6.6366 1.0446-7.7143 1.6521-0.50684 0.31742-0.95161 0.87565-1.2997 1.541 0.15896-0.18055 0.33049-0.3325 0.5116-0.44596 1.0819-0.60987 4.2993-1.74 8.6966-1.1627-1.6987 4.0968-4.2861 6.3185-5.3552 6.9505-0.79512 0.42177-2.0908 0.3535-3.1848-0.0207 1.4797 0.75123 3.6038 1.0121 4.8085 0.3731 1.3364-0.79 4.5707-3.5673 6.6942-8.6884-1.1165-0.14657-2.1721-0.20515-3.1569-0.19895zm-8.3457 8.5142c1.4518 1.2673 2.6302 3.0804 2.6841 4.5796-0.0213 2.0698-1.0715 7.6562-5.5692 13.522-4.4976-5.866-5.5479-11.452-5.5692-13.522 0.0128-0.35595 0.0889-0.72958 0.21704-1.1095-0.67029 1.0568-1.1047 2.1639-1.1405 3.16 0.0266 2.5872 1.3398 9.5699 6.9618 16.902 5.622-7.3325 6.9352-14.315 6.9618-16.902-0.0816-2.2714-2.2285-5.1203-4.546-6.6301z" fill="#4f2683" stroke-width=".27887"/>
 </g>
</svg>
