<?xml version="1.0" encoding="UTF-8" standalone="no"?>
<!-- Created with Inkscape (http://www.inkscape.org/) -->

<svg
   width="210mm"
   height="297mm"
   viewBox="0 0 210 297"
   version="1.1"
   id="svg8094"
   inkscape:version="1.1 (c4e8f9e, 2021-05-24)"
   sodipodi:docname="trilloop-sub-all-raw-purpbg.svg"
   xmlns:inkscape="http://www.inkscape.org/namespaces/inkscape"
   xmlns:sodipodi="http://sodipodi.sourceforge.net/DTD/sodipodi-0.dtd"
   xmlns="http://www.w3.org/2000/svg"
   xmlns:svg="http://www.w3.org/2000/svg">
  <sodipodi:namedview
     id="namedview8096"
     pagecolor="#4f2683"
     bordercolor="#666666"
     borderopacity="1.0"
     inkscape:pageshadow="2"
     inkscape:pageopacity="1"
     inkscape:pagecheckerboard="0"
     inkscape:document-units="mm"
     showgrid="false"
     inkscape:zoom="1.5554293"
     inkscape:cx="398.28233"
     inkscape:cy="359.06486"
     inkscape:window-width="3440"
     inkscape:window-height="1387"
     inkscape:window-x="1"
     inkscape:window-y="25"
     inkscape:window-maximized="0"
     inkscape:current-layer="layer1" />
  <defs
     id="defs8091" />
  <g
     inkscape:label="Layer 1"
     inkscape:groupmode="layer"
     id="layer1">
    <path
       id="path1600-3-5-0-91"
       style="fill:#807f83;fill-opacity:1;fill-rule:nonzero;stroke-width:0.224896"
       d="m 30.999967,11.5 c -1.50196,3.01188 -2.52373,5.95721 -3.21583,8.57002 l 1.36943,0.79065 c 0.48454,-1.42846 1.08681,-2.92874 1.8464,-4.45193 0.91401,1.83287 1.60155,3.63272 2.12545,5.31182 l 1.31671,-0.75964 C 33.754907,18.13767 32.675747,14.86047 30.999967,11.5 Z m -9.500199,18.89135 c -1.997068,1.95197 -4.146941,4.40692 -6.095235,7.35097 3.474506,-0.21221 6.636979,-0.83185 9.302274,-1.57148 v -1.56321 c -1.552602,0.32128 -3.248703,0.56998 -5.050854,0.68006 1.050986,-1.58813 2.175028,-2.98901 3.286104,-4.21886 h -1.442289 z m 18.707389,0.91881 -1.36168,0.786 c 1.0349,1.16774 2.07648,2.4843 3.05408,3.96151 -1.76664,-0.10791 -3.4246,-0.35153 -4.95215,-0.66352 v 1.57355 c 2.64416,0.72746 5.77207,1.33448 9.20357,1.54409 -1.89921,-2.86987 -3.98968,-5.27369 -5.94382,-7.20163 z m -15.245585,3.24528 c -0.01668,0.004 -0.03393,0.007 -0.05064,0.0103 h 0.05116 c -4.2e-5,-0.003 -4.76e-4,-0.007 -5.29e-4,-0.0103 z" />
    <path
       id="path1600-3-7-2-3-28"
       style="fill:#ffffff;fill-opacity:1;fill-rule:nonzero;stroke-width:0.278866"
       d="M 14.880839,16.79449 C 13.349048,16.80049 11.71771,16.90128 10,17.12677 c 3.53907,8.53507 8.929632,13.16361 11.156942,14.48025 2.00788,1.06504 5.548785,0.62987 8.015015,-0.62219 -1.82339,0.62363 -3.983004,0.73808 -5.308204,0.0351 -1.78184,-1.05333 -6.09482,-4.75623 -8.92607,-11.5843 7.32889,-0.96209 12.692124,0.92139 14.495244,1.93787 0.30186,0.18905 0.5872,0.44217 0.85214,0.7431 -0.58009,-1.1089 -1.32154,-2.03878 -2.16628,-2.5678 -1.8313,-1.03235 -6.600187,-2.78035 -13.237948,-2.75435 z m 14.291118,14.19035 c -1.39046,0.90588 -2.67848,2.61521 -2.72748,3.97805 0.016,1.55234 0.80377,5.74202 4.177,10.1415 3.37324,-4.39948 4.16101,-8.58916 4.17701,-10.1415 -0.0215,-0.59765 -0.28202,-1.26141 -0.6842,-1.89549 0.0769,0.22794 0.12223,0.45202 0.13023,0.66559 -0.0128,1.24186 -0.64281,4.59362 -3.3414,8.1132 -2.69859,-3.51958 -3.32911,-6.87134 -3.34191,-8.1132 0.0323,-0.89948 0.73969,-1.98777 1.61075,-2.74815 z m 17.94722,-14.19035 c -6.63777,-0.026 -11.40665,1.722 -13.23795,2.75435 -1.92629,1.20636 -3.31972,4.48991 -3.46852,7.25176 0.37163,-1.89093 1.35225,-3.818 2.62361,-4.6142 1.80313,-1.01645 7.16634,-2.89996 14.49524,-1.93786 -2.83125,6.82806 -7.14422,10.53048 -8.92607,11.58379 -0.31466,0.16689 -0.6761,0.28792 -1.06918,0.3669 1.25037,0.0521 2.42625,-0.12515 3.30677,-0.59221 2.2273,-1.31665 7.61788,-5.94517 11.15694,-14.48025 -1.71771,-0.22549 -3.34904,-0.32628 -4.88084,-0.33228 z M 30.412707,26.8006 c -0.0893,-1.65712 -0.92576,-3.62733 -2.08153,-4.35116 -1.35235,-0.76234 -5.374497,-2.1747 -10.871167,-1.45314 2.12344,5.12105 5.357775,7.89836 6.694165,8.68836 0.52831,0.28027 1.233628,0.38622 1.983862,0.35501 -0.23584,-0.0474 -0.452499,-0.12003 -0.641309,-0.22014 -1.0691,-0.63199 -3.656995,-2.85364 -5.355745,-6.95048 4.39734,-0.57726 7.615274,0.55338 8.697144,1.16324 0.76282,0.47772 1.3516,1.63375 1.57458,2.76831 z m 11.34918,-5.34748 c -3.86354,0.0243 -6.63661,1.0446 -7.71426,1.65209 -0.50684,0.31742 -0.95161,0.87565 -1.29966,1.54099 0.15896,-0.18055 0.33049,-0.3325 0.5116,-0.44596 1.08186,-0.60987 4.29928,-1.73998 8.69662,-1.16272 -1.69875,4.09684 -4.28614,6.31848 -5.35523,6.95048 -0.79512,0.42177 -2.09078,0.3535 -3.18481,-0.0207 1.47974,0.75123 3.60375,1.01211 4.80849,0.3731 1.33638,-0.79 4.57072,-3.56732 6.69416,-8.68836 -1.11651,-0.14657 -2.17209,-0.20515 -3.15691,-0.19895 z m -8.34574,8.51421 c 1.45176,1.2673 2.63023,3.08043 2.68407,4.57956 -0.0213,2.06978 -1.07152,7.6562 -5.56917,13.52217 -4.49765,-5.86597 -5.5479,-11.45239 -5.56917,-13.52217 0.0128,-0.35595 0.0889,-0.72958 0.217041,-1.10949 -0.67029,1.05682 -1.104719,2.16393 -1.140499,3.16001 0.0266,2.58723 1.339789,9.56987 6.961848,16.90233 5.62205,-7.33246 6.93525,-14.3151 6.96185,-16.90233 -0.0816,-2.2714 -2.22854,-5.12029 -4.54597,-6.63008 z" />
    <rect
       style="fill:#ffffff;fill-opacity:1;stroke:#ffffff;stroke-width:3.53063;stroke-linecap:butt;stroke-linejoin:round;stroke-miterlimit:4;stroke-dasharray:none;stroke-opacity:1"
       id="rect24544"
       width="34.469368"
       height="4.4693661"
       x="13.765315"
       y="10.265315" />
    <text
       xml:space="preserve"
       style="font-style:normal;font-weight:normal;font-size:7.05556px;line-height:1.25;font-family:sans-serif;letter-spacing:0px;fill:#4f2683;fill-opacity:1;stroke:none;stroke-width:0.264583"
       x="13.896055"
       y="14.745635"
       id="text8724"><tspan
         sodipodi:role="line"
         id="tspan8722"
         style="font-style:normal;font-variant:normal;font-weight:bold;font-stretch:normal;font-size:7.05556px;font-family:'Source Sans Pro';-inkscape-font-specification:'Source Sans Pro Bold';fill:#4f2683;fill-opacity:1;stroke-width:0.264583"
         x="13.896055"
         y="14.745635">SOFTWARE</tspan></text>
    <rect
       style="fill:#807f83;fill-opacity:1;stroke:#807f83;stroke-width:2.71781;stroke-linecap:butt;stroke-linejoin:round;stroke-miterlimit:4;stroke-dasharray:none;stroke-opacity:1"
       id="rect24544-57"
       width="17.28219"
       height="5.2821875"
       x="22.358906"
       y="48.358906" />
    <text
       xml:space="preserve"
       style="font-style:normal;font-weight:normal;font-size:7.05556px;line-height:1.25;font-family:sans-serif;letter-spacing:0px;fill:#4f2683;fill-opacity:1;stroke:none;stroke-width:0.264583"
       x="22.896053"
       y="53.24564"
       id="text8724-96"><tspan
         sodipodi:role="line"
         id="tspan8722-247"
         style="font-style:normal;font-variant:normal;font-weight:bold;font-stretch:normal;font-size:7.05556px;font-family:'Source Sans Pro';-inkscape-font-specification:'Source Sans Pro Bold';fill:#ffffff;fill-opacity:1;stroke-width:0.264583"
         x="22.896053"
         y="53.24564">LEAD</tspan></text>
    <path
       id="path1600-3-5-0-91-5"
       style="fill:#807f83;fill-opacity:1;fill-rule:nonzero;stroke-width:0.224896"
       d="m 30.999967,140 c -1.50196,3.01188 -2.52373,5.95721 -3.21583,8.57002 l 1.36943,0.79065 c 0.48454,-1.42846 1.08681,-2.92874 1.8464,-4.45193 0.91401,1.83287 1.60155,3.63272 2.12545,5.31182 l 1.31671,-0.75964 c -0.68722,-2.82325 -1.76638,-6.10045 -3.44216,-9.46092 z m -9.500199,18.89135 c -1.997068,1.95197 -4.146941,4.40692 -6.095235,7.35097 3.474506,-0.21221 6.636979,-0.83185 9.302274,-1.57148 v -1.56321 c -1.552602,0.32128 -3.248703,0.56998 -5.050854,0.68006 1.050986,-1.58813 2.175028,-2.98901 3.286104,-4.21886 h -1.442289 z m 18.707389,0.91881 -1.36168,0.786 c 1.0349,1.16774 2.07648,2.4843 3.05408,3.96151 -1.76664,-0.10791 -3.4246,-0.35153 -4.95215,-0.66352 v 1.57355 c 2.64416,0.72746 5.77207,1.33448 9.20357,1.54409 -1.89921,-2.86987 -3.98968,-5.27369 -5.94382,-7.20163 z m -15.245585,3.24528 c -0.01668,0.004 -0.03393,0.007 -0.05064,0.0103 h 0.05116 c -4.2e-5,-0.003 -4.76e-4,-0.007 -5.29e-4,-0.0103 z" />
    <path
       id="path1600-3-7-2-3-28-8"
       style="fill:#ffffff;fill-opacity:1;fill-rule:nonzero;stroke-width:0.278866"
       d="m 14.880839,145.29449 c -1.531791,0.006 -3.163129,0.10679 -4.880839,0.33228 3.53907,8.53507 8.929632,13.16361 11.156942,14.48025 2.00788,1.06504 5.548785,0.62987 8.015015,-0.62219 -1.82339,0.62363 -3.983004,0.73808 -5.308204,0.0351 -1.78184,-1.05333 -6.09482,-4.75623 -8.92607,-11.5843 7.32889,-0.96209 12.692124,0.92139 14.495244,1.93787 0.30186,0.18905 0.5872,0.44217 0.85214,0.7431 -0.58009,-1.1089 -1.32154,-2.03878 -2.16628,-2.5678 -1.8313,-1.03235 -6.600187,-2.78035 -13.237948,-2.75435 z m 14.291118,14.19035 c -1.39046,0.90588 -2.67848,2.61521 -2.72748,3.97805 0.016,1.55234 0.80377,5.74202 4.177,10.1415 3.37324,-4.39948 4.16101,-8.58916 4.17701,-10.1415 -0.0215,-0.59765 -0.28202,-1.26141 -0.6842,-1.89549 0.0769,0.22794 0.12223,0.45202 0.13023,0.66559 -0.0128,1.24186 -0.64281,4.59362 -3.3414,8.1132 -2.69859,-3.51958 -3.32911,-6.87134 -3.34191,-8.1132 0.0323,-0.89948 0.73969,-1.98777 1.61075,-2.74815 z m 17.94722,-14.19035 c -6.63777,-0.026 -11.40665,1.722 -13.23795,2.75435 -1.92629,1.20636 -3.31972,4.48991 -3.46852,7.25176 0.37163,-1.89093 1.35225,-3.818 2.62361,-4.6142 1.80313,-1.01645 7.16634,-2.89996 14.49524,-1.93786 -2.83125,6.82806 -7.14422,10.53048 -8.92607,11.58379 -0.31466,0.16689 -0.6761,0.28792 -1.06918,0.3669 1.25037,0.0521 2.42625,-0.12515 3.30677,-0.59221 2.2273,-1.31665 7.61788,-5.94517 11.15694,-14.48025 -1.71771,-0.22549 -3.34904,-0.32628 -4.88084,-0.33228 z m -16.70647,10.00611 c -0.0893,-1.65712 -0.92576,-3.62733 -2.08153,-4.35116 -1.35235,-0.76234 -5.374497,-2.1747 -10.871167,-1.45314 2.12344,5.12105 5.357775,7.89836 6.694165,8.68836 0.52831,0.28027 1.233628,0.38622 1.983862,0.35501 -0.23584,-0.0474 -0.452499,-0.12003 -0.641309,-0.22014 -1.0691,-0.63199 -3.656995,-2.85364 -5.355745,-6.95048 4.39734,-0.57726 7.615274,0.55338 8.697144,1.16324 0.76282,0.47772 1.3516,1.63375 1.57458,2.76831 z m 11.34918,-5.34748 c -3.86354,0.0243 -6.63661,1.0446 -7.71426,1.65209 -0.50684,0.31742 -0.95161,0.87565 -1.29966,1.54099 0.15896,-0.18055 0.33049,-0.3325 0.5116,-0.44596 1.08186,-0.60987 4.29928,-1.73998 8.69662,-1.16272 -1.69875,4.09684 -4.28614,6.31848 -5.35523,6.95048 -0.79512,0.42177 -2.09078,0.3535 -3.18481,-0.0207 1.47974,0.75123 3.60375,1.01211 4.80849,0.3731 1.33638,-0.79 4.57072,-3.56732 6.69416,-8.68836 -1.11651,-0.14657 -2.17209,-0.20515 -3.15691,-0.19895 z m -8.34574,8.51421 c 1.45176,1.2673 2.63023,3.08043 2.68407,4.57956 -0.0213,2.06978 -1.07152,7.6562 -5.56917,13.52217 -4.49765,-5.86597 -5.5479,-11.45239 -5.56917,-13.52217 0.0128,-0.35595 0.0889,-0.72958 0.217041,-1.10949 -0.67029,1.05682 -1.104719,2.16393 -1.140499,3.16001 0.0266,2.58723 1.339789,9.56987 6.961848,16.90233 5.62205,-7.33246 6.93525,-14.3151 6.96185,-16.90233 -0.0816,-2.2714 -2.22854,-5.12029 -4.54597,-6.63008 z" />
    <rect
       style="fill:#ffffff;fill-opacity:1;stroke:#ffffff;stroke-width:3.33358;stroke-linecap:butt;stroke-linejoin:round;stroke-miterlimit:4;stroke-dasharray:none;stroke-opacity:1"
       id="rect24544-5"
       width="29.431423"
       height="4.6664214"
       x="16.53479"
       y="138.66679" />
    <text
       xml:space="preserve"
       style="font-style:normal;font-weight:normal;font-size:7.05556px;line-height:1.25;font-family:sans-serif;letter-spacing:0px;fill:#4f2683;fill-opacity:1;stroke:none;stroke-width:0.264583"
       x="16.824223"
       y="143.24564"
       id="text8724-3"><tspan
         sodipodi:role="line"
         id="tspan8722-7"
         style="font-style:normal;font-variant:normal;font-weight:bold;font-stretch:normal;font-size:7.05556px;font-family:'Source Sans Pro';-inkscape-font-specification:'Source Sans Pro Bold';fill:#4f2683;fill-opacity:1;stroke-width:0.264583"
         x="16.824223"
         y="143.24564">BRAKING</tspan></text>
    <path
       id="path1600-3-5-0-91-5-9"
       style="fill:#807f83;fill-opacity:1;fill-rule:nonzero;stroke-width:0.224896"
       d="m 92.999967,140 c -1.50196,3.01188 -2.52373,5.95721 -3.21583,8.57002 l 1.36943,0.79065 c 0.48454,-1.42846 1.08681,-2.92874 1.8464,-4.45193 0.91401,1.83287 1.60155,3.63272 2.12545,5.31182 l 1.31671,-0.75964 c -0.68722,-2.82325 -1.76638,-6.10045 -3.44216,-9.46092 z m -9.500199,18.89135 c -1.997068,1.95197 -4.146941,4.40692 -6.095235,7.35097 3.474506,-0.21221 6.636979,-0.83185 9.302274,-1.57148 v -1.56321 c -1.552602,0.32128 -3.248703,0.56998 -5.050854,0.68006 1.050986,-1.58813 2.175028,-2.98901 3.286104,-4.21886 h -1.442289 z m 18.707392,0.91881 -1.36168,0.786 c 1.0349,1.16774 2.07648,2.4843 3.05408,3.96151 -1.76664,-0.10791 -3.4246,-0.35153 -4.952153,-0.66352 v 1.57355 c 2.644163,0.72746 5.772073,1.33448 9.203563,1.54409 -1.8992,-2.86987 -3.98967,-5.27369 -5.94381,-7.20163 z m -15.245588,3.24528 c -0.01668,0.004 -0.03393,0.007 -0.05064,0.0103 h 0.05116 c -4.2e-5,-0.003 -4.76e-4,-0.007 -5.29e-4,-0.0103 z" />
    <path
       id="path1600-3-7-2-3-28-8-3"
       style="fill:#ffffff;fill-opacity:1;fill-rule:nonzero;stroke-width:0.278866"
       d="m 76.880839,145.29449 c -1.531791,0.006 -3.163129,0.10679 -4.880839,0.33228 3.53907,8.53507 8.929632,13.16361 11.156942,14.48025 2.00788,1.06504 5.548785,0.62987 8.015015,-0.62219 -1.82339,0.62363 -3.983004,0.73808 -5.308204,0.0351 -1.78184,-1.05333 -6.09482,-4.75623 -8.92607,-11.5843 7.32889,-0.96209 12.692124,0.92139 14.495244,1.93787 0.30186,0.18905 0.5872,0.44217 0.85214,0.7431 -0.58009,-1.1089 -1.32154,-2.03878 -2.16628,-2.5678 -1.8313,-1.03235 -6.600187,-2.78035 -13.237948,-2.75435 z m 14.291118,14.19035 c -1.39046,0.90588 -2.67848,2.61521 -2.72748,3.97805 0.016,1.55234 0.80377,5.74202 4.177,10.1415 3.37324,-4.39948 4.16101,-8.58916 4.17701,-10.1415 -0.0215,-0.59765 -0.28202,-1.26141 -0.6842,-1.89549 0.0769,0.22794 0.12223,0.45202 0.13023,0.66559 -0.0128,1.24186 -0.64281,4.59362 -3.3414,8.1132 -2.69859,-3.51958 -3.32911,-6.87134 -3.34191,-8.1132 0.0323,-0.89948 0.73969,-1.98777 1.61075,-2.74815 z m 17.947223,-14.19035 c -6.63777,-0.026 -11.406653,1.722 -13.237953,2.75435 -1.92629,1.20636 -3.31972,4.48991 -3.46852,7.25176 0.37163,-1.89093 1.35225,-3.818 2.62361,-4.6142 1.80313,-1.01645 7.166343,-2.89996 14.495243,-1.93786 -2.83125,6.82806 -7.14422,10.53048 -8.92607,11.58379 -0.31466,0.16689 -0.676103,0.28792 -1.069183,0.3669 1.250373,0.0521 2.426253,-0.12515 3.306773,-0.59221 2.2273,-1.31665 7.61788,-5.94517 11.15694,-14.48025 -1.71771,-0.22549 -3.34904,-0.32628 -4.88084,-0.33228 z M 92.412707,155.3006 c -0.0893,-1.65712 -0.92576,-3.62733 -2.08153,-4.35116 -1.35235,-0.76234 -5.374497,-2.1747 -10.871167,-1.45314 2.12344,5.12105 5.357775,7.89836 6.694165,8.68836 0.52831,0.28027 1.233628,0.38622 1.983862,0.35501 -0.23584,-0.0474 -0.452499,-0.12003 -0.641309,-0.22014 -1.0691,-0.63199 -3.656995,-2.85364 -5.355745,-6.95048 4.39734,-0.57726 7.615274,0.55338 8.697144,1.16324 0.76282,0.47772 1.3516,1.63375 1.57458,2.76831 z m 11.349183,-5.34748 c -3.863543,0.0243 -6.636613,1.0446 -7.714263,1.65209 -0.50684,0.31742 -0.95161,0.87565 -1.29966,1.54099 0.15896,-0.18055 0.33049,-0.3325 0.5116,-0.44596 1.08186,-0.60987 4.29928,-1.73998 8.696623,-1.16272 -1.69875,4.09684 -4.286143,6.31848 -5.355233,6.95048 -0.79512,0.42177 -2.09078,0.3535 -3.18481,-0.0207 1.47974,0.75123 3.60375,1.01211 4.808493,0.3731 1.33638,-0.79 4.57072,-3.56732 6.69415,-8.68836 -1.1165,-0.14657 -2.17208,-0.20515 -3.1569,-0.19895 z m -8.345743,8.51421 c 1.45176,1.2673 2.63023,3.08043 2.68407,4.57956 -0.0213,2.06978 -1.07152,7.6562 -5.56917,13.52217 -4.49765,-5.86597 -5.5479,-11.45239 -5.56917,-13.52217 0.0128,-0.35595 0.0889,-0.72958 0.217041,-1.10949 -0.67029,1.05682 -1.104719,2.16393 -1.140499,3.16001 0.0266,2.58723 1.339789,9.56987 6.961848,16.90233 5.62205,-7.33246 6.93525,-14.3151 6.96185,-16.90233 -0.0816,-2.2714 -2.22854,-5.12029 -4.54597,-6.63008 z" />
    <rect
       style="fill:#ffffff;fill-opacity:1;stroke:#ffffff;stroke-width:3.26587;stroke-linecap:butt;stroke-linejoin:round;stroke-miterlimit:4;stroke-dasharray:none;stroke-opacity:1"
       id="rect24544-5-1"
       width="27.844128"
       height="4.7341242"
       x="79.077934"
       y="138.63295" />
    <text
       xml:space="preserve"
       style="font-style:normal;font-weight:normal;font-size:7.05556px;line-height:1.25;font-family:sans-serif;letter-spacing:0px;fill:#4f2683;fill-opacity:1;stroke:none;stroke-width:0.264583"
       x="79.620445"
       y="143.24564"
       id="text8724-3-4"><tspan
         sodipodi:role="line"
         id="tspan8722-7-8"
         style="font-style:normal;font-variant:normal;font-weight:bold;font-stretch:normal;font-size:7.05556px;font-family:'Source Sans Pro';-inkscape-font-specification:'Source Sans Pro Bold';fill:#4f2683;fill-opacity:1;stroke-width:0.264583"
         x="79.620445"
         y="143.24564">CHASSIS</tspan></text>
    <path
       id="path1600-3-5-0-91-4"
       style="fill:#807f83;fill-opacity:1;fill-rule:nonzero;stroke-width:0.224896"
       d="m 154.99997,76.499997 c -1.50196,3.01188 -2.52373,5.95721 -3.21583,8.57002 l 1.36943,0.79065 c 0.48454,-1.42846 1.08681,-2.92874 1.8464,-4.45193 0.91401,1.83287 1.60155,3.63272 2.12545,5.31182 l 1.31671,-0.75964 c -0.68722,-2.82325 -1.76638,-6.10045 -3.44216,-9.46092 z m -9.5002,18.89135 c -1.99707,1.95197 -4.14694,4.40692 -6.09524,7.350973 3.47451,-0.21221 6.63698,-0.83185 9.30228,-1.57148 v -1.563213 c -1.55261,0.32128 -3.24871,0.569983 -5.05086,0.680063 1.05099,-1.588133 2.17503,-2.989013 3.28611,-4.218863 h -1.44229 z m 18.70739,0.91881 -1.36168,0.786 c 1.0349,1.16774 2.07648,2.4843 3.05408,3.961513 -1.76664,-0.10791 -3.4246,-0.35153 -4.95215,-0.66352 v 1.57355 c 2.64416,0.72746 5.77207,1.33448 9.20357,1.54409 -1.89921,-2.86987 -3.98968,-5.273693 -5.94382,-7.201633 z m -15.24559,3.24528 c -0.0167,0.004 -0.0339,0.007 -0.0506,0.0103 h 0.0512 c -4e-5,-0.003 -4.7e-4,-0.007 -5.3e-4,-0.0103 z" />
    <path
       id="path1600-3-7-2-3-28-7"
       style="fill:#ffffff;fill-opacity:1;fill-rule:nonzero;stroke-width:0.278866"
       d="m 138.88084,81.794487 c -1.53179,0.006 -3.16313,0.10679 -4.88084,0.33228 3.53907,8.53507 8.92963,13.16361 11.15694,14.48025 2.00788,1.06504 5.54879,0.62987 8.01502,-0.62219 -1.82339,0.62363 -3.98301,0.73808 -5.30821,0.0351 -1.78184,-1.05333 -6.09482,-4.75623 -8.92607,-11.5843 7.32889,-0.96209 12.69213,0.92139 14.49525,1.93787 0.30186,0.18905 0.5872,0.44217 0.85214,0.7431 -0.58009,-1.1089 -1.32154,-2.03878 -2.16628,-2.5678 -1.8313,-1.03235 -6.60019,-2.78035 -13.23795,-2.75435 z m 14.29112,14.19035 c -1.39046,0.90588 -2.67848,2.61521 -2.72748,3.97805 0.016,1.552343 0.80377,5.742023 4.177,10.141503 3.37324,-4.39948 4.16101,-8.58916 4.17701,-10.141503 -0.0215,-0.59765 -0.28202,-1.26141 -0.6842,-1.89549 0.0769,0.22794 0.12223,0.45202 0.13023,0.66559 -0.0128,1.24186 -0.64281,4.593623 -3.3414,8.113203 -2.69859,-3.51958 -3.32911,-6.871343 -3.34191,-8.113203 0.0323,-0.89948 0.73969,-1.98777 1.61075,-2.74815 z m 17.94722,-14.19035 c -6.63777,-0.026 -11.40665,1.722 -13.23795,2.75435 -1.92629,1.20636 -3.31972,4.48991 -3.46852,7.25176 0.37163,-1.89093 1.35225,-3.818 2.62361,-4.6142 1.80313,-1.01645 7.16634,-2.89996 14.49524,-1.93786 -2.83125,6.82806 -7.14422,10.53048 -8.92607,11.58379 -0.31466,0.16689 -0.6761,0.28792 -1.06918,0.3669 1.25037,0.0521 2.42625,-0.12515 3.30677,-0.59221 2.2273,-1.31665 7.61788,-5.94517 11.15694,-14.48025 -1.71771,-0.22549 -3.34904,-0.32628 -4.88084,-0.33228 z m -16.70647,10.00611 c -0.0893,-1.65712 -0.92576,-3.62733 -2.08153,-4.35116 -1.35235,-0.76234 -5.3745,-2.1747 -10.87117,-1.45314 2.12344,5.12105 5.35777,7.89836 6.69416,8.68836 0.52831,0.28027 1.23363,0.38622 1.98387,0.35501 -0.23584,-0.0474 -0.4525,-0.12003 -0.64131,-0.22014 -1.0691,-0.63199 -3.657,-2.85364 -5.35575,-6.95048 4.39734,-0.57726 7.61528,0.55338 8.69715,1.16324 0.76282,0.47772 1.3516,1.63375 1.57458,2.76831 z m 11.34918,-5.34748 c -3.86354,0.0243 -6.63661,1.0446 -7.71426,1.65209 -0.50684,0.31742 -0.95161,0.87565 -1.29966,1.54099 0.15896,-0.18055 0.33049,-0.3325 0.5116,-0.44596 1.08186,-0.60987 4.29928,-1.73998 8.69662,-1.16272 -1.69875,4.09684 -4.28614,6.31848 -5.35523,6.95048 -0.79512,0.42177 -2.09078,0.3535 -3.18481,-0.0207 1.47974,0.75123 3.60375,1.01211 4.80849,0.3731 1.33638,-0.79 4.57072,-3.56732 6.69416,-8.68836 -1.11651,-0.14657 -2.17209,-0.20515 -3.15691,-0.19895 z m -8.34574,8.51421 c 1.45176,1.2673 2.63023,3.08043 2.68407,4.57956 -0.0213,2.069783 -1.07152,7.656203 -5.56917,13.522173 -4.49765,-5.86597 -5.5479,-11.45239 -5.56917,-13.522173 0.0128,-0.35595 0.0889,-0.72958 0.21704,-1.10949 -0.67029,1.05682 -1.10472,2.163933 -1.1405,3.160013 0.0266,2.58723 1.33979,9.56987 6.96185,16.90233 5.62205,-7.33246 6.93525,-14.3151 6.96185,-16.90233 -0.0816,-2.271403 -2.22854,-5.120293 -4.54597,-6.630083 z" />
    <rect
       style="fill:#ffffff;fill-opacity:1;stroke:#ffffff;stroke-width:3.57598;stroke-linecap:butt;stroke-linejoin:round;stroke-miterlimit:4;stroke-dasharray:none;stroke-opacity:1"
       id="rect24544-8"
       width="35.723015"
       height="4.4240165"
       x="137.13899"
       y="75.287994" />
    <text
       xml:space="preserve"
       style="font-style:normal;font-weight:normal;font-size:7.05556px;line-height:1.25;font-family:sans-serif;letter-spacing:0px;fill:#4f2683;fill-opacity:1;stroke:none;stroke-width:0.264583"
       x="137.89333"
       y="79.745636"
       id="text8724-8"><tspan
         sodipodi:role="line"
         id="tspan8722-24"
         style="font-style:normal;font-variant:normal;font-weight:bold;font-stretch:normal;font-size:7.05556px;font-family:'Source Sans Pro';-inkscape-font-specification:'Source Sans Pro Bold';fill:#4f2683;fill-opacity:1;stroke-width:0.264583"
         x="137.89333"
         y="79.745636">AEROBODY</tspan></text>
    <path
       id="path1600-3-5-0-91-8"
       style="fill:#807f83;fill-opacity:1;fill-rule:nonzero;stroke-width:0.224896"
       d="m 92.999967,11.499999 c -1.50196,3.01188 -2.52373,5.95721 -3.21583,8.57002 l 1.36943,0.79065 c 0.48454,-1.42846 1.08681,-2.92874 1.8464,-4.45193 0.91401,1.83287 1.60155,3.63272 2.12545,5.31182 l 1.31671,-0.75964 c -0.68722,-2.82325 -1.76638,-6.10045 -3.44216,-9.46092 z m -9.500199,18.89135 c -1.997068,1.95197 -4.146941,4.40692 -6.095235,7.35097 3.474506,-0.21221 6.636979,-0.83185 9.302274,-1.57148 v -1.56321 c -1.552602,0.32128 -3.248703,0.56998 -5.050854,0.68006 1.050986,-1.58813 2.175028,-2.98901 3.286104,-4.21886 h -1.442289 z m 18.707392,0.91881 -1.36168,0.786 c 1.0349,1.16774 2.07648,2.4843 3.05408,3.96151 -1.76664,-0.10791 -3.4246,-0.35153 -4.952153,-0.66352 v 1.57355 c 2.644163,0.72746 5.772073,1.33448 9.203573,1.54409 -1.89921,-2.86987 -3.98968,-5.27369 -5.94382,-7.20163 z m -15.245588,3.24528 c -0.01668,0.004 -0.03393,0.007 -0.05064,0.0103 h 0.05116 c -4.2e-5,-0.003 -4.76e-4,-0.007 -5.29e-4,-0.0103 z" />
    <path
       id="path1600-3-7-2-3-28-9"
       style="fill:#ffffff;fill-opacity:1;fill-rule:nonzero;stroke-width:0.278866"
       d="m 76.880839,16.794489 c -1.531791,0.006 -3.163129,0.10679 -4.880839,0.33228 3.53907,8.53507 8.929632,13.16361 11.156942,14.48025 2.00788,1.06504 5.548785,0.62987 8.015015,-0.62219 -1.82339,0.62363 -3.983004,0.73808 -5.308204,0.0351 -1.78184,-1.05333 -6.09482,-4.75623 -8.92607,-11.5843 7.32889,-0.96209 12.692124,0.92139 14.495244,1.93787 0.30186,0.18905 0.5872,0.44217 0.85214,0.7431 -0.58009,-1.1089 -1.32154,-2.03878 -2.16628,-2.5678 -1.8313,-1.03235 -6.600187,-2.78035 -13.237948,-2.75435 z m 14.291118,14.19035 c -1.39046,0.90588 -2.67848,2.61521 -2.72748,3.97805 0.016,1.55234 0.80377,5.74202 4.177,10.1415 3.37324,-4.39948 4.16101,-8.58916 4.17701,-10.1415 -0.0215,-0.59765 -0.28202,-1.26141 -0.6842,-1.89549 0.0769,0.22794 0.12223,0.45202 0.13023,0.66559 -0.0128,1.24186 -0.64281,4.59362 -3.3414,8.1132 -2.69859,-3.51958 -3.32911,-6.87134 -3.34191,-8.1132 0.0323,-0.89948 0.73969,-1.98777 1.61075,-2.74815 z m 17.947223,-14.19035 c -6.63777,-0.026 -11.406653,1.722 -13.237953,2.75435 -1.92629,1.20636 -3.31972,4.48991 -3.46852,7.25176 0.37163,-1.89093 1.35225,-3.818 2.62361,-4.6142 1.80313,-1.01645 7.166343,-2.89996 14.495243,-1.93786 -2.83125,6.82806 -7.14422,10.53048 -8.92607,11.58379 -0.31466,0.16689 -0.676103,0.28792 -1.069183,0.3669 1.250373,0.0521 2.426253,-0.12515 3.306773,-0.59221 2.2273,-1.31665 7.61788,-5.94517 11.15694,-14.48025 -1.71771,-0.22549 -3.34904,-0.32628 -4.88084,-0.33228 z m -16.706473,10.00611 c -0.0893,-1.65712 -0.92576,-3.62733 -2.08153,-4.35116 -1.35235,-0.76234 -5.374497,-2.1747 -10.871167,-1.45314 2.12344,5.12105 5.357775,7.89836 6.694165,8.68836 0.52831,0.28027 1.233628,0.38622 1.983862,0.35501 -0.23584,-0.0474 -0.452499,-0.12003 -0.641309,-0.22014 -1.0691,-0.63199 -3.656995,-2.85364 -5.355745,-6.95048 4.39734,-0.57726 7.615274,0.55338 8.697144,1.16324 0.76282,0.47772 1.3516,1.63375 1.57458,2.76831 z m 11.349183,-5.34748 c -3.863543,0.0243 -6.636613,1.0446 -7.714263,1.65209 -0.50684,0.31742 -0.95161,0.87565 -1.29966,1.54099 0.15896,-0.18055 0.33049,-0.3325 0.5116,-0.44596 1.08186,-0.60987 4.29928,-1.73998 8.696623,-1.16272 -1.69875,4.09684 -4.286143,6.31848 -5.355233,6.95048 -0.79512,0.42177 -2.09078,0.3535 -3.18481,-0.0207 1.47974,0.75123 3.60375,1.01211 4.808493,0.3731 1.33638,-0.79 4.57072,-3.56732 6.69416,-8.68836 -1.11651,-0.14657 -2.17209,-0.20515 -3.15691,-0.19895 z m -8.345743,8.51421 c 1.45176,1.2673 2.63023,3.08043 2.68407,4.57956 -0.0213,2.06978 -1.07152,7.6562 -5.56917,13.52217 -4.49765,-5.86597 -5.5479,-11.45239 -5.56917,-13.52217 0.0128,-0.35595 0.0889,-0.72958 0.217041,-1.10949 -0.67029,1.05682 -1.104719,2.16393 -1.140499,3.16001 0.0266,2.58723 1.339789,9.56987 6.961848,16.90233 5.62205,-7.33246 6.93525,-14.3151 6.96185,-16.90233 -0.0816,-2.2714 -2.22854,-5.12029 -4.54597,-6.63008 z" />
    <rect
       style="fill:#ffffff;fill-opacity:1;stroke:#ffffff;stroke-width:3.30104;stroke-linecap:butt;stroke-linejoin:round;stroke-miterlimit:4;stroke-dasharray:none;stroke-opacity:1"
       id="rect24544-6"
       width="28.659958"
       height="4.6989546"
       x="78.670517"
       y="10.15052" />
    <text
       xml:space="preserve"
       style="font-style:normal;font-weight:normal;font-size:7.05556px;line-height:1.25;font-family:sans-serif;letter-spacing:0px;fill:#4f2683;fill-opacity:1;stroke:none;stroke-width:0.264583"
       x="78.976723"
       y="14.745635"
       id="text8724-4"><tspan
         sodipodi:role="line"
         id="tspan8722-9"
         style="font-style:normal;font-variant:normal;font-weight:bold;font-stretch:normal;font-size:7.05556px;font-family:'Source Sans Pro';-inkscape-font-specification:'Source Sans Pro Bold';fill:#4f2683;fill-opacity:1;stroke-width:0.264583"
         x="78.976723"
         y="14.745635">BATTERY</tspan></text>
    <path
       id="path1600-3-5-0-91-7"
       style="fill:#807f83;fill-opacity:1;fill-rule:nonzero;stroke-width:0.224896"
       d="m 154.99997,11.499999 c -1.50196,3.011881 -2.52373,5.957211 -3.21583,8.570021 l 1.36943,0.79065 c 0.48454,-1.42846 1.08681,-2.92874 1.8464,-4.45193 0.91401,1.83287 1.60155,3.63272 2.12545,5.31182 l 1.31671,-0.75964 c -0.68722,-2.82325 -1.76638,-6.10045 -3.44216,-9.460921 z m -9.5002,18.891351 c -1.99707,1.95197 -4.14694,4.40692 -6.09524,7.35097 3.47451,-0.21221 6.63698,-0.83185 9.30228,-1.57148 v -1.56321 c -1.5526,0.32128 -3.24871,0.56998 -5.05086,0.68006 1.05099,-1.58813 2.17503,-2.98901 3.28611,-4.21886 h -1.44229 z m 18.70739,0.91881 -1.36168,0.786 c 1.0349,1.16774 2.07648,2.4843 3.05408,3.96151 -1.76664,-0.10791 -3.4246,-0.35153 -4.95215,-0.66352 v 1.57355 c 2.64416,0.72746 5.77207,1.33448 9.20357,1.54409 -1.89921,-2.86987 -3.98968,-5.27369 -5.94382,-7.20163 z m -15.24559,3.24528 c -0.0167,0.004 -0.0339,0.007 -0.0506,0.0103 h 0.0512 c -4e-5,-0.003 -4.7e-4,-0.007 -5.3e-4,-0.0103 z" />
    <path
       id="path1600-3-7-2-3-28-5"
       style="fill:#ffffff;fill-opacity:1;fill-rule:nonzero;stroke-width:0.278866"
       d="m 138.88084,16.79449 c -1.53179,0.006 -3.16313,0.10679 -4.88084,0.33228 3.53907,8.53507 8.92963,13.16361 11.15694,14.48025 2.00788,1.06504 5.54879,0.62987 8.01502,-0.62219 -1.82339,0.62363 -3.98301,0.73808 -5.30821,0.0351 -1.78184,-1.05333 -6.09482,-4.75623 -8.92607,-11.5843 7.32889,-0.96209 12.69213,0.92139 14.49525,1.93787 0.30186,0.18905 0.5872,0.44217 0.85214,0.7431 -0.58009,-1.1089 -1.32154,-2.03878 -2.16628,-2.5678 -1.8313,-1.03235 -6.60019,-2.78035 -13.23795,-2.75435 z m 14.29112,14.19035 c -1.39046,0.90588 -2.67848,2.61521 -2.72748,3.97805 0.016,1.55234 0.80377,5.74202 4.177,10.1415 3.37324,-4.39948 4.16101,-8.58916 4.17701,-10.1415 -0.0215,-0.59765 -0.28202,-1.26141 -0.6842,-1.89549 0.0769,0.22794 0.12223,0.45202 0.13023,0.66559 -0.0128,1.24186 -0.64281,4.59362 -3.3414,8.1132 -2.69859,-3.51958 -3.32911,-6.87134 -3.34191,-8.1132 0.0323,-0.89948 0.73969,-1.98777 1.61075,-2.74815 z m 17.94722,-14.19035 c -6.63777,-0.026 -11.40665,1.722 -13.23795,2.75435 -1.92629,1.20636 -3.31972,4.48991 -3.46852,7.25176 0.37163,-1.89093 1.35225,-3.818 2.62361,-4.6142 1.80313,-1.01645 7.16634,-2.89996 14.49524,-1.93786 -2.83125,6.82806 -7.14422,10.53048 -8.92607,11.58379 -0.31466,0.16689 -0.6761,0.28792 -1.06918,0.3669 1.25037,0.0521 2.42625,-0.12515 3.30677,-0.59221 2.2273,-1.31665 7.61788,-5.94517 11.15694,-14.48025 -1.71771,-0.22549 -3.34904,-0.32628 -4.88084,-0.33228 z M 154.41271,26.8006 c -0.0893,-1.65712 -0.92576,-3.62733 -2.08153,-4.35116 -1.35235,-0.76234 -5.3745,-2.1747 -10.87117,-1.45314 2.12344,5.12105 5.35778,7.89836 6.69417,8.68836 0.52831,0.28027 1.23362,0.38622 1.98386,0.35501 -0.23584,-0.0474 -0.4525,-0.12003 -0.64131,-0.22014 -1.0691,-0.63199 -3.657,-2.85364 -5.35575,-6.95048 4.39734,-0.57726 7.61528,0.55338 8.69715,1.16324 0.76282,0.47772 1.3516,1.63375 1.57458,2.76831 z m 11.34918,-5.34748 c -3.86354,0.0243 -6.63661,1.0446 -7.71426,1.65209 -0.50684,0.31742 -0.95161,0.87565 -1.29966,1.54099 0.15896,-0.18055 0.33049,-0.3325 0.5116,-0.44596 1.08186,-0.60987 4.29928,-1.73998 8.69662,-1.16272 -1.69875,4.09684 -4.28614,6.31848 -5.35523,6.95048 -0.79512,0.42177 -2.09078,0.3535 -3.18481,-0.0207 1.47974,0.75123 3.60375,1.01211 4.80849,0.3731 1.33638,-0.79 4.57072,-3.56732 6.69416,-8.68836 -1.11651,-0.14657 -2.17209,-0.20515 -3.15691,-0.19895 z m -8.34574,8.51421 c 1.45176,1.2673 2.63023,3.08043 2.68407,4.57956 -0.0213,2.06978 -1.07152,7.6562 -5.56917,13.52217 -4.49765,-5.86597 -5.5479,-11.45239 -5.56917,-13.52217 0.0128,-0.35595 0.0889,-0.72958 0.21704,-1.10949 -0.67029,1.05682 -1.10472,2.16393 -1.1405,3.16001 0.0266,2.58723 1.33979,9.56987 6.96185,16.90233 5.62205,-7.33246 6.93525,-14.3151 6.96185,-16.90233 -0.0816,-2.2714 -2.22854,-5.12029 -4.54597,-6.63008 z" />
    <rect
       style="fill:#ffffff;fill-opacity:1;stroke:#ffffff;stroke-width:2.39191;stroke-linecap:butt;stroke-linejoin:round;stroke-miterlimit:4;stroke-dasharray:none;stroke-opacity:1"
       id="rect24544-3"
       width="12.608091"
       height="5.6080871"
       x="148.69395"
       y="9.6959553" />
    <text
       xml:space="preserve"
       style="font-style:normal;font-weight:normal;font-size:7.05556px;line-height:1.25;font-family:sans-serif;letter-spacing:0px;fill:#4f2683;fill-opacity:1;stroke:none;stroke-width:0.264583"
       x="149.42473"
       y="14.745636"
       id="text8724-9"><tspan
         sodipodi:role="line"
         id="tspan8722-0"
         style="font-style:normal;font-variant:normal;font-weight:bold;font-stretch:normal;font-size:7.05556px;font-family:'Source Sans Pro';-inkscape-font-specification:'Source Sans Pro Bold';fill:#4f2683;fill-opacity:1;stroke-width:0.264583"
         x="149.42473"
         y="14.745636">LIM</tspan></text>
    <path
       id="path1600-3-5-0-91-0"
       style="fill:#807f83;fill-opacity:1;fill-rule:nonzero;stroke-width:0.224896"
       d="m 30.999967,76.499994 c -1.50196,3.01188 -2.52373,5.95721 -3.21583,8.57002 l 1.36943,0.79065 c 0.48454,-1.42846 1.08681,-2.92874 1.8464,-4.45193 0.91401,1.83287 1.60155,3.63272 2.12545,5.31182 l 1.31671,-0.75964 c -0.68722,-2.82325 -1.76638,-6.10045 -3.44216,-9.46092 z m -9.500199,18.89135 c -1.997068,1.95197 -4.146941,4.40692 -6.095235,7.350976 3.474506,-0.21221 6.636979,-0.83185 9.302274,-1.57149 v -1.563206 c -1.552602,0.32128 -3.248703,0.569976 -5.050854,0.680056 1.050986,-1.588126 2.175028,-2.989006 3.286104,-4.218856 h -1.442289 z m 18.707389,0.91881 -1.36168,0.786 c 1.0349,1.16774 2.07648,2.4843 3.05408,3.961506 -1.76664,-0.10791 -3.4246,-0.35153 -4.95215,-0.66352 v 1.57356 c 2.64416,0.72746 5.77207,1.33448 9.20357,1.54409 -1.89921,-2.86988 -3.98968,-5.273696 -5.94382,-7.201636 z m -15.245585,3.24528 c -0.01668,0.004 -0.03393,0.007 -0.05064,0.0103 h 0.05116 c -4.2e-5,-0.003 -4.76e-4,-0.007 -5.29e-4,-0.0103 z" />
    <path
       id="path1600-3-7-2-3-28-4"
       style="fill:#ffffff;fill-opacity:1;fill-rule:nonzero;stroke-width:0.278866"
       d="m 14.880839,81.794484 c -1.531791,0.006 -3.163129,0.10679 -4.880839,0.33228 3.53907,8.53507 8.929632,13.16361 11.156942,14.48025 2.00788,1.06504 5.548785,0.62987 8.015015,-0.62219 -1.82339,0.62363 -3.983004,0.73808 -5.308204,0.0351 -1.78184,-1.05333 -6.09482,-4.75623 -8.92607,-11.5843 7.32889,-0.96209 12.692124,0.92139 14.495244,1.93787 0.30186,0.18905 0.5872,0.44217 0.85214,0.7431 -0.58009,-1.1089 -1.32154,-2.03878 -2.16628,-2.5678 -1.8313,-1.03235 -6.600187,-2.78035 -13.237948,-2.75435 z m 14.291118,14.19035 c -1.39046,0.90588 -2.67848,2.61521 -2.72748,3.97805 0.016,1.552346 0.80377,5.742016 4.177,10.141496 3.37324,-4.39948 4.16101,-8.58915 4.17701,-10.141496 -0.0215,-0.59765 -0.28202,-1.26141 -0.6842,-1.89549 0.0769,0.22794 0.12223,0.45202 0.13023,0.66559 -0.0128,1.24186 -0.64281,4.593626 -3.3414,8.113196 -2.69859,-3.51957 -3.32911,-6.871336 -3.34191,-8.113196 0.0323,-0.89948 0.73969,-1.98777 1.61075,-2.74815 z m 17.94722,-14.19035 c -6.63777,-0.026 -11.40665,1.722 -13.23795,2.75435 -1.92629,1.20636 -3.31972,4.48991 -3.46852,7.25176 0.37163,-1.89093 1.35225,-3.818 2.62361,-4.6142 1.80313,-1.01645 7.16634,-2.89996 14.49524,-1.93786 -2.83125,6.82806 -7.14422,10.53048 -8.92607,11.58379 -0.31466,0.16689 -0.6761,0.28792 -1.06918,0.3669 1.25037,0.0521 2.42625,-0.12515 3.30677,-0.59221 2.2273,-1.31665 7.61788,-5.94517 11.15694,-14.48025 -1.71771,-0.22549 -3.34904,-0.32628 -4.88084,-0.33228 z m -16.70647,10.00611 c -0.0893,-1.65712 -0.92576,-3.62733 -2.08153,-4.35116 -1.35235,-0.76234 -5.374497,-2.1747 -10.871167,-1.45314 2.12344,5.12105 5.357775,7.89836 6.694165,8.68836 0.52831,0.28027 1.233628,0.38622 1.983862,0.35501 -0.23584,-0.0474 -0.452499,-0.12003 -0.641309,-0.22014 -1.0691,-0.63199 -3.656995,-2.85364 -5.355745,-6.95048 4.39734,-0.57726 7.615274,0.55338 8.697144,1.16324 0.76282,0.47772 1.3516,1.63375 1.57458,2.76831 z m 11.34918,-5.34748 c -3.86354,0.0243 -6.63661,1.0446 -7.71426,1.65209 -0.50684,0.31742 -0.95161,0.87565 -1.29966,1.54099 0.15896,-0.18055 0.33049,-0.3325 0.5116,-0.44596 1.08186,-0.60987 4.29928,-1.73998 8.69662,-1.16272 -1.69875,4.09684 -4.28614,6.31848 -5.35523,6.95048 -0.79512,0.42177 -2.09078,0.3535 -3.18481,-0.0207 1.47974,0.75123 3.60375,1.01211 4.80849,0.3731 1.33638,-0.79 4.57072,-3.56732 6.69416,-8.68836 -1.11651,-0.14657 -2.17209,-0.20515 -3.15691,-0.19895 z m -8.34574,8.51421 c 1.45176,1.2673 2.63023,3.08043 2.68407,4.57956 -0.0213,2.069786 -1.07152,7.656196 -5.56917,13.522166 -4.49765,-5.86597 -5.5479,-11.45238 -5.56917,-13.522166 0.0128,-0.35595 0.0889,-0.72958 0.217041,-1.10949 -0.67029,1.05682 -1.104719,2.163926 -1.140499,3.160016 0.0266,2.58723 1.339789,9.56986 6.961848,16.90232 5.62205,-7.33246 6.93525,-14.31509 6.96185,-16.90232 -0.0816,-2.271406 -2.22854,-5.120296 -4.54597,-6.630086 z" />
    <rect
       style="fill:#ffffff;fill-opacity:1;stroke:#ffffff;stroke-width:3.4306;stroke-linecap:butt;stroke-linejoin:round;stroke-miterlimit:4;stroke-dasharray:none;stroke-opacity:1"
       id="rect24544-67"
       width="31.831402"
       height="4.5693974"
       x="15.0843"
       y="75.215302" />
    <text
       xml:space="preserve"
       style="font-style:normal;font-weight:normal;font-size:7.05556px;line-height:1.25;font-family:sans-serif;letter-spacing:0px;fill:#4f2683;fill-opacity:1;stroke:none;stroke-width:0.264583"
       x="15.325722"
       y="79.745628"
       id="text8724-7"><tspan
         sodipodi:role="line"
         id="tspan8722-2"
         style="font-style:normal;font-variant:normal;font-weight:bold;font-stretch:normal;font-size:7.05556px;font-family:'Source Sans Pro';-inkscape-font-specification:'Source Sans Pro Bold';fill:#4f2683;fill-opacity:1;stroke-width:0.264583"
         x="15.325722"
         y="79.745628">INVERTER</tspan></text>
    <path
       id="path1600-3-5-0-91-3"
       style="fill:#807f83;fill-opacity:1;fill-rule:nonzero;stroke-width:0.224896"
       d="m 92.999967,76.499998 c -1.50196,3.01188 -2.52373,5.95721 -3.21583,8.57002 l 1.36943,0.79065 c 0.48454,-1.42846 1.08681,-2.92874 1.8464,-4.45193 0.91401,1.83287 1.60155,3.63272 2.12545,5.31182 l 1.31671,-0.75964 c -0.68722,-2.82325 -1.76638,-6.10045 -3.44216,-9.46092 z m -9.500199,18.89135 c -1.997068,1.95197 -4.146941,4.40692 -6.095235,7.350972 3.474506,-0.21221 6.636979,-0.83185 9.302274,-1.57148 v -1.563212 c -1.552602,0.32128 -3.248703,0.569982 -5.050854,0.680062 1.050986,-1.588132 2.175028,-2.989012 3.286104,-4.218862 h -1.442289 z m 18.707392,0.91881 -1.36168,0.786 c 1.0349,1.16774 2.07648,2.4843 3.05407,3.961512 -1.76663,-0.10791 -3.42459,-0.35153 -4.952143,-0.66352 v 1.57355 c 2.644163,0.72746 5.772063,1.33448 9.203563,1.54409 -1.8992,-2.86987 -3.98968,-5.273692 -5.94381,-7.201632 z m -15.245588,3.24528 c -0.01668,0.004 -0.03393,0.007 -0.05064,0.0103 h 0.05116 c -4.2e-5,-0.003 -4.76e-4,-0.007 -5.29e-4,-0.0103 z" />
    <path
       id="path1600-3-7-2-3-28-57"
       style="fill:#ffffff;fill-opacity:1;fill-rule:nonzero;stroke-width:0.278866"
       d="m 76.880839,81.794488 c -1.531791,0.006 -3.163129,0.10679 -4.880839,0.33228 3.53907,8.53507 8.929632,13.16361 11.156942,14.48025 2.00788,1.06504 5.548785,0.62987 8.015015,-0.62219 -1.82339,0.62363 -3.983004,0.73808 -5.308204,0.0351 -1.78184,-1.05333 -6.09482,-4.75623 -8.92607,-11.5843 7.32889,-0.96209 12.692124,0.92139 14.495244,1.93787 0.30186,0.18905 0.5872,0.44217 0.85214,0.7431 -0.58009,-1.1089 -1.32154,-2.03878 -2.16628,-2.5678 -1.8313,-1.03235 -6.600187,-2.78035 -13.237948,-2.75435 z m 14.291118,14.19035 c -1.39046,0.90588 -2.67848,2.61521 -2.72748,3.97805 0.016,1.552342 0.80377,5.742022 4.177,10.141502 3.37324,-4.39948 4.16101,-8.58916 4.17701,-10.141502 -0.0215,-0.59765 -0.28202,-1.26141 -0.6842,-1.89549 0.0769,0.22794 0.12223,0.45202 0.13023,0.66559 -0.0128,1.24186 -0.64281,4.593622 -3.3414,8.113202 -2.69859,-3.51958 -3.32911,-6.871342 -3.34191,-8.113202 0.0323,-0.89948 0.73969,-1.98777 1.61075,-2.74815 z m 17.947223,-14.19035 c -6.63777,-0.026 -11.406653,1.722 -13.237953,2.75435 -1.92629,1.20636 -3.31972,4.48991 -3.46852,7.25176 0.37163,-1.89093 1.35225,-3.818 2.62361,-4.6142 1.80313,-1.01645 7.166343,-2.89996 14.495243,-1.93786 -2.83125,6.82806 -7.14422,10.53048 -8.92607,11.58379 -0.31466,0.16689 -0.676103,0.28792 -1.069183,0.3669 1.250373,0.0521 2.426253,-0.12515 3.306773,-0.59221 2.2273,-1.31665 7.61788,-5.94517 11.15694,-14.48025 -1.71771,-0.22549 -3.34904,-0.32628 -4.88084,-0.33228 z m -16.706473,10.00611 c -0.0893,-1.65712 -0.92576,-3.62733 -2.08153,-4.35116 -1.35235,-0.76234 -5.374497,-2.1747 -10.871167,-1.45314 2.12344,5.12105 5.357775,7.89836 6.694165,8.68836 0.52831,0.28027 1.233628,0.38622 1.983862,0.35501 -0.23584,-0.0474 -0.452499,-0.12003 -0.641309,-0.22014 -1.0691,-0.63199 -3.656995,-2.85364 -5.355745,-6.95048 4.39734,-0.57726 7.615274,0.55338 8.697144,1.16324 0.76282,0.47772 1.3516,1.63375 1.57458,2.76831 z m 11.349183,-5.34748 c -3.863543,0.0243 -6.636613,1.0446 -7.714263,1.65209 -0.50684,0.31742 -0.95161,0.87565 -1.29966,1.54099 0.15896,-0.18055 0.33049,-0.3325 0.5116,-0.44596 1.08186,-0.60987 4.29928,-1.73998 8.696623,-1.16272 -1.69875,4.09684 -4.286143,6.31848 -5.355233,6.95048 -0.79512,0.42177 -2.09078,0.3535 -3.18481,-0.0207 1.47974,0.75123 3.60375,1.01211 4.808493,0.3731 1.33638,-0.79 4.57072,-3.56732 6.69415,-8.68836 -1.1165,-0.14657 -2.17209,-0.20515 -3.1569,-0.19895 z m -8.345743,8.51421 c 1.45176,1.2673 2.63023,3.08043 2.68407,4.57956 -0.0213,2.069782 -1.07152,7.656202 -5.56917,13.522172 -4.49765,-5.86597 -5.5479,-11.45239 -5.56917,-13.522172 0.0128,-0.35595 0.0889,-0.72958 0.217041,-1.10949 -0.67029,1.05682 -1.104719,2.163932 -1.140499,3.160012 0.0266,2.58723 1.339789,9.56987 6.961848,16.90233 5.62205,-7.33246 6.93525,-14.3151 6.96185,-16.90233 -0.0816,-2.271402 -2.22854,-5.120292 -4.54597,-6.630082 z" />
    <rect
       style="fill:#ffffff;fill-opacity:1;stroke:#ffffff;stroke-width:3.74914;stroke-linecap:butt;stroke-linejoin:round;stroke-miterlimit:4;stroke-dasharray:none;stroke-opacity:1"
       id="rect24544-38"
       width="40.865864"
       height="4.2508593"
       x="72.568573"
       y="75.374573" />
    <text
       xml:space="preserve"
       style="font-style:normal;font-weight:normal;font-size:7.05556px;line-height:1.25;font-family:sans-serif;letter-spacing:0px;fill:#4f2683;fill-opacity:1;stroke:none;stroke-width:0.264583"
       x="72.869446"
       y="79.745895"
       id="text8724-44"><tspan
         sodipodi:role="line"
         id="tspan8722-05"
         style="font-style:normal;font-variant:normal;font-weight:bold;font-stretch:normal;font-size:7.05556px;font-family:'Source Sans Pro';-inkscape-font-specification:'Source Sans Pro Bold';fill:#4f2683;fill-opacity:1;stroke-width:0.264583"
         x="72.869446"
         y="79.745895">OPERATIONS</tspan></text>
    <path
       id="path1600-3-5-0-91-3-3"
       style="fill:#807f83;fill-opacity:1;fill-rule:nonzero;stroke-width:0.224896"
       d="m 154.99996,140 c -1.50196,3.01188 -2.52373,5.95721 -3.21583,8.57002 l 1.36943,0.79065 c 0.48454,-1.42846 1.08681,-2.92874 1.8464,-4.45193 0.91401,1.83287 1.60155,3.63272 2.12545,5.31182 l 1.31671,-0.75964 C 157.7549,146.63767 156.67574,143.36047 154.99996,140 Z m -9.50019,18.89135 c -1.99707,1.95197 -4.14695,4.40692 -6.09524,7.35097 3.47451,-0.21221 6.63698,-0.83185 9.30227,-1.57148 v -1.56321 c -1.5526,0.32128 -3.2487,0.56998 -5.05085,0.68006 1.05099,-1.58813 2.17503,-2.98901 3.2861,-4.21886 h -1.44229 z m 18.70739,0.91881 -1.36168,0.786 c 1.0349,1.16774 2.07648,2.4843 3.05407,3.96151 -1.76663,-0.10791 -3.42459,-0.35153 -4.95215,-0.66352 v 1.57355 c 2.64417,0.72746 5.77207,1.33448 9.20357,1.54409 -1.8992,-2.86987 -3.98968,-5.27369 -5.94381,-7.20163 z m -15.24559,3.24528 c -0.0167,0.004 -0.0339,0.007 -0.0506,0.0103 h 0.0512 c -4e-5,-0.003 -4.8e-4,-0.007 -5.3e-4,-0.0103 z" />
    <path
       id="path1600-3-7-2-3-28-57-5"
       style="fill:#ffffff;fill-opacity:1;fill-rule:nonzero;stroke-width:0.278866"
       d="m 138.88084,145.29449 c -1.5318,0.006 -3.16313,0.10679 -4.88084,0.33228 3.53907,8.53507 8.92963,13.16361 11.15694,14.48025 2.00788,1.06504 5.54878,0.62987 8.01501,-0.62219 -1.82339,0.62363 -3.983,0.73808 -5.3082,0.0351 -1.78184,-1.05333 -6.09482,-4.75623 -8.92607,-11.5843 7.32889,-0.96209 12.69212,0.92139 14.49524,1.93787 0.30186,0.18905 0.5872,0.44217 0.85214,0.7431 -0.58009,-1.1089 -1.32154,-2.03878 -2.16628,-2.5678 -1.8313,-1.03235 -6.60018,-2.78035 -13.23794,-2.75435 z m 14.29111,14.19035 c -1.39046,0.90588 -2.67848,2.61521 -2.72748,3.97805 0.016,1.55234 0.80377,5.74202 4.177,10.1415 3.37324,-4.39948 4.16101,-8.58916 4.17701,-10.1415 -0.0215,-0.59765 -0.28202,-1.26141 -0.6842,-1.89549 0.0769,0.22794 0.12223,0.45202 0.13023,0.66559 -0.0128,1.24186 -0.64281,4.59362 -3.3414,8.1132 -2.69859,-3.51958 -3.32911,-6.87134 -3.34191,-8.1132 0.0323,-0.89948 0.73969,-1.98777 1.61075,-2.74815 z m 17.94723,-14.19035 c -6.63777,-0.026 -11.40666,1.722 -13.23796,2.75435 -1.92629,1.20636 -3.31972,4.48991 -3.46852,7.25176 0.37163,-1.89093 1.35225,-3.818 2.62361,-4.6142 1.80313,-1.01645 7.16635,-2.89996 14.49525,-1.93786 -2.83125,6.82806 -7.14422,10.53048 -8.92607,11.58379 -0.31466,0.16689 -0.67611,0.28792 -1.06919,0.3669 1.25038,0.0521 2.42626,-0.12515 3.30678,-0.59221 2.2273,-1.31665 7.61788,-5.94517 11.15694,-14.48025 -1.71771,-0.22549 -3.34904,-0.32628 -4.88084,-0.33228 z M 154.4127,155.3006 c -0.0893,-1.65712 -0.92576,-3.62733 -2.08153,-4.35116 -1.35235,-0.76234 -5.37449,-2.1747 -10.87116,-1.45314 2.12344,5.12105 5.35777,7.89836 6.69416,8.68836 0.52831,0.28027 1.23363,0.38622 1.98386,0.35501 -0.23584,-0.0474 -0.4525,-0.12003 -0.64131,-0.22014 -1.0691,-0.63199 -3.65699,-2.85364 -5.35574,-6.95048 4.39734,-0.57726 7.61527,0.55338 8.69714,1.16324 0.76282,0.47772 1.3516,1.63375 1.57458,2.76831 z m 11.34919,-5.34748 c -3.86355,0.0243 -6.63662,1.0446 -7.71427,1.65209 -0.50684,0.31742 -0.95161,0.87565 -1.29966,1.54099 0.15896,-0.18055 0.33049,-0.3325 0.5116,-0.44596 1.08186,-0.60987 4.29928,-1.73998 8.69663,-1.16272 -1.69875,4.09684 -4.28615,6.31848 -5.35524,6.95048 -0.79512,0.42177 -2.09078,0.3535 -3.18481,-0.0207 1.47974,0.75123 3.60375,1.01211 4.8085,0.3731 1.33638,-0.79 4.57072,-3.56732 6.69415,-8.68836 -1.1165,-0.14657 -2.17209,-0.20515 -3.1569,-0.19895 z m -8.34575,8.51421 c 1.45176,1.2673 2.63023,3.08043 2.68407,4.57956 -0.0213,2.06978 -1.07152,7.6562 -5.56917,13.52217 -4.49765,-5.86597 -5.5479,-11.45239 -5.56917,-13.52217 0.0128,-0.35595 0.0889,-0.72958 0.21704,-1.10949 -0.67029,1.05682 -1.10471,2.16393 -1.14049,3.16001 0.0266,2.58723 1.33978,9.56987 6.96184,16.90233 5.62205,-7.33246 6.93525,-14.3151 6.96185,-16.90233 -0.0816,-2.2714 -2.22854,-5.12029 -4.54597,-6.63008 z" />
    <rect
       style="fill:#ffffff;fill-opacity:1;stroke:#ffffff;stroke-width:3.32949;stroke-linecap:butt;stroke-linejoin:round;stroke-miterlimit:4;stroke-dasharray:none;stroke-opacity:1"
       id="rect24544-38-5"
       width="29.333513"
       height="4.6705127"
       x="140.33374"
       y="138.66475" />
    <text
       xml:space="preserve"
       style="font-style:normal;font-weight:normal;font-size:7.05556px;line-height:1.25;font-family:sans-serif;letter-spacing:0px;fill:#4f2683;fill-opacity:1;stroke:none;stroke-width:0.264583"
       x="140.81972"
       y="143.2459"
       id="text8724-44-7"><tspan
         sodipodi:role="line"
         id="tspan8722-05-1"
         style="font-style:normal;font-variant:normal;font-weight:bold;font-stretch:normal;font-size:7.05556px;font-family:'Source Sans Pro';-inkscape-font-specification:'Source Sans Pro Bold';fill:#4f2683;fill-opacity:1;stroke-width:0.264583"
         x="140.81972"
         y="143.2459">PROJECT</tspan></text>
    <rect
       style="fill:#807f83;fill-opacity:1;stroke:#807f83;stroke-width:2.71781;stroke-linecap:butt;stroke-linejoin:round;stroke-miterlimit:4;stroke-dasharray:none;stroke-opacity:1"
       id="rect24544-57-7"
       width="17.28219"
       height="5.2821875"
       x="146.3589"
       y="176.8589" />
    <text
       xml:space="preserve"
       style="font-style:normal;font-weight:normal;font-size:7.05556px;line-height:1.25;font-family:sans-serif;letter-spacing:0px;fill:#4f2683;fill-opacity:1;stroke:none;stroke-width:0.264583"
       x="146.89606"
       y="181.74564"
       id="text8724-96-4"><tspan
         sodipodi:role="line"
         id="tspan8722-247-5"
         style="font-style:normal;font-variant:normal;font-weight:bold;font-stretch:normal;font-size:7.05556px;font-family:'Source Sans Pro';-inkscape-font-specification:'Source Sans Pro Bold';fill:#ffffff;fill-opacity:1;stroke-width:0.264583"
         x="146.89606"
         y="181.74564">LEAD</tspan></text>
  </g>
</svg>
