<?xml version="1.0" encoding="UTF-8" standalone="no"?>
<svg
   sodipodi:docname="trilloop-oldangles.svg"
   inkscape:version="1.1 (c4e8f9e, 2021-05-24)"
   id="svg8"
   version="1.1"
   viewBox="0 0 65 65"
   height="65mm"
   width="65mm"
   xmlns:inkscape="http://www.inkscape.org/namespaces/inkscape"
   xmlns:sodipodi="http://sodipodi.sourceforge.net/DTD/sodipodi-0.dtd"
   xmlns="http://www.w3.org/2000/svg"
   xmlns:svg="http://www.w3.org/2000/svg"
   xmlns:rdf="http://www.w3.org/1999/02/22-rdf-syntax-ns#"
   xmlns:cc="http://creativecommons.org/ns#"
   xmlns:dc="http://purl.org/dc/elements/1.1/">
  <defs
     id="defs2" />
  <sodipodi:namedview
     inkscape:window-maximized="0"
     inkscape:window-y="27"
     inkscape:window-x="252"
     inkscape:window-height="1387"
     inkscape:window-width="1859"
     showgrid="false"
     inkscape:document-rotation="0"
     inkscape:current-layer="layer2"
     inkscape:document-units="mm"
     inkscape:cy="121.28611"
     inkscape:cx="150.20702"
     inkscape:zoom="3.3021093"
     inkscape:pageshadow="2"
     inkscape:pageopacity="0.0"
     borderopacity="1.0"
     bordercolor="#666666"
     pagecolor="#ffffff"
     id="base"
     inkscape:pagecheckerboard="0"
     width="80mm" />
  <metadata
     id="metadata5">
    <rdf:RDF>
      <cc:Work
         rdf:about="">
        <dc:format>image/svg+xml</dc:format>
        <dc:type
           rdf:resource="http://purl.org/dc/dcmitype/StillImage" />
      </cc:Work>
    </rdf:RDF>
  </metadata>
  <g
     inkscape:groupmode="layer"
     id="layer7"
     inkscape:label="Trillium">
    <g
       id="layer1"
       inkscape:groupmode="layer"
       inkscape:label="Layer 1">
      <path
         d="M 10.438161,17.198134 A 23.308827,25.546121 4.966425 0 0 0.85,22.556198 23.308827,25.546121 4.966425 0 0 16.631379,31.465967 23.308827,25.546121 4.966425 0 0 29.421305,28.592636 23.312258,25.542361 75 0 0 28.776024,41.789429 23.312258,25.542361 75 0 0 40.289656,55.786711 23.312258,25.542361 75 0 0 43.262111,37.907893 23.312258,25.542361 75 0 0 36.101456,26.79895 25.546121,23.308827 55.033575 0 0 48.627938,22.892515 25.546121,23.308827 55.033575 0 0 57.839624,7.2858727 25.546121,23.308827 55.033575 0 0 40.025018,10.60517 25.546121,23.308827 55.033575 0 0 31.478788,22.886134 23.308827,25.546121 4.966425 0 0 17.937552,16.523489 23.308827,25.546121 4.966425 0 0 10.438161,17.198134 Z"
         style="fill:#4f2683;fill-opacity:0.466667;stroke-width:0.351827"
         id="path976-0-8" />
    </g>
    <g
       inkscape:label="Layer 2"
       id="layer2"
       inkscape:groupmode="layer">
      <path
         id="path976-0"
         style="fill:#4f2683;fill-opacity:0.733333;stroke-width:0.351827"
         d="M 11.9055,14.500926 A 23.308827,25.546121 12.466425 0 0 1.7,18.561644 23.308827,25.546121 12.466425 0 0 16.183408,29.455072 23.308827,25.546121 12.466425 0 0 29.238961,28.275743 23.312258,25.542361 82.5 0 0 26.876673,41.275409 23.312258,25.542361 82.5 0 0 36.464791,56.655773 23.312258,25.542361 82.5 0 0 41.745471,39.317894 23.312258,25.542361 82.5 0 0 36.096085,27.369337 25.546121,23.308827 62.533575 0 0 49.025291,25.131356 25.546121,23.308827 62.533575 0 0 60.195247,10.860598 25.546121,23.308827 62.533575 0 0 42.099791,11.826225 25.546121,23.308827 62.533575 0 0 32.023689,22.886617 23.308827,25.546121 12.466425 0 0 19.428791,14.810919 23.308827,25.546121 12.466425 0 0 11.9055,14.500926 Z" />
    </g>
    <g
       inkscape:label="Layer 3"
       id="layer3"
       inkscape:groupmode="layer">
      <path
         d="M 13.648221,12.00011 A 23.308827,25.546121 19.966425 0 0 3,14.694002 23.308827,25.546121 19.966425 0 0 15.937623,27.3847 23.308827,25.546121 19.966425 0 0 29.035416,27.919552 25.542361,23.312258 0 0 0 24.996541,40.499662 25.542361,23.312258 0 0 0 32.495092,56.999946 25.542361,23.312258 0 0 0 39.993642,40.499662 25.542361,23.312258 0 0 0 35.952186,27.915934 25.546121,23.308827 70.033575 0 0 49.062896,27.3847 25.546121,23.308827 70.033575 0 0 62,14.694002 25.546121,23.308827 70.033575 0 0 43.933314,13.289437 25.546121,23.308827 70.033575 0 0 32.499743,22.94001 23.308827,25.546121 19.966425 0 0 21.066687,13.289437 23.308827,25.546121 19.966425 0 0 13.648221,12.00011 Z"
         style="fill:#4f2683;fill-opacity:1;stroke-width:0.351827"
         id="path976" />
    </g>
  </g>
</svg>
