<?xml version="1.0" encoding="UTF-8" standalone="no"?>
<!-- Created with Inkscape (http://www.inkscape.org/) -->

<svg
   width="210mm"
   height="297mm"
   viewBox="0 0 210 297"
   version="1.1"
   id="svg5"
   inkscape:version="1.1 (c4e8f9e, 2021-05-24)"
   sodipodi:docname="trilloop-less-phallic-rev3.svg"
   xmlns:inkscape="http://www.inkscape.org/namespaces/inkscape"
   xmlns:sodipodi="http://sodipodi.sourceforge.net/DTD/sodipodi-0.dtd"
   xmlns="http://www.w3.org/2000/svg"
   xmlns:svg="http://www.w3.org/2000/svg">
  <sodipodi:namedview
     id="namedview7"
     pagecolor="#000000"
     bordercolor="#666666"
     borderopacity="1.0"
     inkscape:pageshadow="2"
     inkscape:pageopacity="0"
     inkscape:pagecheckerboard="0"
     inkscape:document-units="mm"
     showgrid="false"
     inkscape:snap-nodes="false"
     inkscape:zoom="1.4142136"
     inkscape:cx="459.97295"
     inkscape:cy="540.58312"
     inkscape:window-width="2110"
     inkscape:window-height="1231"
     inkscape:window-x="956"
     inkscape:window-y="90"
     inkscape:window-maximized="0"
     inkscape:current-layer="layer6" />
  <defs
     id="defs2" />
  <g
     inkscape:groupmode="layer"
     id="layer5"
     inkscape:label="Trillium Outline">
    <path
       id="path846-1"
       style="fill:#4f2683;fill-opacity:1;stroke-width:0.276003"
       d="m 86.991135,9.9304957 c -3.055831,-0.01294 -6.178203,0.3882313 -9.11934,1.1472173 2.001891,7.203919 6.43042,14.27583 12.165149,17.590656 4.16317,2.400589 8.98016,2.905766 12.941326,1.554428 -3.150876,2.754807 -5.122136,7.178571 -5.124746,11.984283 0.003,6.623833 3.913546,13.994955 9.151376,19.330601 5.23784,-5.335646 9.14798,-12.706768 9.15138,-19.330601 -0.003,-4.78762 -1.95893,-9.196337 -5.0891,-11.953277 3.95824,1.344742 8.76809,0.837864 12.92583,-1.559594 5.73473,-3.314827 10.16275,-10.386738 12.16464,-17.590656 -7.23973,-1.868275 -15.57791,-1.569031 -21.31601,1.739945 -4.17332,2.412486 -7.02409,6.348227 -7.82434,10.468094 -0.79333,-4.129228 -3.64696,-8.076412 -7.828976,-10.493934 -3.407,-1.964703 -7.73097,-2.8682523 -12.197189,-2.8871623 z" />
    <path
       id="path846-1-5"
       style="fill:#ffffff;fill-opacity:1;stroke-width:0.207002"
       d="m 91.997034,14.416925 c -2.291888,-0.0097 -4.633658,0.291173 -6.839518,0.860413 1.50142,5.402938 4.82282,10.706872 9.123868,13.192991 3.12238,1.800442 6.735116,2.179325 9.705996,1.165821 -2.36316,2.066106 -3.8416,5.383929 -3.84356,8.988213 0.002,4.967874 2.93516,10.496216 6.86353,14.497951 3.92838,-4.001735 6.86099,-9.530077 6.86354,-14.497951 -0.002,-3.590715 -1.4692,-6.897253 -3.81683,-8.964958 2.96868,1.008556 6.57607,0.628398 9.69438,-1.169696 4.30104,-2.48612 7.62206,-7.790053 9.12348,-13.192991 -5.4298,-1.401207 -11.68344,-1.176774 -15.98701,1.304958 -3.12999,1.809365 -5.26807,4.761171 -5.86826,7.85107 -0.59499,-3.096921 -2.73522,-6.057308 -5.87173,-7.87045 -2.555246,-1.473527 -5.798226,-2.151189 -9.147886,-2.165371 z" />
    <path
       id="path846-1-5-5"
       style="fill:#4f2683;fill-opacity:1;stroke-width:0.155252"
       d="m 95.770824,17.752685 c -1.71891,-0.0073 -3.47524,0.21838 -5.129638,0.64531 1.126068,4.052203 3.617118,8.030154 6.842898,9.894743 2.34179,1.350332 5.051336,1.634494 7.279496,0.874366 -1.77237,1.549579 -2.8812,4.037947 -2.88267,6.74116 0.001,3.725905 2.20137,7.872162 5.14765,10.873463 2.94629,-3.001301 5.14574,-7.147558 5.14766,-10.873463 -0.001,-2.693037 -1.1019,-5.17294 -2.86263,-6.723719 2.22651,0.756417 4.93206,0.471299 7.27079,-0.877272 3.22578,-1.86459 5.71654,-5.84254 6.84261,-9.894743 -4.07235,-1.050905 -8.76258,-0.882581 -11.99026,0.978718 -2.34749,1.357024 -3.95105,3.570879 -4.40119,5.888303 -0.44625,-2.322691 -2.05142,-4.542981 -4.4038,-5.902838 -1.91644,-1.105145 -4.348666,-1.613391 -6.860916,-1.624028 z" />
    <path
       id="path846-1-5-5-4"
       style="fill:#ffffff;fill-opacity:1;stroke-width:0.116439"
       d="m 98.600344,20.253088 c -1.28919,-0.0055 -2.60643,0.163785 -3.84723,0.483982 0.84455,3.039153 2.71284,6.022616 5.13217,7.421058 1.756336,1.012749 3.788506,1.22587 5.459626,0.655774 -1.32928,1.162184 -2.1609,3.02846 -2.16201,5.05587 7.5e-4,2.794429 1.65103,5.904122 3.86074,8.155097 2.20972,-2.250975 3.85931,-5.360668 3.86075,-8.155097 -7.5e-4,-2.019778 -0.82643,-3.879705 -2.14698,-5.042789 1.66989,0.567313 3.69905,0.353474 5.4531,-0.657954 2.41933,-1.398443 4.2874,-4.381905 5.13195,-7.421057 -3.05426,-0.788179 -6.57193,-0.661936 -8.99269,0.734038 -1.76062,1.017768 -2.96329,2.678159 -3.30089,4.416227 -0.33469,-1.742018 -1.53857,-3.407235 -3.30285,-4.427128 -1.43733,-0.828859 -3.26151,-1.210043 -5.145686,-1.218021 z" />
  </g>
  <g
     inkscape:groupmode="layer"
     id="layer6"
     inkscape:label="Trillium Outline Smol">
    <path
       id="path1061"
       style="fill:#999999;stroke-width:0.264583"
       d="m 107.78718,149.9275 c -0.48186,-0.83859 -1.04657,-1.7435 -1.70751,-2.75493 -3.52513,5.39422 -4.31806,7.74962 -4.31832,13.28405 1.9e-4,4.0102 0.37933,6.65601 1.95622,8.24069 -2.16082,-0.57328 -4.64174,0.42158 -8.114762,2.42651 -4.792826,2.76744 -6.436218,4.63159 -9.345188,10.38154 6.434092,0.35574 8.870183,-0.13541 13.66327,-2.9024 3.47284,-2.00526 5.57487,-3.65637 6.15881,-5.81432 0.58393,2.15796 2.68569,3.8092 6.15853,5.81447 4.79309,2.76699 7.2294,3.25798 13.66349,2.90225 -2.90897,-5.74996 -4.55214,-7.6142 -9.34496,-10.38164 -3.47306,-2.00495 -5.9542,-2.99967 -8.11502,-2.42636 1.57691,-1.58468 1.95602,-4.23076 1.95622,-8.24099 -2.1e-4,-4.49673 -0.52374,-6.89437 -2.61078,-10.52887 z" />
    <path
       id="path1061-5"
       style="fill:#ffffff;stroke-width:0.198437"
       d="m 107.37854,154.84865 c -0.36139,-0.62894 -0.78492,-1.30762 -1.28063,-2.0662 -2.64385,4.04567 -3.23854,5.81222 -3.23874,9.96304 1.4e-4,3.00765 0.2845,4.99201 1.46717,6.18052 -1.62062,-0.42996 -3.48131,0.31618 -6.08607,1.81988 -3.594623,2.07558 -4.827165,3.47369 -7.008893,7.78616 4.825568,0.2668 6.652635,-0.10156 10.247453,-2.1768 2.60463,-1.50395 4.18115,-2.74228 4.6191,-4.36074 0.43795,1.61847 2.01427,2.8569 4.6189,4.36085 3.59482,2.07524 5.42205,2.44348 10.24762,2.17669 -2.18173,-4.31247 -3.41411,-5.71065 -7.00872,-7.78623 -2.6048,-1.50372 -4.46565,-2.24976 -6.08627,-1.81977 1.18269,-1.18851 1.46702,-3.17307 1.46717,-6.18075 -1.6e-4,-3.37254 -0.39281,-5.17077 -1.95809,-7.89665 z" />
    <path
       id="path846-1-0-9"
       style="fill:#4f2683;fill-opacity:1;stroke-width:0.207002"
       d="m 15.464743,107.67758 c -1.15434,1.97997 -2.06466,4.15844 -2.674612,6.35339 5.429797,1.4012 11.683827,1.17676 15.987397,-1.305 3.12042,-1.80383 5.25491,-4.74312 5.86264,-7.82273 0.60771,3.07961 2.74181,6.01889 5.86223,7.82273 4.30342,2.48199 10.55757,2.70618 15.98735,1.30497 -1.50141,-5.40293 -4.82279,-10.70682 -9.12381,-13.19296 -3.11078,-1.793411 -6.7078,-2.176261 -9.6723,-1.177021 2.35778,-2.06666 3.83225,-5.38084 3.8342,-8.980412 -0.002,-4.967883 -2.93535,-10.495927 -6.86373,-14.497661 -3.92838,4.001739 -6.86082,9.529762 -6.86337,14.497633 0.002,3.615333 1.48926,6.94287 3.8651,9.0076 -2.97951,-1.03318 -6.6134,-0.65989 -9.75188,1.149841 -2.553738,1.47615 -4.762097,3.94582 -6.449215,6.83962 z" />
    <path
       id="path846-1-5-9-8"
       style="fill:#ffffff;fill-opacity:1;stroke-width:0.155252"
       d="m 20.255988,106.10857 c -0.865758,1.48498 -1.54851,3.11883 -2.00597,4.76504 4.07234,1.05091 8.76287,0.88257 11.99055,-0.97875 2.34031,-1.35287 3.94118,-3.55734 4.39697,-5.86704 0.45579,2.3097 2.05637,4.51416 4.39668,5.86704 3.22748,1.86166 7.91817,2.02963 11.99051,0.97874 -1.12606,-4.05221 -3.61708,-8.03013 -6.84286,-9.89473 -2.33299,-1.345221 -5.03084,-1.632201 -7.25422,-0.88276 1.76834,-1.550011 2.87418,-4.035641 2.87565,-6.735328 -0.002,-3.725902 -2.20151,-7.871943 -5.14779,-10.873246 -2.94628,3.001306 -5.14563,7.147333 -5.14753,10.873227 10e-4,2.711506 1.11694,5.207156 2.89881,6.755707 -2.23463,-0.774891 -4.96004,-0.494911 -7.3139,0.86238 -1.9153,1.10711 -3.57157,2.95937 -4.8369,5.12972 z" />
    <path
       id="path846-1-0"
       style="fill:#4f2683;fill-opacity:1;stroke-width:0.276003"
       d="m 14.774898,83.830519 c -3.05583,-0.01294 -6.1781997,0.388231 -9.1193394,1.147217 2.0018997,7.203919 6.4304194,14.275833 12.1651494,17.590654 4.163174,2.40059 8.980164,2.90577 12.941334,1.55443 -3.15088,2.75481 -5.12214,7.17857 -5.12475,11.98429 0.003,6.62382 3.91355,13.99495 9.15138,19.33059 5.23784,-5.33564 9.14798,-12.70677 9.15138,-19.33059 -0.003,-4.78763 -1.95893,-9.19634 -5.0891,-11.95328 3.95824,1.34474 8.76809,0.83786 12.92583,-1.5596 5.73473,-3.314821 10.16275,-10.386736 12.16464,-17.590654 -7.23973,-1.868275 -15.57791,-1.569031 -21.31601,1.739945 -4.17332,2.412486 -7.02409,6.348227 -7.82434,10.468098 -0.79333,-4.129232 -3.64696,-8.076416 -7.82898,-10.493938 -3.407,-1.964703 -7.730974,-2.868252 -12.197194,-2.887162 z" />
    <path
       id="path846-1-5-9"
       style="fill:#ffffff;fill-opacity:1;stroke-width:0.207002"
       d="m 19.780802,88.316948 c -2.291884,-0.0097 -4.633654,0.291173 -6.839514,0.860413 1.50142,5.402938 4.82282,10.706868 9.123864,13.192989 3.12238,1.80044 6.73512,2.17933 9.706,1.16582 -2.36316,2.06611 -3.8416,5.38393 -3.84356,8.98822 0.002,4.96788 2.93516,10.49621 6.86353,14.49795 3.92838,-4.00174 6.86099,-9.53007 6.86354,-14.49795 -0.002,-3.59072 -1.4692,-6.89726 -3.81683,-8.96496 2.96868,1.00855 6.57607,0.6284 9.69438,-1.1697 4.30104,-2.486121 7.62206,-7.790051 9.12348,-13.192989 -5.4298,-1.401207 -11.68344,-1.176774 -15.98701,1.304958 -3.12999,1.809365 -5.26807,4.761171 -5.86826,7.85107 -0.59499,-3.096921 -2.73522,-6.057308 -5.87173,-7.87045 -2.55525,-1.473527 -5.79823,-2.151189 -9.14789,-2.165371 z" />
    <path
       id="path846-1-0-9-0"
       style="fill:#4f2683;fill-opacity:1;stroke-width:0.207002"
       d="m 174.50393,2.9953228 c -3.10075,3.158659 -5.57416,7.2681722 -6.48281,11.3026692 -0.38965,-0.26997 -0.79246,-0.526473 -1.20922,-0.767395 -3.407,-1.964698 -7.73097,-2.868253 -12.19719,-2.887162 -3.05583,-0.01294 -6.17821,0.388228 -9.11934,1.147217 2.00189,7.203921 6.43042,14.275837 12.16515,17.590659 0.36502,0.210478 0.73543,0.405161 1.10949,0.586525 -1.30876,1.28863 -2.47831,2.829081 -3.46542,4.522206 -1.15434,1.979969 -2.06482,4.158668 -2.67477,6.353616 4.26614,1.100913 9.03737,1.192319 12.97543,-0.02015 -0.0834,0.687835 -0.12777,1.387949 -0.12816,2.096513 0.003,6.62382 3.91355,13.994964 9.15138,19.330604 5.23783,-5.33564 9.14798,-12.706784 9.15138,-19.330604 -4.2e-4,-0.676449 -0.0411,-1.345247 -0.1173,-2.002977 3.87699,1.114808 8.51175,0.998902 12.66692,-0.07338 -1.11511,-4.012824 -3.23586,-7.968792 -6.01462,-10.758516 0.43955,-0.206534 0.87434,-0.431546 1.30173,-0.677995 5.73474,-3.314819 10.16275,-10.386737 12.16463,-17.590656 -7.23972,-1.8682762 -15.57792,-1.569027 -21.31601,1.739945 -0.49771,0.287719 -0.97619,0.597263 -1.43505,0.926042 -0.87363,-4.093409 -3.37822,-8.2803712 -6.52622,-11.4871552 z m -0.009,6.305042 c 1.93812,1.9743182 3.54819,4.4443332 4.42712,6.9639172 -2.22955,2.216008 -3.73455,4.944984 -4.28139,7.760248 -0.55917,-2.910435 -2.14277,-5.729949 -4.49275,-7.987625 0.89493,-2.440493 2.46719,-4.8216 4.34702,-6.7365402 z m -14.87455,5.8291012 c 3.34966,0.01418 6.59252,0.692229 9.14777,2.16576 3.13651,1.813139 5.277,4.773401 5.87199,7.87032 0.60019,-3.0899 2.73787,-6.041829 5.86786,-7.851201 4.30357,-2.481728 10.55734,-2.706029 15.98714,-1.30483 -1.50142,5.402943 -4.82244,10.706875 -9.12348,13.192995 -3.11831,1.798098 -6.72582,2.177987 -9.6945,1.169438 2.34763,2.0677 3.81482,5.374624 3.81682,8.965342 -0.003,4.96788 -2.93476,10.496084 -6.86314,14.497825 -3.92836,-4.001741 -6.86167,-9.529945 -6.86367,-14.497825 0.002,-3.604289 1.48054,-6.922487 3.8437,-8.988597 -2.97088,1.013511 -6.58401,0.634619 -9.70639,-1.16582 -4.30105,-2.48612 -7.62205,-7.790053 -9.12347,-13.192993 2.20586,-0.56924 4.54748,-0.870413 6.83937,-0.860414 z m 10.98125,15.806272 c -2.04786,1.790432 -3.59659,4.285826 -4.43126,7.132896 -2.57994,0.461447 -5.45749,0.294527 -8.08064,-0.382405 0.45746,-1.646211 1.14033,-3.280103 2.00608,-4.765084 0.39745,-0.681726 0.83742,-1.326502 1.30793,-1.932181 3.13709,0.928277 6.3834,0.906925 9.19789,-0.05323 z m 8.08891,0.031 c 2.73767,0.930073 5.88252,0.973169 8.93744,0.118856 1.45815,1.907153 2.58042,4.239707 3.23649,6.600631 -2.51491,0.648986 -5.26499,0.831279 -7.76128,0.438733 -0.82584,-2.854116 -2.36889,-5.358144 -4.41265,-7.15822 z" />
    <path
       id="path846-1-0-9-3"
       style="fill:#807f83;fill-opacity:1;stroke-width:0.207002"
       d="m 87.119701,107.01112 c -1.15434,1.97997 -2.064656,4.15844 -2.674608,6.35339 5.429798,1.4012 11.683828,1.17676 15.987397,-1.305 3.12042,-1.80383 5.25491,-4.74312 5.86264,-7.82273 0.60771,3.07961 2.74181,6.01889 5.86223,7.82273 4.30342,2.48199 10.55757,2.70618 15.98735,1.30497 -1.50141,-5.40293 -4.82279,-10.70682 -9.12381,-13.19296 -3.11078,-1.793411 -6.7078,-2.176261 -9.6723,-1.177021 2.35778,-2.06666 3.83225,-5.380838 3.8342,-8.980408 -0.002,-4.96789 -2.93535,-10.495932 -6.86373,-14.497666 -3.92838,4.001739 -6.860819,9.529766 -6.863369,14.497636 0.002,3.61533 1.489259,6.942868 3.865099,9.007598 -2.97951,-1.03318 -6.613399,-0.65989 -9.751879,1.149841 -2.55374,1.47615 -4.7621,3.94582 -6.44922,6.83962 z" />
    <path
       id="path846-1-5-9-8-5"
       style="fill:#ffffff;fill-opacity:1;stroke-width:0.155252"
       d="m 91.910951,105.44211 c -0.86576,1.48498 -1.54851,3.11883 -2.00597,4.76504 4.07234,1.05091 8.76287,0.88257 11.990549,-0.97875 2.34031,-1.35287 3.94118,-3.55734 4.39697,-5.86704 0.45579,2.3097 2.05637,4.51416 4.39668,5.86704 3.22748,1.86166 7.91817,2.02963 11.99051,0.97874 -1.12606,-4.05221 -3.61708,-8.03013 -6.84286,-9.89473 -2.33299,-1.345221 -5.03084,-1.632201 -7.25422,-0.882761 1.76834,-1.55001 2.87418,-4.035638 2.87565,-6.735328 -0.002,-3.7259 -2.20151,-7.87194 -5.14779,-10.87325 -2.94628,3.00131 -5.14563,7.14734 -5.14753,10.87323 10e-4,2.71151 1.11694,5.207158 2.89881,6.755708 -2.23463,-0.77489 -4.960039,-0.49491 -7.313899,0.862381 -1.9153,1.10711 -3.57157,2.95937 -4.8369,5.12972 z" />
    <path
       id="path846-1-0-4"
       style="fill:#4f2683;fill-opacity:1;stroke-width:0.276003"
       d="m 86.429861,83.164061 c -3.055831,-0.0129 -6.178201,0.38823 -9.119341,1.14721 2.0019,7.20392 6.43042,14.275838 12.165151,17.590659 4.16317,2.40059 8.98016,2.90577 12.941329,1.55443 -3.150879,2.75481 -5.122139,7.17857 -5.124749,11.98429 0.003,6.62382 3.913549,13.99495 9.151379,19.33059 5.23784,-5.33564 9.14798,-12.70677 9.15138,-19.33059 -0.003,-4.78763 -1.95893,-9.19634 -5.0891,-11.95328 3.95824,1.34474 8.76809,0.83786 12.92583,-1.5596 5.73473,-3.314821 10.16275,-10.386739 12.16464,-17.590659 -7.23973,-1.86827 -15.57791,-1.56903 -21.31601,1.73995 -4.17332,2.41248 -7.02409,6.34823 -7.82434,10.468098 -0.79333,-4.129238 -3.64696,-8.076418 -7.828979,-10.493938 -3.407,-1.9647 -7.73097,-2.86825 -12.19719,-2.88716 z" />
    <path
       id="path846-1-5-9-1"
       style="fill:#ffffff;fill-opacity:1;stroke-width:0.207002"
       d="m 91.435761,87.650491 c -2.29188,-0.01 -4.63365,0.29117 -6.839511,0.86041 1.501421,5.40294 4.822821,10.706868 9.123861,13.192989 3.12238,1.80044 6.735119,2.17933 9.705999,1.16582 -2.36316,2.06611 -3.841599,5.38393 -3.843559,8.98822 0.002,4.96788 2.935159,10.49621 6.863529,14.49795 3.92838,-4.00174 6.86099,-9.53007 6.86354,-14.49795 -0.002,-3.59072 -1.4692,-6.89726 -3.81683,-8.96496 2.96868,1.00855 6.57607,0.6284 9.69438,-1.1697 4.30104,-2.486121 7.62206,-7.790049 9.12348,-13.192989 -5.4298,-1.40121 -11.68344,-1.17678 -15.98701,1.30496 -3.12999,1.80936 -5.26807,4.76117 -5.86826,7.851068 -0.59499,-3.096918 -2.73522,-6.057308 -5.87173,-7.870448 -2.555249,-1.47353 -5.798229,-2.15119 -9.147889,-2.16537 z" />
    <path
       id="path846-1-0-9-3-1"
       style="fill:#807f83;fill-opacity:1;stroke-width:0.78237"
       d="M 663.46484 278.3457 C 651.74499 290.28442 642.39678 305.81588 638.96289 321.06445 C 641.85226 323.06634 644.53819 325.26969 647.00195 327.63672 C 650.38422 318.41199 656.32814 309.412 663.43359 302.17383 C 670.75879 309.63583 676.84271 318.97132 680.16406 328.49414 C 682.59766 326.0753 685.26118 323.82001 688.13086 321.76367 C 684.8293 306.29193 675.36327 290.46633 663.46484 278.3457 z M 603.99805 380.28906 C 599.05169 385.15996 594.63113 390.98178 590.90039 397.38086 C 586.53753 404.86421 583.09829 413.0967 580.79297 421.39258 C 596.917 425.5535 614.94854 425.89898 629.83203 421.31641 C 630.26554 417.74321 630.98503 414.25953 631.96875 410.9043 C 622.21781 412.64834 611.342 412.01747 601.42773 409.45898 C 603.15672 403.23709 605.7376 397.06369 609.00977 391.45117 C 610.51147 388.87538 612.17351 386.43727 613.95117 384.14844 C 610.58445 383.15207 607.25118 381.86637 603.99805 380.28906 z M 723.22461 380.73047 C 719.90254 382.29145 716.50193 383.554 713.07031 384.51367 C 718.58063 391.7214 722.82139 400.53671 725.30078 409.45898 C 715.79561 411.91185 705.40162 412.60083 695.9668 411.11719 C 696.95068 414.51718 697.66053 418.04911 698.08008 421.66992 C 712.73328 425.88338 730.25048 425.44531 745.95508 421.39258 C 741.74046 406.22599 733.72646 391.2743 723.22461 380.73047 z "
       transform="scale(0.26458333)" />
    <path
       id="path846-1-0-4-8"
       style="fill:#4f2683;fill-opacity:1;stroke-width:1.04316"
       d="M 588.29297 307.25 C 576.74338 307.20124 564.94229 308.71735 553.82617 311.58594 C 561.39241 338.81335 578.13012 365.54187 599.80469 378.07031 C 615.5395 387.14341 633.74545 389.05274 648.7168 383.94531 C 636.80796 394.35719 629.35752 411.07688 629.34766 429.24023 C 629.35899 454.27514 644.13902 482.13458 663.93555 502.30078 C 683.73211 482.13458 698.51059 454.27514 698.52344 429.24023 C 698.5121 411.14525 691.11963 394.48243 679.28906 384.0625 C 694.24934 389.14498 712.42829 387.22923 728.14258 378.16797 C 749.81715 365.63953 766.55294 338.91101 774.11914 311.68359 C 746.75638 304.62242 715.24199 305.75338 693.55469 318.25977 C 677.78151 327.3778 667.00699 342.25306 663.98242 357.82422 C 660.98401 342.21764 650.19864 327.29919 634.39258 318.16211 C 621.51573 310.73647 605.17317 307.32147 588.29297 307.25 z M 607.21289 324.20703 C 619.87302 324.26062 632.13142 326.82138 641.78906 332.39062 C 653.64359 339.24344 661.73169 350.43182 663.98047 362.13672 C 666.2489 350.45836 674.33027 339.30142 686.16016 332.46289 C 702.42562 323.08309 726.06191 322.23534 746.58398 327.53125 C 740.90933 347.95181 728.35746 367.99817 712.10156 377.39453 C 700.31582 384.19049 686.68115 385.62825 675.46094 381.81641 C 684.33387 389.63134 689.87916 402.12799 689.88672 415.69922 C 689.87708 434.47546 678.79273 455.36945 663.94531 470.49414 C 649.09793 455.36945 638.01147 434.47546 638.00391 415.69922 C 638.01131 402.07671 643.59962 389.53744 652.53125 381.72852 C 641.30273 385.5591 627.64878 384.12707 615.84766 377.32227 C 599.59176 367.92591 587.03794 347.87955 581.36328 327.45898 C 589.70039 325.30753 598.55067 324.16924 607.21289 324.20703 z "
       transform="scale(0.26458333)" />
    <path
       id="path846-1-0-4-9"
       style="fill:#4f2683;fill-opacity:1;stroke-width:0.276003"
       d="m 86.180301,152.18648 c -3.055831,-0.0129 -6.178201,0.38823 -9.119341,1.14721 2.0019,7.20392 6.43042,14.27583 12.165151,17.59066 4.16317,2.40059 8.98016,2.90577 12.941329,1.55443 -3.150879,2.75481 -5.122139,7.17857 -5.124749,11.98429 0.003,6.62382 3.913549,13.99495 9.151379,19.33059 5.23784,-5.33564 9.14798,-12.70677 9.15138,-19.33059 -0.003,-4.78763 -1.95893,-9.19634 -5.0891,-11.95328 3.95824,1.34474 8.76809,0.83786 12.92583,-1.5596 5.73473,-3.31483 10.16275,-10.38674 12.16464,-17.59066 -7.23973,-1.86827 -15.57791,-1.56903 -21.31601,1.73995 -4.17332,2.41248 -7.02409,6.34823 -7.82434,10.46809 -0.79333,-4.12923 -3.64696,-8.07641 -7.828979,-10.49393 -3.407,-1.9647 -7.73097,-2.86825 -12.19719,-2.88716 z" />
    <path
       id="path846-1-5-9-1-5"
       style="fill:#ffffff;fill-opacity:1;stroke-width:0.207002"
       d="m 91.186201,156.67291 c -2.29188,-0.01 -4.63365,0.29117 -6.839511,0.86041 1.501421,5.40294 4.822821,10.70686 9.123861,13.19299 3.12238,1.80044 6.735119,2.17933 9.705999,1.16582 -2.36316,2.06611 -3.841599,5.38393 -3.843559,8.98822 0.002,4.96788 2.935159,10.49621 6.863529,14.49795 3.92838,-4.00174 6.86099,-9.53007 6.86354,-14.49795 -0.002,-3.59072 -1.4692,-6.89726 -3.81683,-8.96496 2.96868,1.00855 6.57607,0.6284 9.69438,-1.1697 4.30104,-2.48613 7.62206,-7.79005 9.12348,-13.19299 -5.4298,-1.40121 -11.68344,-1.17678 -15.98701,1.30496 -3.12999,1.80936 -5.26807,4.76117 -5.86826,7.85106 -0.59499,-3.09691 -2.73522,-6.0573 -5.87173,-7.87044 -2.555249,-1.47353 -5.798229,-2.15119 -9.147889,-2.16537 z" />
    <path
       id="path1061-6"
       style="fill:#999999;stroke-width:0.999999"
       d="M 663.50391 554.85156 C 652.60533 571.52877 648.61682 580.52341 647.52539 594.69336 C 649.259 596.39707 650.8458 598.2015 652.34375 600.05469 C 653.78016 592.43843 657.00187 586.10884 663.57227 576.05469 C 665.44582 578.92176 667.04623 581.48619 668.41211 583.86328 C 672.02268 590.15095 673.97777 595.13745 674.95703 600.96289 C 676.38269 599.13776 677.89537 597.3592 679.54688 595.67188 C 678.78341 584.2378 676.25815 576.23683 669.95703 565.26367 C 668.13583 562.0942 666.00195 558.67429 663.50391 554.85156 z M 614.91992 650.97852 C 603.31316 658.96719 597.53394 666.92641 588.58594 684.61328 C 608.82761 685.73244 618.60285 684.62829 631.75781 678.19727 C 632.46079 675.68739 633.32927 673.2599 634.31445 670.90625 C 626.80981 673.64153 619.66685 674.05406 607.38477 673.375 C 612.53029 663.2042 616.27926 657.32287 621.67188 652.43164 C 619.41782 652.06177 617.16232 651.60406 614.91992 650.97852 z M 712.45312 651.23242 C 710.20271 651.83759 707.94152 652.2767 705.68164 652.625 C 710.96218 657.47866 714.68314 663.33653 719.76172 673.375 C 707.94543 674.02828 700.885 673.6724 693.68359 671.20898 C 694.67748 673.61999 695.54752 676.1097 696.24609 678.68164 C 708.90913 684.68778 718.69352 685.70403 738.42188 684.61328 C 729.56918 667.11478 723.81423 659.13656 712.45312 651.23242 z "
       transform="scale(0.26458333)" />
    <path
       id="path846-1-0-4-9-8"
       style="fill:#4f2683;fill-opacity:1;stroke-width:1.04316"
       d="M 588.29297 573.80078 C 576.74338 573.75203 564.94229 575.26813 553.82617 578.13672 C 561.39241 605.36413 578.13012 632.0926 599.80469 644.62109 C 615.5395 653.69419 633.74545 655.60352 648.7168 650.49609 C 636.80796 660.90797 629.35752 677.62766 629.34766 695.79102 C 629.35899 720.82593 644.13902 748.68536 663.93555 768.85156 C 683.73211 748.68536 698.51059 720.82593 698.52344 695.79102 C 698.5121 677.69604 691.11963 661.03321 679.28906 650.61328 C 694.24934 655.69576 712.42829 653.78002 728.14258 644.71875 C 749.81715 632.19026 766.55294 605.46179 774.11914 578.23438 C 746.75638 571.1732 715.24199 572.30417 693.55469 584.81055 C 677.78151 593.92858 667.00699 608.80388 663.98242 624.375 C 660.98401 608.76846 650.19864 593.84997 634.39258 584.71289 C 621.51573 577.28725 605.17317 573.87225 588.29297 573.80078 z M 607.21289 590.75781 C 619.87302 590.81141 632.13142 593.37216 641.78906 598.94141 C 653.64359 605.79422 661.73169 616.9846 663.98047 628.68945 C 666.2489 617.01113 674.33027 605.85415 686.16016 599.01562 C 702.42562 589.63582 726.06191 588.78807 746.58398 594.08398 C 740.90933 614.50455 728.35746 634.55087 712.10156 643.94727 C 700.31582 650.74323 686.68115 652.17903 675.46094 648.36719 C 684.33387 656.18212 689.87916 668.67877 689.88672 682.25 C 689.87708 701.02624 678.79273 721.92219 663.94531 737.04688 C 649.09793 721.92219 638.01147 701.02624 638.00391 682.25 C 638.01131 668.62749 643.59962 656.08822 652.53125 648.2793 C 641.30273 652.10989 627.64878 650.67786 615.84766 643.87305 C 599.59176 634.47665 587.03794 614.43033 581.36328 594.00977 C 589.70039 591.85831 598.55067 590.72002 607.21289 590.75781 z "
       transform="scale(0.26458333)" />
    <text
       xml:space="preserve"
       style="font-style:normal;font-weight:normal;font-size:16.9333px;line-height:1.25;font-family:sans-serif;fill:#4f2683;fill-opacity:1;stroke:none;stroke-width:0.264583"
       x="170.94484"
       y="170.21053"
       id="text3271"><tspan
         sodipodi:role="line"
         id="tspan3269"
         style="font-style:normal;font-variant:normal;font-weight:normal;font-stretch:normal;font-size:16.9333px;font-family:'Apple Symbols';-inkscape-font-specification:'Apple Symbols';fill:#4f2683;stroke-width:0.264583;fill-opacity:1"
         x="170.94484"
         y="170.21053">∞</tspan></text>
    <text
       xml:space="preserve"
       style="font-style:normal;font-weight:normal;font-size:16.9333px;line-height:1.25;font-family:sans-serif;fill:#4f2683;fill-opacity:1;stroke:none;stroke-width:0.264583"
       x="-239.61395"
       y="67.618172"
       id="text3271-2"
       transform="rotate(-120)"><tspan
         sodipodi:role="line"
         id="tspan3269-5"
         style="font-style:normal;font-variant:normal;font-weight:normal;font-stretch:normal;font-size:16.9333px;font-family:'Apple Symbols';-inkscape-font-specification:'Apple Symbols';fill:#4f2683;stroke-width:0.264583;fill-opacity:1"
         x="-239.61395"
         y="67.618172">∞</tspan></text>
    <text
       xml:space="preserve"
       style="font-style:normal;font-weight:normal;font-size:16.9333px;line-height:1.25;font-family:sans-serif;fill:#4f2683;fill-opacity:1;stroke:none;stroke-width:0.264583"
       x="54.470154"
       y="-236.64948"
       id="text3271-5"
       transform="rotate(120)"><tspan
         sodipodi:role="line"
         id="tspan3269-1"
         style="font-style:normal;font-variant:normal;font-weight:normal;font-stretch:normal;font-size:16.9333px;font-family:'Apple Symbols';-inkscape-font-specification:'Apple Symbols';fill:#4f2683;stroke-width:0.264583;fill-opacity:1"
         x="54.470154"
         y="-236.64948">∞</tspan></text>
    <text
       xml:space="preserve"
       style="font-style:normal;font-weight:normal;font-size:16.9333px;line-height:1.25;font-family:sans-serif;fill:#4f2683;fill-opacity:1;stroke:none;stroke-width:0.264583"
       x="101.46832"
       y="170.58228"
       id="text3271-1"><tspan
         sodipodi:role="line"
         id="tspan3269-10"
         style="font-style:normal;font-variant:normal;font-weight:normal;font-stretch:normal;font-size:16.9333px;font-family:'Apple Symbols';-inkscape-font-specification:'Apple Symbols';fill:#4f2683;stroke-width:0.264583;fill-opacity:1"
         x="101.46832"
         y="170.58228">∞</tspan></text>
    <text
       xml:space="preserve"
       style="font-style:normal;font-weight:normal;font-size:16.9333px;line-height:1.25;font-family:sans-serif;fill:#4f2683;fill-opacity:1;stroke:none;stroke-width:0.264583"
       x="-205.19763"
       y="7.2638736"
       id="text3271-2-6"
       transform="rotate(-120)"><tspan
         sodipodi:role="line"
         id="tspan3269-5-3"
         style="font-style:normal;font-variant:normal;font-weight:normal;font-stretch:normal;font-size:16.9333px;font-family:'Apple Symbols';-inkscape-font-specification:'Apple Symbols';fill:#4f2683;stroke-width:0.264583;fill-opacity:1"
         x="-205.19763"
         y="7.2638736">∞</tspan></text>
    <text
       xml:space="preserve"
       style="font-style:normal;font-weight:normal;font-size:16.9333px;line-height:1.25;font-family:sans-serif;fill:#4f2683;fill-opacity:1;stroke:none;stroke-width:0.264583"
       x="89.53035"
       y="-176.66692"
       id="text3271-5-1"
       transform="rotate(120)"><tspan
         sodipodi:role="line"
         id="tspan3269-1-0"
         style="font-style:normal;font-variant:normal;font-weight:normal;font-stretch:normal;font-size:16.9333px;font-family:'Apple Symbols';-inkscape-font-specification:'Apple Symbols';fill:#4f2683;stroke-width:0.264583;fill-opacity:1"
         x="89.53035"
         y="-176.66692">∞</tspan></text>
  </g>
  <g
     inkscape:groupmode="layer"
     id="layer4"
     inkscape:label="Trillium">
    <g
       inkscape:label="Layer 1"
       inkscape:groupmode="layer"
       id="layer1">
      <path
         id="path846-0"
         style="fill:#4f2683;fill-opacity:0.666667;stroke-width:0.276003"
         d="m 12.727149,16.692848 c -2.9550547,0.778408 -5.8672034,1.974039 -8.5116834,3.468386 3.7981897,6.440324 9.9061634,12.125077 16.3034264,13.842697 4.642632,1.241283 9.426234,0.482518 12.902681,-1.848001 -2.330526,3.476448 -3.089654,8.259674 -1.848369,12.902311 1.717658,6.397252 7.402357,12.505189 13.842681,16.303376 3.678391,-6.509488 5.547516,-14.641467 3.836426,-21.040478 -1.241639,-4.623812 -4.272372,-8.37597 -8.009425,-10.228824 4.171403,0.274455 8.68617,-1.460032 12.081737,-4.851902 4.681377,-4.686133 7.12817,-12.663129 7.19734,-20.1397077 -7.476581,0.06916 -15.453198,2.516293 -20.139359,7.1976477 -3.40671,3.410415 -5.1417,7.949882 -4.84838,12.136488 -1.835028,-3.783198 -5.613023,-6.857312 -10.278243,-8.110072 -3.799414,-1.015961 -8.209906,-0.769597 -12.528832,0.368079 z" />
    </g>
    <g
       inkscape:groupmode="layer"
       id="layer2"
       inkscape:label="Layer 2">
      <path
         id="path846-8"
         style="fill:#4f2683;fill-opacity:0.8;stroke-width:0.276003"
         d="m 14.562593,13.526413 c -3.031377,0.386037 -6.0746737,1.191327 -8.8915804,2.327715 2.9250637,6.88099 8.2387744,13.31436 14.3571144,15.852295 4.440893,1.836649 9.28261,1.708761 13.033508,-0.148053 -2.764355,3.142513 -4.141325,7.785731 -3.516645,12.550671 0.867955,6.566721 5.706774,13.364405 11.596237,17.97073 4.496581,-5.973673 7.411151,-13.792111 6.549938,-20.35972 -0.627487,-4.746322 -3.142536,-8.861969 -6.605773,-11.186754 4.099892,0.816584 8.802431,-0.313769 12.611677,-3.233411 5.252989,-4.035 8.720057,-11.624382 9.764521,-19.0279687 -7.421642,-0.907317 -15.649432,0.477718 -20.906542,4.5073577 -3.822714,2.936573 -6.13538,7.210744 -6.391031,11.399818 -1.325523,-3.990351 -4.669945,-7.531293 -9.131735,-9.38227 -3.6343,-1.503192 -8.039216,-1.834619 -12.469689,-1.27041 z" />
    </g>
    <g
       inkscape:groupmode="layer"
       id="layer3"
       inkscape:label="Layer 3">
      <path
         id="path846"
         style="fill:#4f2683;fill-opacity:1;stroke-width:0.276003"
         d="m 16.699116,10.704452 c -3.055831,-0.01294 -6.178203,0.388231 -9.1193397,1.147217 2.001891,7.203919 6.4304197,14.27583 12.1651487,17.590656 4.163169,2.400589 8.980157,2.905766 12.94133,1.554428 -3.150886,2.754807 -5.122138,7.178571 -5.124752,11.984283 0.0034,6.623833 3.913547,13.994955 9.151379,19.330601 5.237832,-5.335646 9.147979,-12.706768 9.151379,-19.330601 -0.0026,-4.78762 -1.958932,-9.196337 -5.089096,-11.953277 3.958233,1.344742 8.76808,0.837864 12.925827,-1.559594 5.734727,-3.314827 10.162741,-10.386738 12.164631,-17.590656 -7.239722,-1.868274 -15.577902,-1.56903 -21.31601,1.739945 -4.17331,2.412486 -7.024082,6.348227 -7.82433,10.468094 C 35.931946,19.95632 33.078322,16.009136 28.896305,13.591614 25.489302,11.626911 21.165331,10.723362 16.699116,10.704452 Z" />
    </g>
  </g>
</svg>
