<?xml version="1.0" encoding="UTF-8" standalone="no"?>
<!-- Created with Inkscape (http://www.inkscape.org/) -->

<svg
   width="210mm"
   height="297mm"
   viewBox="0 0 210 297"
   version="1.1"
   id="svg5"
   inkscape:version="1.1 (c4e8f9e, 2021-05-24)"
   sodipodi:docname="trilloop-less-phallic-rev5.svg"
   xmlns:inkscape="http://www.inkscape.org/namespaces/inkscape"
   xmlns:sodipodi="http://sodipodi.sourceforge.net/DTD/sodipodi-0.dtd"
   xmlns="http://www.w3.org/2000/svg"
   xmlns:svg="http://www.w3.org/2000/svg">
  <sodipodi:namedview
     id="namedview7"
     pagecolor="#000000"
     bordercolor="#666666"
     borderopacity="1.0"
     inkscape:pageshadow="2"
     inkscape:pageopacity="0"
     inkscape:pagecheckerboard="0"
     inkscape:document-units="mm"
     showgrid="false"
     inkscape:snap-nodes="false"
     inkscape:zoom="1.4142136"
     inkscape:cx="475.17576"
     inkscape:cy="886.00479"
     inkscape:window-width="2161"
     inkscape:window-height="1074"
     inkscape:window-x="1048"
     inkscape:window-y="109"
     inkscape:window-maximized="0"
     inkscape:current-layer="layer5" />
  <defs
     id="defs2">
    <inkscape:path-effect
       effect="fill_between_many"
       method="originald"
       linkedpaths="#use14571,0,1"
       id="path-effect14882"
       join="true"
       close="true"
       autoreverse="true" />
    <inkscape:path-effect
       effect="fill_between_many"
       method="originald"
       linkedpaths="#use14571,0,1"
       id="path-effect14878"
       join="true"
       close="true"
       autoreverse="true" />
    <inkscape:path-effect
       effect="fill_between_many"
       method="originald"
       linkedpaths="#use14571,0,1"
       id="path-effect14798"
       join="true"
       close="true"
       autoreverse="true" />
    <inkscape:path-effect
       effect="fill_between_many"
       method="originald"
       linkedpaths="#path1600-3-5-0-3-9,0,1"
       id="path-effect13393"
       join="true"
       close="true"
       autoreverse="true" />
    <inkscape:path-effect
       effect="fill_between_many"
       method="originald"
       linkedpaths="#path1600-3-5-0-3-9,0,1"
       id="path-effect13477"
       join="true"
       close="true"
       autoreverse="true" />
    <inkscape:path-effect
       effect="fill_between_many"
       method="originald"
       linkedpaths="#use14571,0,1"
       id="path-effect14714"
       join="true"
       close="true"
       autoreverse="true" />
  </defs>
  <g
     inkscape:groupmode="layer"
     id="layer5"
     inkscape:label="Trillium Outline">
    <path
       inkscape:original-d="M 27.502034,-0.18708867"
       inkscape:path-effect="#path-effect14714"
       d="M 27.502034,-0.18708867"
       id="path14716"
       style="fill:none;fill-opacity:1;stroke:none;stroke-opacity:1" />
    <path
       id="path1600-3-5"
       style="fill:#807f83;fill-opacity:1;fill-rule:nonzero;stroke-width:0.850001"
       d="M 286.73242 819.04297 C 276.72173 839.11738 272.26989 858.49366 270.55078 871.36914 C 267.67991 872.06261 265.31291 873.1273 263.85938 874.55078 C 265.24623 873.21991 267.63357 872.285 270.5 871.76562 C 270.38755 872.62731 270.28389 873.46777 270.19531 874.26758 C 268.2638 875.59563 266.05581 877.21488 263.63867 879.125 C 263.34094 877.57886 263.3016 876.1752 263.58398 875.02734 C 263.27385 876.23398 263.2552 877.6723 263.47461 879.25391 C 253.30494 887.31475 239.56228 900.43616 227.78906 918.22656 C 249.21968 916.91749 267.54802 911.51683 279.61133 906.7168 C 281.87453 909.28655 284.25682 911.12066 286.45703 911.73438 C 284.38792 911.13406 282.1203 909.1966 280.04688 906.54297 C 280.98743 906.16511 281.89167 905.79117 282.75195 905.42383 C 284.95928 906.54321 287.74674 907.82657 291.04492 909.17188 C 289.68541 910.44983 288.30793 911.35717 287.00781 911.73438 C 288.38544 911.34977 289.83617 910.48848 291.2832 909.26758 C 303.3247 914.15371 322.03043 919.79301 343.99609 921.13477 C 331.73301 902.60413 317.33362 889.13834 307.06055 881.18164 C 308.31842 877.69585 308.80555 874.47278 308.20117 872.11914 C 308.74914 874.34656 308.09923 877.52542 306.6582 880.87305 C 305.61386 880.07041 304.61463 879.32822 303.66602 878.64258 C 303.48195 875.99426 303.14334 872.78784 302.5957 869.13281 C 304.8739 869.68097 306.75675 870.52069 307.92578 871.64258 C 306.70038 870.442 304.82469 869.49789 302.54688 868.81445 C 300.59922 856.00604 296.10184 837.83144 286.73242 819.04297 z M 286.73242 837.5957 C 292.11387 848.38714 295.48375 858.92331 297.53516 867.80273 C 290.84815 866.99697 282.65452 867.84003 276.52734 870.50391 C 276.5267 870.50395 276.52604 870.50387 276.52539 870.50391 C 276.11718 870.52952 275.71239 870.56065 275.3125 870.59766 C 277.27932 861.17918 280.7747 849.54273 286.73242 837.5957 z M 295.96289 868.37695 C 296.54262 868.38249 297.11655 868.40459 297.68164 868.4375 C 298.24844 870.94524 298.70757 873.30996 299.07812 875.50977 C 298.40911 875.08369 297.78932 874.70185 297.22852 874.37305 C 293.36078 872.25884 288.32572 871.02013 283.28711 870.5918 C 287.03334 869.05797 291.65671 868.33579 295.96289 868.37695 z M 281.13867 871.61914 C 284.55797 872.07632 287.87531 873.00899 290.51367 874.45117 C 292.70738 875.73734 295.98813 877.96202 299.88086 881.08203 C 300.25423 884.25404 300.40951 886.85231 300.42188 888.70117 C 300.40631 889.36759 300.3484 890.05203 300.25977 890.74609 C 298.60988 892.55614 296.81291 894.12423 294.96094 895.25195 C 292.40806 896.70318 288.05418 898.78182 282.30469 900.89258 C 280.02028 899.86711 278.16884 898.92843 276.82422 898.16406 C 276.09312 897.71888 275.36912 897.20448 274.66016 896.63477 C 273.70138 893.94529 273.09954 891.20668 273.04102 888.70117 C 273.05908 885.99947 273.37954 881.71177 274.24609 876.34375 C 277.04284 874.22104 279.41053 872.6412 281.13867 871.61914 z M 269.71484 879.96875 C 269.65529 881.07333 269.62488 882.06707 269.61914 882.92578 C 269.70374 886.54707 270.69283 890.55729 272.23438 894.41211 C 269.30687 891.4046 266.79078 887.58489 265.19922 883.94531 C 266.75799 882.50807 268.26789 881.1849 269.71484 879.96875 z M 264.80469 884.3125 C 266.74025 889.55719 270.40288 895.3647 274.74805 899.70508 C 275.34692 900.78676 275.98061 901.83043 276.64062 902.82227 C 267.72298 905.63946 256.46308 908.1792 243.85742 908.94922 C 250.57543 898.79771 258.09269 890.5503 264.80469 884.3125 z M 303.76562 884.33008 C 304.01811 884.54988 304.27163 884.77389 304.52734 885 C 304.19097 885.55862 303.83611 886.11151 303.4668 886.6582 C 303.60016 885.87188 303.70199 885.09407 303.76562 884.33008 z M 305.14844 885.54883 C 312.30153 891.9544 320.59098 900.77289 327.92773 911.85938 C 315.15085 911.0789 303.75737 908.47958 294.7832 905.61719 C 298.25566 901.30015 301.32978 895.33913 302.84766 889.53711 C 303.69411 888.22559 304.46488 886.88646 305.14844 885.54883 z M 299.63867 893.92773 C 298.5869 897.98501 296.58066 902.14531 294.23828 905.44336 C 291.89752 904.68581 289.72896 903.91379 287.74805 903.15234 C 289.29273 902.40107 290.60641 901.71004 291.66992 901.10547 C 294.49795 899.38341 297.22911 896.84303 299.63867 893.92773 z M 276.90625 901.68359 C 277.21634 901.94405 277.52924 902.19451 277.84375 902.4375 C 277.69834 902.48494 277.54908 902.53276 277.40234 902.58008 C 277.23331 902.28467 277.06853 901.98617 276.90625 901.68359 z "
       transform="scale(0.26458333)" />
    <path
       id="path846-1"
       style="fill:#4f2683;fill-opacity:1;stroke-width:0.276003"
       d="m 86.991135,9.9304957 c -3.055831,-0.01294 -6.178203,0.3882313 -9.11934,1.1472173 2.001891,7.203919 6.43042,14.27583 12.165149,17.590656 4.16317,2.400589 8.98016,2.905766 12.941326,1.554428 -3.150876,2.754807 -5.122136,7.178571 -5.124746,11.984283 0.003,6.623833 3.913546,13.994955 9.151376,19.330601 5.23784,-5.335646 9.14798,-12.706768 9.15138,-19.330601 -0.003,-4.78762 -1.95893,-9.196337 -5.0891,-11.953277 3.95824,1.344742 8.76809,0.837864 12.92583,-1.559594 5.73473,-3.314827 10.16275,-10.386738 12.16464,-17.590656 -7.23973,-1.868275 -15.57791,-1.569031 -21.31601,1.739945 -4.17332,2.412486 -7.02409,6.348227 -7.82434,10.468094 -0.79333,-4.129228 -3.64696,-8.076412 -7.828976,-10.493934 -3.407,-1.964703 -7.73097,-2.8682523 -12.197189,-2.8871623 z" />
    <path
       id="path846-1-5"
       style="fill:#ffffff;fill-opacity:1;stroke-width:0.207002"
       d="m 91.997034,14.416925 c -2.291888,-0.0097 -4.633658,0.291173 -6.839518,0.860413 1.50142,5.402938 4.82282,10.706872 9.123868,13.192991 3.12238,1.800442 6.735116,2.179325 9.705996,1.165821 -2.36316,2.066106 -3.8416,5.383929 -3.84356,8.988213 0.002,4.967874 2.93516,10.496216 6.86353,14.497951 3.92838,-4.001735 6.86099,-9.530077 6.86354,-14.497951 -0.002,-3.590715 -1.4692,-6.897253 -3.81683,-8.964958 2.96868,1.008556 6.57607,0.628398 9.69438,-1.169696 4.30104,-2.48612 7.62206,-7.790053 9.12348,-13.192991 -5.4298,-1.401207 -11.68344,-1.176774 -15.98701,1.304958 -3.12999,1.809365 -5.26807,4.761171 -5.86826,7.85107 -0.59499,-3.096921 -2.73522,-6.057308 -5.87173,-7.87045 -2.555246,-1.473527 -5.798226,-2.151189 -9.147886,-2.165371 z" />
    <path
       id="path846-1-5-5"
       style="fill:#4f2683;fill-opacity:1;stroke-width:0.155252"
       d="m 95.770824,17.752685 c -1.71891,-0.0073 -3.47524,0.21838 -5.129638,0.64531 1.126068,4.052203 3.617118,8.030154 6.842898,9.894743 2.34179,1.350332 5.051336,1.634494 7.279496,0.874366 -1.77237,1.549579 -2.8812,4.037947 -2.88267,6.74116 0.001,3.725905 2.20137,7.872162 5.14765,10.873463 2.94629,-3.001301 5.14574,-7.147558 5.14766,-10.873463 -0.001,-2.693037 -1.1019,-5.17294 -2.86263,-6.723719 2.22651,0.756417 4.93206,0.471299 7.27079,-0.877272 3.22578,-1.86459 5.71654,-5.84254 6.84261,-9.894743 -4.07235,-1.050905 -8.76258,-0.882581 -11.99026,0.978718 -2.34749,1.357024 -3.95105,3.570879 -4.40119,5.888303 -0.44625,-2.322691 -2.05142,-4.542981 -4.4038,-5.902838 -1.91644,-1.105145 -4.348666,-1.613391 -6.860916,-1.624028 z" />
    <path
       id="path846-1-5-5-4"
       style="fill:#ffffff;fill-opacity:1;stroke-width:0.116439"
       d="m 98.600344,20.253088 c -1.28919,-0.0055 -2.60643,0.163785 -3.84723,0.483982 0.84455,3.039153 2.71284,6.022616 5.13217,7.421058 1.756336,1.012749 3.788506,1.22587 5.459626,0.655774 -1.32928,1.162184 -2.1609,3.02846 -2.16201,5.05587 7.5e-4,2.794429 1.65103,5.904122 3.86074,8.155097 2.20972,-2.250975 3.85931,-5.360668 3.86075,-8.155097 -7.5e-4,-2.019778 -0.82643,-3.879705 -2.14698,-5.042789 1.66989,0.567313 3.69905,0.353474 5.4531,-0.657954 2.41933,-1.398443 4.2874,-4.381905 5.13195,-7.421057 -3.05426,-0.788179 -6.57193,-0.661936 -8.99269,0.734038 -1.76062,1.017768 -2.96329,2.678159 -3.30089,4.416227 -0.33469,-1.742018 -1.53857,-3.407235 -3.30285,-4.427128 -1.43733,-0.828859 -3.26151,-1.210043 -5.145686,-1.218021 z" />
    <path
       id="path1965-9-8"
       style="fill:#4f2683;fill-opacity:1;stroke-width:0.264583"
       d="m 9.4013084,185.02643 c 12.2998706,-0.97506 11.5347706,-0.93823 18.3811206,-4.61803 6.61027,-4.08911 6.57481,-6.90467 7.43817,-10.28912 -3.36271,-0.94451 -5.78354,-2.38299 -12.62995,1.29712 -6.60998,4.0892 -6.19499,3.44557 -13.1893406,13.61003 z M 35.220599,170.11928 c 2.49932,-2.43994 4.95542,-3.81699 5.19155,-11.5862 -0.23635,-7.76901 0.11427,-7.08801 -5.19123,-18.22753 -5.3055,11.13952 -4.9556,10.45831 -5.19196,18.22732 0.23614,7.76922 2.69231,9.14648 5.19164,11.58641 z m 0,0 c 0.86336,3.38445 0.82813,6.19997 7.43838,10.28908 6.84634,3.67981 6.08115,3.6427 18.38102,4.61776 -6.99436,-10.16446 -6.57962,-9.52035 -13.18961,-13.60955 -6.8464,-3.6801 -9.26708,-2.24181 -12.62979,-1.29729 z" />
    <path
       id="path1965-3-5-7"
       style="fill:#807f83;fill-opacity:1;stroke-width:0.198437"
       d="m 15.890009,181.22382 c 9.2249,-0.7313 8.65108,-0.70367 13.78584,-3.46352 4.9577,-3.06684 4.93111,-5.17851 5.57863,-7.71684 -2.52204,-0.70839 -4.33765,-1.78725 -9.47247,0.97284 -4.95748,3.0669 -4.64624,2.58418 -9.892,10.20752 z m 19.36447,-11.18036 c 1.87449,-1.82996 3.71656,-2.86275 3.89366,-8.68965 -0.17727,-5.82676 0.0857,-5.31601 -3.89342,-13.67065 -3.97913,8.35464 -3.71671,7.84373 -3.89397,13.67049 0.1771,5.82691 2.01923,6.85986 3.89373,8.68981 z m 0,0 c 0.64752,2.53833 0.62109,4.64997 5.57879,7.71681 5.13475,2.75985 4.56086,2.73202 13.78576,3.46332 -5.24577,-7.62335 -4.93471,-7.14027 -9.89221,-10.20717 -5.1348,-2.76007 -6.95031,-1.68135 -9.47234,-0.97296 z" />
    <path
       id="path846-1-2"
       style="fill:#4f2683;fill-opacity:1;stroke-width:0.276003"
       d="m 15.336169,152.70459 c -3.05583,-0.0129 -6.1782006,0.38823 -9.1193406,1.14721 2.00189,7.20392 6.4304206,14.27583 12.1651506,17.59066 4.16317,2.40059 8.98016,2.90576 12.94133,1.55443 -3.15088,2.7548 -5.12214,7.17857 -5.12475,11.98428 0.003,6.62383 3.91355,13.99495 9.15138,19.3306 5.23784,-5.33565 9.14798,-12.70677 9.15138,-19.3306 -0.003,-4.78762 -1.95893,-9.19634 -5.0891,-11.95328 3.95824,1.34475 8.76809,0.83787 12.92583,-1.55959 5.73473,-3.31483 10.16275,-10.38674 12.16464,-17.59066 -7.23973,-1.86827 -15.57791,-1.56903 -21.31601,1.73995 -4.17332,2.41248 -7.02409,6.34822 -7.82434,10.46809 -0.79333,-4.12923 -3.64696,-8.07641 -7.82898,-10.49393 -3.407,-1.9647 -7.73097,-2.86825 -12.19719,-2.88716 z" />
    <path
       id="path846-1-5-8"
       style="fill:#ffffff;fill-opacity:1;stroke-width:0.207002"
       d="m 20.342069,157.19101 c -2.29189,-0.01 -4.63366,0.29118 -6.83952,0.86042 1.50142,5.40294 4.82282,10.70687 9.12387,13.19299 3.12238,1.80044 6.73512,2.17932 9.706,1.16582 -2.36316,2.06611 -3.8416,5.38393 -3.84356,8.98821 0.002,4.96788 2.93516,10.49622 6.86353,14.49795 3.92838,-4.00173 6.86099,-9.53007 6.86354,-14.49795 -0.002,-3.59071 -1.4692,-6.89725 -3.81683,-8.96496 2.96868,1.00856 6.57607,0.6284 9.69438,-1.16969 4.30104,-2.48612 7.62206,-7.79005 9.12348,-13.19299 -5.4298,-1.40121 -11.68344,-1.17678 -15.98701,1.30496 -3.12999,1.80936 -5.26807,4.76117 -5.86826,7.85107 -0.59499,-3.09692 -2.73522,-6.05731 -5.87173,-7.87045 -2.55525,-1.47353 -5.79823,-2.15119 -9.14789,-2.16538 z" />
    <path
       id="path846-1-5-5-3"
       style="fill:#4f2683;fill-opacity:1;stroke-width:0.155252"
       d="m 24.115859,160.52678 c -1.71891,-0.007 -3.47524,0.21838 -5.12964,0.64531 1.12607,4.0522 3.61712,8.03015 6.8429,9.89474 2.34179,1.35033 5.05134,1.63449 7.2795,0.87436 -1.77237,1.54958 -2.8812,4.03795 -2.88267,6.74116 0.001,3.72591 2.20137,7.87217 5.14765,10.87347 2.94629,-3.0013 5.14574,-7.14756 5.14766,-10.87347 -10e-4,-2.69303 -1.1019,-5.17294 -2.86263,-6.72372 2.22651,0.75642 4.93206,0.4713 7.27079,-0.87727 3.22578,-1.86459 5.71654,-5.84254 6.84261,-9.89474 -4.07235,-1.0509 -8.76258,-0.88258 -11.99026,0.97872 -2.34749,1.35702 -3.95105,3.57088 -4.40119,5.8883 -0.44625,-2.32269 -2.05142,-4.54298 -4.4038,-5.90284 -1.91644,-1.10514 -4.34867,-1.61339 -6.86092,-1.62402 z" />
    <path
       id="path846-1-5-5-4-2"
       style="fill:#ffffff;fill-opacity:1;stroke-width:0.116439"
       d="m 26.945379,163.02718 c -1.28919,-0.006 -2.60643,0.16378 -3.84723,0.48398 0.84455,3.03915 2.71284,6.02262 5.13217,7.42106 1.75634,1.01275 3.78851,1.22587 5.45963,0.65577 -1.32928,1.16219 -2.1609,3.02846 -2.16201,5.05587 7.5e-4,2.79443 1.65103,5.90412 3.86074,8.1551 2.20972,-2.25098 3.85931,-5.36067 3.86075,-8.1551 -7.5e-4,-2.01978 -0.82643,-3.8797 -2.14698,-5.04279 1.66989,0.56732 3.69905,0.35348 5.4531,-0.65795 2.41933,-1.39844 4.2874,-4.38191 5.13195,-7.42106 -3.05426,-0.78818 -6.57193,-0.66193 -8.99269,0.73404 -1.76062,1.01777 -2.96329,2.67816 -3.30089,4.41623 -0.33469,-1.74202 -1.53857,-3.40724 -3.30285,-4.42713 -1.43733,-0.82886 -3.26151,-1.21004 -5.14569,-1.21802 z" />
    <path
       id="path1600"
       style="fill:#4f2683;fill-opacity:1;fill-rule:nonzero;stroke-width:0.25644"
       d="m 14.281048,215.40089 c -4.7541948,7.33245 -5.864487,14.31512 -5.8869793,16.90233 0.093149,3.06678 3.3697173,7.18863 5.8869793,7.64191 2.517262,-0.45328 5.79383,-4.57513 5.886979,-7.64191 -0.02249,-2.58721 -1.132784,-9.56988 -5.886979,-16.90233 z" />
    <path
       id="path1600-3"
       style="fill:#4f2683;fill-opacity:1;fill-rule:nonzero;stroke-width:0.25644"
       d="m 15.08125,241.86017 c -4.754195,7.33245 -5.8644869,14.31512 -5.8869789,16.90233 0.09315,3.06678 3.3697169,7.18863 5.8869789,7.64191 2.517262,-0.45328 5.79383,-4.57513 5.886979,-7.64191 -0.02249,-2.58721 -1.132784,-9.56988 -5.886979,-16.90233 z" />
    <path
       id="path1600-3-4"
       style="fill:#ffffff;fill-opacity:1;fill-rule:nonzero;stroke-width:0.205152"
       d="m 15.478125,247.29116 c -3.803356,5.86596 -4.69159,11.4521 -4.709583,13.52187 0.07452,2.45342 2.695773,5.7509 4.709583,6.11353 2.01381,-0.36263 4.635064,-3.66011 4.709583,-6.11353 -0.01799,-2.06977 -0.906227,-7.65591 -4.709583,-13.52187 z" />
    <path
       id="path1600-4"
       style="fill:#ffffff;fill-opacity:1;fill-rule:nonzero;stroke-width:0.19233"
       d="m 15.174017,221.87542 c -3.565646,5.49934 -4.398365,10.73634 -4.415235,12.67675 0.06986,2.30008 2.527288,5.39147 4.415235,5.73143 1.887946,-0.33996 4.345372,-3.43135 4.415234,-5.73143 -0.01687,-1.94041 -0.849589,-7.17741 -4.415234,-12.67675 z" />
    <path
       id="path1600-3-7"
       style="fill:#4f2683;fill-opacity:1;fill-rule:nonzero;stroke-width:0.278866"
       d="m 32.427778,223.34284 c -5.622061,7.33245 -6.935034,14.31512 -6.961632,16.90233 0.110154,3.06678 3.98485,7.18863 6.961632,7.64191 2.976782,-0.45328 6.851479,-4.57513 6.961632,-7.64191 -0.0266,-2.58721 -1.339571,-9.56988 -6.961632,-16.90233 z" />
    <path
       id="path1600-3-4-4"
       style="fill:#ffffff;fill-opacity:1;fill-rule:nonzero;stroke-width:0.223093"
       d="m 32.897101,228.77383 c -4.497648,5.86596 -5.548027,11.4521 -5.569305,13.52187 0.08812,2.45342 3.18788,5.7509 5.569305,6.11353 2.381426,-0.36263 5.481183,-3.66011 5.569306,-6.11353 -0.02127,-2.06977 -1.071657,-7.65591 -5.569306,-13.52187 z" />
    <path
       id="path1600-3-4-4-5"
       style="fill:#ffffff;fill-opacity:1;fill-rule:nonzero;stroke-width:0.843186"
       d="M 240.78125 848.0332 C 236.1497 848.05131 231.21714 848.35531 226.02344 849.03711 C 236.72421 874.84395 253.02527 888.83926 259.75977 892.82031 C 262.17329 894.10052 265.32137 894.65979 268.70508 894.63672 C 265.92474 898.39226 264.04073 902.5168 263.91016 906.15234 C 263.99058 913.9751 267.96 935.08726 284.95898 957.25781 C 301.95797 935.08726 305.92742 913.9751 306.00781 906.15234 C 305.90973 903.42173 304.81961 900.41526 303.10742 897.49609 C 307.75052 898.02644 312.26439 897.59745 315.47852 895.89258 C 322.21302 891.91156 338.51212 877.91622 349.21289 852.10938 C 321.51313 848.47309 301.2446 855.59189 294.42969 859.43359 C 292.11372 860.88399 290.05488 863.33066 288.38281 866.27344 C 286.52056 861.98727 283.89209 858.29239 280.80859 856.36133 C 275.27149 853.23992 260.85128 847.95474 240.78125 848.0332 z "
       transform="scale(0.26458333)" />
    <path
       id="path1600-3-7-2"
       style="fill:#4f2683;fill-opacity:1;fill-rule:nonzero;stroke-width:0.278866"
       d="m 75.864586,258.70528 c 5.62205,-7.33246 6.93524,-14.3151 6.96184,-16.90233 -0.0816,-2.2714 -2.22854,-5.1203 -4.54597,-6.63009 1.45177,1.2673 2.63023,3.08044 2.68407,4.57957 -0.0213,2.06978 -1.07152,7.65622 -5.56917,13.52219 -4.49765,-5.86597 -5.54789,-11.45241 -5.56916,-13.52219 0.0128,-0.35595 0.0889,-0.72957 0.21704,-1.10948 -0.67029,1.05682 -1.10472,2.16392 -1.1405,3.16 0.0266,2.58723 1.33979,9.56987 6.96185,16.90233 z" />
    <path
       id="path1600-3-7-2-8"
       style="fill:#4f2683;fill-opacity:1;fill-rule:nonzero;stroke-width:0.278866"
       d="m 96.864586,222.33221 c -9.16113,-1.20262 -15.86487,1.15145 -18.11877,2.42204 -1.92629,1.20636 -3.32004,4.49012 -3.46884,7.25197 0.37163,-1.89092 1.35263,-3.81807 2.62399,-4.61426 1.80313,-1.01645 7.16624,-2.90015 14.49514,-1.93805 -2.83125,6.82806 -7.14413,10.53081 -8.92598,11.58412 -0.31466,0.16689 -0.67627,0.2878 -1.06935,0.36678 1.25037,0.0521 2.42637,-0.12524 3.30689,-0.5923 2.2273,-1.31665 7.61785,-5.94522 11.15692,-14.4803 z" />
    <path
       id="path1600-3-7-2-8-6"
       style="fill:#4f2683;fill-opacity:1;fill-rule:nonzero;stroke-width:0.16732"
       d="m 89.783502,226.8578 c -5.49668,-0.72157 -9.51893,0.69087 -10.87127,1.45323 -1.155773,0.72381 -1.992023,2.69407 -2.081303,4.35118 0.222978,-1.13455 0.811578,-2.29084 1.574393,-2.76856 1.08188,-0.60987 4.29975,-1.74009 8.69709,-1.16283 -1.69875,4.09684 -4.28648,6.31849 -5.35559,6.95047 -0.1888,0.10014 -0.40576,0.17268 -0.64161,0.22007 0.75022,0.0313 1.45582,-0.0751 1.98414,-0.35538 1.33638,-0.78999 4.57071,-3.56713 6.69415,-8.68818 z" />
    <path
       id="path1600-3-7-2-7"
       style="fill:#4f2683;fill-opacity:1;fill-rule:nonzero;stroke-width:0.278866"
       d="m 54.864587,222.33222 c 3.53907,8.53507 8.92961,13.16365 11.15692,14.48029 2.00789,1.06504 5.54858,0.63018 8.01481,-0.62188 -1.82339,0.62362 -3.98285,0.73763 -5.30805,0.0347 -1.78184,-1.05333 -6.09473,-4.75607 -8.92598,-11.58414 7.3289,-0.96209 12.69202,0.9216 14.49514,1.93807 0.30186,0.18906 0.58738,0.44177 0.85232,0.7427 -0.58009,-1.1089 -1.32165,-2.03868 -2.16639,-2.5677 -2.25391,-1.27058 -8.95765,-3.62465 -18.11877,-2.42203 z" />
    <path
       id="path1600-3-7-2-7-1"
       style="fill:#4f2683;fill-opacity:1;fill-rule:nonzero;stroke-width:0.16732"
       d="m 62.324404,226.20181 c 2.123442,5.12104 5.357766,7.89819 6.694152,8.68818 1.204734,0.63902 3.329148,0.3781 4.808886,-0.37313 -1.094034,0.37417 -2.38971,0.44258 -3.18483,0.0208 -1.069104,-0.632 -3.656838,-2.85364 -5.355588,-6.95049 4.39734,-0.57725 7.615212,0.55296 8.697084,1.16285 0.181116,0.11343 0.352428,0.26506 0.511392,0.44562 -0.348054,-0.66534 -0.79299,-1.22321 -1.299834,-1.54062 -1.352346,-0.76235 -5.37459,-2.17479 -10.871262,-1.45322 z" />
    <path
       id="path1600-3-7-2-1"
       style="fill:#4f2683;fill-opacity:1;fill-rule:nonzero;stroke-width:0.16732"
       d="m 75.485839,250.31009 c 3.373229,-4.39948 4.161143,-8.58906 4.177103,-10.1414 -0.04896,-1.36284 -1.337123,-3.07218 -2.727581,-3.97806 0.871062,0.76038 1.578137,1.84827 1.610441,2.74775 -0.01278,1.24186 -0.642911,4.59373 -3.341501,8.11331 -2.69859,-3.51958 -3.328734,-6.87145 -3.341496,-8.11331 0.0077,-0.21357 0.05334,-0.43775 0.130224,-0.66569 -0.402174,0.63409 -0.662832,1.29835 -0.6843,1.896 0.01596,1.55234 0.803874,5.74192 4.17711,10.1414 z" />
    <path
       id="path1600-3-7-2-1-0"
       style="fill:#4f2683;fill-opacity:1;fill-rule:nonzero;stroke-width:0.16732"
       d="m 75.485839,250.31009 c -3.373229,-4.39948 -4.161143,-8.58906 -4.177103,-10.1414 0.04896,-1.36284 1.337123,-3.07218 2.727581,-3.97806 -0.871062,0.76038 -1.578137,1.84827 -1.610441,2.74775 0.01278,1.24186 0.642911,4.59373 3.341501,8.11331 2.69859,-3.51958 3.328734,-6.87145 3.341496,-8.11331 -0.0077,-0.21357 -0.05334,-0.43775 -0.130224,-0.66569 0.402174,0.63409 0.662832,1.29835 0.6843,1.896 -0.01596,1.55234 -0.803874,5.74192 -4.17711,10.1414 z" />
    <path
       id="path1600-3-7-2-1-0-0"
       style="fill:#4f2683;fill-opacity:1;fill-rule:nonzero;stroke-width:0.16732"
       d="m 89.783502,226.85781 c -2.12344,5.12104 -5.35777,7.89818 -6.69415,8.68818 -1.204739,0.63901 -3.329152,0.3781 -4.808896,-0.37313 1.094039,0.37417 2.389717,0.44257 3.184842,0.0208 1.069092,-0.632 3.656834,-2.85364 5.355584,-6.95048 -4.397343,-0.57726 -7.61522,0.55296 -8.697083,1.16283 -0.181107,0.11346 -0.352433,0.26507 -0.511392,0.44563 0.348051,-0.66534 0.792988,-1.22321 1.299834,-1.54063 1.352346,-0.76234 5.374581,-2.17478 10.871261,-1.45321 z" />
    <path
       id="path1600-3-7-2-1-0-0-1"
       style="fill:#4f2683;fill-opacity:1;fill-rule:nonzero;stroke-width:0.16732"
       d="m 62.324404,226.20181 c 5.496676,-0.72156 9.518915,0.69088 10.871261,1.45322 1.155774,0.72383 1.992025,2.69408 2.081311,4.35119 -0.222978,-1.13455 -0.81158,-2.29084 -1.574401,-2.76856 -1.081872,-0.60986 -4.299742,-1.74009 -8.697083,-1.16283 1.698751,4.09684 4.286483,6.31849 5.355584,6.95048 0.188808,0.10011 0.405773,0.17268 0.641617,0.22006 -0.750225,0.0312 -1.45582,-0.0751 -1.984134,-0.35537 -1.336386,-0.79 -4.570712,-3.56714 -6.694155,-8.68819 z" />
    <rect
       style="opacity:0.6;fill:#807f83;fill-opacity:1;fill-rule:nonzero;stroke-width:0.264583"
       id="rect8254"
       width="42"
       height="2.3311889"
       x="54.864586"
       y="220.00102" />
    <rect
       style="opacity:0.6;fill:#807f83;fill-opacity:1;fill-rule:nonzero;stroke-width:0.264583"
       id="rect8254-2"
       width="42"
       height="2.3311889"
       x="144.11305"
       y="-197.38449"
       transform="rotate(120)" />
    <rect
       style="opacity:0.6;fill:#807f83;fill-opacity:1;fill-rule:nonzero;stroke-width:0.264583"
       id="rect8254-2-3"
       width="42"
       height="2.3311889"
       x="219.97765"
       y="63.651989"
       transform="rotate(60)" />
    <rect
       style="opacity:0.6;fill:#807f83;fill-opacity:1;fill-rule:nonzero;stroke-width:0.307442"
       id="rect8808"
       width="0.44433272"
       height="42"
       x="75.42025"
       y="216.70528" />
    <path
       id="path1600-3-7-2-14"
       style="fill:#4f2683;fill-opacity:1;fill-rule:nonzero;stroke-width:0.278866"
       d="m 168.47284,206.66473 c -1.53179,0.006 -3.16261,0.10627 -4.88032,0.33176 3.53907,8.53507 8.92912,13.16361 11.15643,14.48025 2.00789,1.06504 5.54878,0.63039 8.01501,-0.62167 -1.82339,0.62362 -3.983,0.73756 -5.3082,0.0346 -1.78184,-1.05333 -6.0943,-4.75624 -8.92556,-11.58431 7.3289,-0.96209 12.69161,0.92191 14.49473,1.93838 0.30186,0.18906 0.58772,0.44166 0.85266,0.7426 -0.58009,-1.10891 -1.32206,-2.03879 -2.16679,-2.56781 -1.83131,-1.03234 -6.60019,-2.77983 -13.23796,-2.75383 z m 14.29112,14.19034 c -0.97012,0.63203 -1.88961,1.65522 -2.37401,2.67891 -0.002,0.004 -0.004,0.008 -0.006,0.0119 -0.0683,0.14535 -0.12769,0.2904 -0.17725,0.43459 -0.006,0.0166 -0.0116,0.0331 -0.0171,0.0496 -0.004,0.0131 -0.008,0.0262 -0.0124,0.0393 -0.009,0.0286 -0.0176,0.0573 -0.0258,0.0858 -0.005,0.0181 -0.0101,0.0362 -0.015,0.0543 -0.007,0.025 -0.0135,0.05 -0.0196,0.0749 -0.004,0.0174 -0.008,0.0348 -0.0124,0.0522 -0.005,0.0234 -0.0102,0.047 -0.015,0.0703 -0.004,0.0213 -0.009,0.0424 -0.0124,0.0636 -0.003,0.0183 -0.006,0.0365 -0.009,0.0548 -0.004,0.0228 -0.007,0.0456 -0.0103,0.0682 -0.004,0.0298 -0.007,0.0593 -0.0103,0.0889 -8.4e-4,0.008 -0.002,0.0169 -0.003,0.0253 -0.004,0.042 -0.007,0.0842 -0.008,0.12557 0.016,1.55235 0.80377,5.74203 4.177,10.1415 3.37324,-4.39947 4.16105,-8.58915 4.17701,-10.1415 -0.002,-0.0424 -0.004,-0.0856 -0.008,-0.12867 -6.6e-4,-0.007 -0.002,-0.0148 -0.003,-0.0222 -0.003,-0.0296 -0.006,-0.0591 -0.0103,-0.0889 -0.003,-0.0226 -0.007,-0.0455 -0.0103,-0.0682 -0.003,-0.0183 -0.006,-0.0364 -0.009,-0.0548 -0.004,-0.0235 -0.009,-0.0471 -0.0134,-0.0708 -0.003,-0.0168 -0.007,-0.0337 -0.0108,-0.0506 -0.005,-0.0229 -0.0103,-0.0457 -0.016,-0.0687 -0.005,-0.0199 -0.0101,-0.0399 -0.0155,-0.0599 -0.0594,-0.222 -0.1448,-0.44806 -0.25114,-0.67437 -0.002,-0.004 -0.004,-0.008 -0.006,-0.0119 -0.4844,-1.02369 -1.4039,-2.04688 -2.37401,-2.67891 0.87106,0.76038 1.57793,1.84816 1.61024,2.74764 -0.0123,1.19743 -0.59863,4.35678 -3.05977,7.73648 -2.46109,-3.37968 -3.04742,-6.53906 -3.05976,-7.73648 0.0323,-0.89948 0.73918,-1.98726 1.61024,-2.74764 z m 17.94774,-14.19034 c -6.63777,-0.026 -11.40666,1.72148 -13.23795,2.75383 -1.92629,1.20636 -3.32024,4.48991 -3.46904,7.25176 0.37163,-1.89092 1.35277,-3.818 2.62413,-4.61419 1.80313,-1.01645 7.16582,-2.89997 14.49472,-1.93787 -2.83125,6.82806 -7.1437,10.531 -8.92555,11.58431 -0.31466,0.16689 -0.67662,0.2874 -1.0697,0.36638 1.25037,0.0521 2.42677,-0.12515 3.30729,-0.59221 2.2273,-1.31665 7.61735,-5.94517 11.15642,-14.48025 -1.71771,-0.22549 -3.34853,-0.32577 -4.88032,-0.33176 z m -16.70699,10.00559 c -0.0501,-0.93013 -0.33616,-1.95852 -0.78135,-2.81017 -0.0653,-0.12502 -0.13419,-0.24573 -0.20618,-0.36225 -0.024,-0.0388 -0.0482,-0.077 -0.0729,-0.11472 -0.0247,-0.0377 -0.0496,-0.075 -0.0749,-0.11162 -0.0253,-0.0365 -0.051,-0.0727 -0.077,-0.10801 -0.0259,-0.0353 -0.052,-0.0699 -0.0786,-0.10387 -0.0534,-0.0683 -0.10791,-0.134 -0.16381,-0.19688 -0.0169,-0.019 -0.0341,-0.0374 -0.0512,-0.0558 -0.0154,-0.0166 -0.0304,-0.0334 -0.046,-0.0496 -0.0129,-0.0134 -0.0263,-0.0262 -0.0393,-0.0393 -0.0186,-0.0188 -0.0375,-0.0372 -0.0563,-0.0553 -0.0127,-0.0122 -0.0254,-0.0243 -0.0382,-0.0362 -0.018,-0.0168 -0.036,-0.0335 -0.0543,-0.0496 -0.0139,-0.0123 -0.0278,-0.0247 -0.0419,-0.0367 -0.0225,-0.0192 -0.0454,-0.0376 -0.0682,-0.0558 -0.006,-0.005 -0.0124,-0.0101 -0.0186,-0.015 -0.003,-0.002 -0.006,-0.004 -0.008,-0.006 -0.0284,-0.0221 -0.057,-0.043 -0.0858,-0.0636 -0.004,-0.003 -0.007,-0.006 -0.0114,-0.009 -8.2e-4,-5.8e-4 -0.002,-9.7e-4 -0.003,-0.002 -0.0346,-0.0244 -0.0697,-0.0482 -0.1049,-0.0703 -0.92975,-0.52412 -3.12104,-1.35509 -6.18619,-1.58905 -0.13932,-0.0106 -0.28085,-0.0203 -0.42375,-0.0284 -1.00028,-0.0566 -2.0868,-0.0486 -3.24786,0.0532 -0.16587,0.0146 -0.33344,0.0312 -0.5023,0.0496 -0.16885,0.0185 -0.33931,0.0389 -0.51108,0.0615 0.53086,1.28026 1.1312,2.41418 1.7539,3.40703 0.0778,0.1241 0.15617,0.24615 0.23461,0.36587 0.0785,0.11971 0.15729,0.23709 0.23616,0.35243 1.73519,2.53752 3.55073,4.01991 4.4695,4.56303 0.0358,0.019 0.0727,0.0369 0.11007,0.0543 0.0119,0.006 0.0241,0.0111 0.0362,0.0165 0.0241,0.0108 0.0482,0.0214 0.0729,0.0315 0.0192,0.008 0.0388,0.0152 0.0584,0.0227 0.0217,0.008 0.0435,0.0165 0.0656,0.0243 0.0125,0.004 0.0251,0.009 0.0377,0.0129 0.032,0.0109 0.0643,0.0211 0.0972,0.031 0.009,0.003 0.0189,0.006 0.0284,0.009 0.029,0.008 0.0583,0.0165 0.0879,0.0243 0.0167,0.004 0.0333,0.009 0.0501,0.0129 0.0198,0.005 0.0399,0.009 0.06,0.0139 0.0264,0.006 0.0528,0.0121 0.0796,0.0176 0.0823,0.0169 0.16644,0.0313 0.25218,0.0434 0.0413,0.006 0.083,0.0113 0.12506,0.016 0.002,1.7e-4 0.003,3.4e-4 0.005,5.2e-4 3.4e-4,4e-5 6.9e-4,-4e-5 0.001,0 0.0434,0.005 0.0872,0.009 0.13126,0.0124 0.0433,0.004 0.0868,0.007 0.13074,0.009 0.002,1.1e-4 0.004,-10e-5 0.006,0 0.0442,0.002 0.0886,0.004 0.13332,0.006 0.0455,0.001 0.0914,0.002 0.13746,0.003 0.0923,4.7e-4 0.18511,-0.001 0.27905,-0.005 0.96015,-0.0403 1.99407,-0.30697 2.82464,-0.72864 -1.09404,0.37417 -2.3897,0.44245 -3.18482,0.0207 -1.03084,-0.60937 -3.47338,-2.69685 -5.16971,-6.51794 4.15727,-0.44145 7.18634,0.62999 8.22947,1.21801 0.76282,0.47772 1.3516,1.63376 1.57458,2.76831 z m 11.57811,-5.34748 c -0.45954,-0.002 -0.90404,0.0109 -1.33274,0.0351 -0.1429,0.008 -0.28442,0.0173 -0.42375,0.0279 -3.06516,0.23395 -5.25645,1.06544 -6.18618,1.58956 -0.0354,0.0222 -0.0707,0.0453 -0.10542,0.0698 -0.005,0.003 -0.009,0.007 -0.0134,0.0103 -0.0282,0.0201 -0.0564,0.0404 -0.0842,0.062 -0.0118,0.009 -0.0234,0.019 -0.0351,0.0284 -0.0206,0.0166 -0.0411,0.0338 -0.0615,0.0512 -0.0131,0.0112 -0.0263,0.0226 -0.0393,0.0341 -0.0169,0.0149 -0.034,0.0296 -0.0506,0.045 -0.0172,0.0159 -0.0342,0.0322 -0.0512,0.0486 -0.0173,0.0167 -0.0346,0.0339 -0.0517,0.0512 -0.0123,0.0124 -0.0245,0.025 -0.0367,0.0377 -0.0118,0.0123 -0.0235,0.0247 -0.0351,0.0372 -0.0998,0.10679 -0.19572,0.22259 -0.28784,0.34624 -0.007,0.0101 -0.0153,0.0198 -0.0227,0.03 -0.0475,0.0648 -0.0938,0.13179 -0.13901,0.2005 -0.006,0.01 -0.0127,0.0196 -0.0191,0.0295 -0.017,0.0263 -0.034,0.0528 -0.0506,0.0796 -0.009,0.014 -0.0172,0.0282 -0.0258,0.0424 -0.0175,0.0286 -0.0351,0.0572 -0.0522,0.0863 -0.003,0.006 -0.007,0.0114 -0.01,0.0171 -0.51878,0.89243 -0.85522,2.02714 -0.91002,3.04426 0.22298,-1.13455 0.81176,-2.29111 1.57458,-2.76883 1.04314,-0.58803 4.07221,-1.65946 8.22947,-1.21801 -1.69633,3.82109 -4.13888,5.90857 -5.16971,6.51795 -0.79512,0.42177 -2.09078,0.3535 -3.18481,-0.0207 1.03358,0.52472 2.38137,0.81005 3.51089,0.71675 0.003,-2.3e-4 0.005,-8e-4 0.008,-10e-4 0.17426,-0.0147 0.34359,-0.038 0.5054,-0.0713 0.003,-5.3e-4 0.005,-0.001 0.008,-0.002 0.0214,-0.004 0.0424,-0.01 0.0636,-0.0145 0.0216,-0.005 0.0433,-0.01 0.0646,-0.015 0.023,-0.006 0.0456,-0.0115 0.0682,-0.0176 0.0188,-0.005 0.0377,-0.0102 0.0563,-0.0155 0.0233,-0.007 0.0464,-0.0135 0.0692,-0.0207 0.0177,-0.006 0.0352,-0.0113 0.0527,-0.0171 0.025,-0.008 0.0499,-0.017 0.0744,-0.0258 0.0128,-0.005 0.0256,-0.009 0.0382,-0.0139 0.0236,-0.009 0.0472,-0.0179 0.0703,-0.0274 0.0351,-0.0144 0.0695,-0.0293 0.10335,-0.045 0.002,-9.1e-4 0.004,-0.002 0.006,-0.003 0.0373,-0.0174 0.0743,-0.0353 0.11007,-0.0543 0.91876,-0.54312 2.73431,-2.0255 4.4695,-4.56303 0.0789,-0.11534 0.15771,-0.23272 0.23616,-0.35243 0.70603,-1.07742 1.39129,-2.33208 1.98851,-3.77238 -1.03063,-0.13529 -2.00943,-0.19587 -2.9285,-0.19947 z m -8.57467,8.51421 c 1.45176,1.2673 2.63023,3.08043 2.68407,4.57956 -0.0213,2.06978 -1.07152,7.6562 -5.56917,13.52218 -4.49765,-5.86598 -5.5479,-11.4524 -5.56917,-13.52218 0.0128,-0.35595 0.0889,-0.72958 0.21704,-1.10949 -0.67029,1.05682 -1.10472,2.16393 -1.1405,3.16002 0.0266,2.58722 1.33979,9.56986 6.96185,16.90232 5.62205,-7.33246 6.93525,-14.3151 6.96185,-16.90232 -0.0816,-2.27141 -2.22854,-5.1203 -4.54597,-6.63009 z" />
    <rect
       style="opacity:0.6;fill:#807f83;fill-opacity:1;fill-rule:nonzero;stroke-width:0.307442"
       id="rect8808-9"
       width="0.44433272"
       height="42"
       x="240.53331"
       y="27.278915"
       transform="rotate(60)" />
    <rect
       style="opacity:0.6;fill:#807f83;fill-opacity:1;fill-rule:nonzero;stroke-width:0.307442"
       id="rect8808-3"
       width="0.44433272"
       height="42"
       x="-165.5574"
       y="158.68024"
       transform="rotate(-60)" />
    <path
       id="path1600-3-5-0"
       style="fill:#807f83;fill-opacity:1;fill-rule:nonzero;stroke-width:0.224896"
       d="m 136.51037,249.29587 c -1.60036,3.2092 -2.66084,6.34802 -3.35225,9.08369 0.5559,0.2023 1.02526,0.4037 1.39784,0.58807 0.50067,-1.51962 1.14002,-3.12993 1.95441,-4.76301 0.97795,1.96108 1.70495,3.89013 2.24017,5.66735 0.34605,-0.18101 0.79324,-0.38242 1.33119,-0.58756 -0.67826,-2.93653 -1.79131,-6.41899 -3.57136,-9.98854 z m -8.84442,18.25987 c -2.17452,2.04253 -4.58802,4.71397 -6.75101,7.98245 3.64565,-0.22267 6.94885,-0.89379 9.69346,-1.68153 -0.0916,-0.60987 -0.132,-1.11829 -0.13643,-1.50535 -1.62054,0.34713 -3.40504,0.61616 -5.30561,0.73226 1.16646,-1.76263 2.42386,-3.30681 3.65249,-4.62761 -0.33847,-0.23633 -0.72783,-0.53639 -1.1529,-0.90022 z m 17.69401,1.19681 c -0.48293,0.38489 -0.9038,0.67474 -1.23714,0.87231 1.11104,1.23026 2.23616,2.64057 3.28714,4.22867 -2.10936,-0.12885 -4.07599,-0.44495 -5.83375,-0.84851 -0.0354,0.41084 -0.10072,0.8972 -0.20309,1.44642 2.85609,0.86207 6.37523,1.61719 10.28826,1.85621 -2.01501,-3.04485 -4.2473,-5.57207 -6.30142,-7.5551 z" />
    <path
       id="path1600-3-7-2-3"
       style="fill:#4f2683;fill-opacity:1;fill-rule:nonzero;stroke-width:0.278866"
       d="m 136.51036,291.29582 c 5.62205,-7.33246 6.93524,-14.3151 6.96184,-16.90233 -0.0816,-2.2714 -2.22854,-5.1203 -4.54597,-6.63009 1.45177,1.2673 2.63023,3.08044 2.68407,4.57957 -0.0213,2.06978 -1.07152,7.65622 -5.56917,13.52219 -4.49765,-5.86597 -5.54789,-11.45241 -5.56916,-13.52219 0.0128,-0.35595 0.0889,-0.72957 0.21704,-1.10948 -0.67029,1.05682 -1.10472,2.16392 -1.1405,3.16 0.0266,2.58723 1.33979,9.56987 6.96185,16.90233 z" />
    <path
       id="path1600-3-7-2-8-4"
       style="fill:#4f2683;fill-opacity:1;fill-rule:nonzero;stroke-width:0.278866"
       d="m 157.51036,254.92275 c -9.16113,-1.20262 -15.86487,1.15145 -18.11877,2.42204 -1.92629,1.20636 -3.32004,4.49012 -3.46884,7.25197 0.37163,-1.89092 1.35263,-3.81807 2.62399,-4.61426 1.80313,-1.01645 7.16624,-2.90015 14.49514,-1.93805 -2.83125,6.82806 -7.14413,10.53081 -8.92598,11.58412 -0.31466,0.16689 -0.67627,0.2878 -1.06935,0.36678 1.25037,0.0521 2.42637,-0.12524 3.30689,-0.5923 2.2273,-1.31665 7.61785,-5.94522 11.15692,-14.4803 z" />
    <path
       id="path1600-3-7-2-8-6-2"
       style="fill:#4f2683;fill-opacity:1;fill-rule:nonzero;stroke-width:0.16732"
       d="m 150.42927,259.44834 c -5.49668,-0.72157 -9.51893,0.69087 -10.87127,1.45323 -1.15577,0.72381 -1.99202,2.69407 -2.0813,4.35118 0.22298,-1.13455 0.81158,-2.29084 1.57439,-2.76856 1.08188,-0.60987 4.29975,-1.74009 8.69709,-1.16283 -1.69875,4.09684 -4.28648,6.31849 -5.35559,6.95047 -0.1888,0.10014 -0.40576,0.17268 -0.64161,0.22007 0.75022,0.0313 1.45582,-0.0751 1.98414,-0.35538 1.33638,-0.78999 4.57071,-3.56713 6.69415,-8.68818 z" />
    <path
       id="path1600-3-7-2-7-9"
       style="fill:#4f2683;fill-opacity:1;fill-rule:nonzero;stroke-width:0.278866"
       d="m 115.51037,254.92276 c 3.53907,8.53507 8.92961,13.16365 11.15692,14.48029 2.00788,1.06504 5.54857,0.63018 8.0148,-0.62188 -1.82339,0.62362 -3.98285,0.73763 -5.30805,0.0347 -1.78184,-1.05333 -6.09472,-4.75607 -8.92597,-11.58414 7.32889,-0.96209 12.69201,0.9216 14.49513,1.93807 0.30186,0.18906 0.58738,0.44177 0.85232,0.7427 -0.58009,-1.1089 -1.32165,-2.03868 -2.16639,-2.5677 -2.25391,-1.27058 -8.95764,-3.62465 -18.11876,-2.42203 z" />
    <path
       id="path1600-3-7-2-7-1-4"
       style="fill:#4f2683;fill-opacity:1;fill-rule:nonzero;stroke-width:0.16732"
       d="m 122.97019,258.79235 c 2.12344,5.12104 5.35776,7.89819 6.69414,8.68818 1.20474,0.63902 3.32915,0.3781 4.80888,-0.37313 -1.09403,0.37417 -2.38971,0.44258 -3.18482,0.0208 -1.06911,-0.632 -3.65684,-2.85364 -5.35558,-6.95049 4.39733,-0.57725 7.6152,0.55296 8.69707,1.16285 0.18112,0.11343 0.35243,0.26506 0.51139,0.44562 -0.34805,-0.66534 -0.79299,-1.22321 -1.29983,-1.54062 -1.35235,-0.76235 -5.37459,-2.17479 -10.87125,-1.45322 z" />
    <path
       id="path1600-3-7-2-1-09"
       style="fill:#4f2683;fill-opacity:1;fill-rule:nonzero;stroke-width:0.16732"
       d="m 136.13161,282.90063 c 3.37323,-4.39948 4.16114,-8.58906 4.1771,-10.1414 -0.049,-1.36284 -1.33712,-3.07218 -2.72758,-3.97806 0.87106,0.76038 1.57814,1.84827 1.61044,2.74775 -0.0128,1.24186 -0.64291,4.59373 -3.3415,8.11331 -2.69859,-3.51958 -3.32873,-6.87145 -3.34149,-8.11331 0.008,-0.21357 0.0533,-0.43775 0.13022,-0.66569 -0.40217,0.63409 -0.66283,1.29835 -0.6843,1.896 0.016,1.55234 0.80387,5.74192 4.17711,10.1414 z" />
    <path
       id="path1600-3-7-2-1-0-2"
       style="fill:#4f2683;fill-opacity:1;fill-rule:nonzero;stroke-width:0.16732"
       d="m 136.13161,282.90063 c -3.37323,-4.39948 -4.16114,-8.58906 -4.1771,-10.1414 0.049,-1.36284 1.33712,-3.07218 2.72758,-3.97806 -0.87106,0.76038 -1.57814,1.84827 -1.61044,2.74775 0.0128,1.24186 0.64291,4.59373 3.3415,8.11331 2.69859,-3.51958 3.32873,-6.87145 3.3415,-8.11331 -0.008,-0.21357 -0.0533,-0.43775 -0.13023,-0.66569 0.40218,0.63409 0.66283,1.29835 0.6843,1.896 -0.016,1.55234 -0.80387,5.74192 -4.17711,10.1414 z" />
    <path
       id="path1600-3-7-2-1-0-0-7"
       style="fill:#4f2683;fill-opacity:1;fill-rule:nonzero;stroke-width:0.16732"
       d="m 150.42927,259.44835 c -2.12344,5.12104 -5.35777,7.89818 -6.69415,8.68818 -1.20474,0.63901 -3.32915,0.3781 -4.80889,-0.37313 1.09404,0.37417 2.38972,0.44257 3.18484,0.0208 1.06909,-0.632 3.65683,-2.85364 5.35558,-6.95048 -4.39734,-0.57726 -7.61522,0.55296 -8.69708,1.16283 -0.18111,0.11346 -0.35243,0.26507 -0.51139,0.44563 0.34805,-0.66534 0.79299,-1.22321 1.29983,-1.54063 1.35235,-0.76234 5.37458,-2.17478 10.87126,-1.45321 z" />
    <path
       id="path1600-3-7-2-1-0-0-1-1"
       style="fill:#4f2683;fill-opacity:1;fill-rule:nonzero;stroke-width:0.16732"
       d="m 122.97019,258.79235 c 5.49667,-0.72156 9.5189,0.69088 10.87125,1.45322 1.15577,0.72383 1.99202,2.69408 2.08131,4.35119 -0.22298,-1.13455 -0.81158,-2.29084 -1.5744,-2.76856 -1.08187,-0.60986 -4.29974,-1.74009 -8.69708,-1.16283 1.69875,4.09684 4.28648,6.31849 5.35558,6.95048 0.18881,0.10011 0.40578,0.17268 0.64162,0.22006 -0.75023,0.0312 -1.45582,-0.0751 -1.98413,-0.35537 -1.33639,-0.79 -4.57071,-3.56714 -6.69415,-8.68819 z" />
    <path
       id="path1600-3-5-0-9"
       style="fill:#807f83;fill-opacity:1;fill-rule:nonzero;stroke-width:0.224896"
       d="m 136.48117,201.63554 c -1.60035,3.2092 -2.66084,6.34802 -3.35224,9.08369 0.5559,0.2023 1.02526,0.4037 1.39784,0.58807 0.50067,-1.51962 1.14002,-3.12993 1.9544,-4.76301 0.97796,1.96109 1.70496,3.89013 2.24018,5.66735 0.34604,-0.18101 0.79324,-0.38242 1.33118,-0.58756 -0.67825,-2.93653 -1.7913,-6.41899 -3.57136,-9.98854 z m -8.84442,18.25987 c -2.17451,2.04253 -4.58801,4.71397 -6.75101,7.98245 3.64566,-0.22267 6.94885,-0.89379 9.69347,-1.68153 -0.0916,-0.60987 -0.132,-1.11829 -0.13643,-1.50535 -1.62054,0.34713 -3.40504,0.61616 -5.30562,0.73226 1.16647,-1.76263 2.42387,-3.30681 3.6525,-4.62761 -0.33848,-0.23633 -0.72783,-0.53639 -1.15291,-0.90022 z m 17.69402,1.19681 c -0.48293,0.38489 -0.9038,0.67474 -1.23714,0.87231 1.11104,1.23026 2.23616,2.64057 3.28714,4.22868 -2.10936,-0.12886 -4.07599,-0.44495 -5.83376,-0.84852 -0.0354,0.41084 -0.10071,0.8972 -0.20308,1.44642 2.85609,0.86207 6.37523,1.61719 10.28826,1.85621 -2.01501,-3.04485 -4.24731,-5.57207 -6.30142,-7.5551 z" />
    <path
       id="path1600-3-7-2-3-2"
       style="fill:#4f2683;fill-opacity:1;fill-rule:nonzero;stroke-width:0.278866"
       d="m 136.48117,243.63549 c 5.62205,-7.33246 6.93524,-14.3151 6.96184,-16.90233 -0.0816,-2.2714 -2.22854,-5.1203 -4.54597,-6.63009 1.45177,1.2673 2.63023,3.08044 2.68407,4.57957 -0.0213,2.06978 -1.07152,7.65622 -5.56917,13.52219 -4.49765,-5.86597 -5.54789,-11.45241 -5.56916,-13.52219 0.0128,-0.35595 0.0889,-0.72957 0.21704,-1.10948 -0.67029,1.05682 -1.10472,2.16392 -1.1405,3.16 0.0266,2.58723 1.33979,9.56987 6.96185,16.90233 z" />
    <path
       id="path1600-3-7-2-8-4-2"
       style="fill:#4f2683;fill-opacity:1;fill-rule:nonzero;stroke-width:0.278866"
       d="m 157.48117,207.26242 c -9.16113,-1.20262 -15.86487,1.15145 -18.11877,2.42204 -1.92629,1.20636 -3.32004,4.49012 -3.46884,7.25197 0.37163,-1.89092 1.35263,-3.81807 2.62399,-4.61426 1.80313,-1.01645 7.16624,-2.90015 14.49514,-1.93805 -2.83125,6.82806 -7.14413,10.53081 -8.92598,11.58412 -0.31466,0.16689 -0.67627,0.2878 -1.06935,0.36678 1.25037,0.0521 2.42637,-0.12524 3.30689,-0.5923 2.2273,-1.31665 7.61785,-5.94522 11.15692,-14.4803 z" />
    <path
       id="path1600-3-7-2-7-9-7"
       style="fill:#4f2683;fill-opacity:1;fill-rule:nonzero;stroke-width:0.278866"
       d="m 115.48118,207.26243 c 3.53907,8.53507 8.92961,13.16365 11.15692,14.48029 2.00788,1.06504 5.54857,0.63018 8.0148,-0.62188 -1.82339,0.62362 -3.98285,0.73763 -5.30805,0.0347 -1.78184,-1.05333 -6.09472,-4.75607 -8.92597,-11.58414 7.32889,-0.96209 12.69201,0.9216 14.49513,1.93807 0.30186,0.18906 0.58738,0.44177 0.85232,0.7427 -0.58009,-1.1089 -1.32165,-2.03868 -2.16639,-2.5677 -2.25391,-1.27058 -8.95764,-3.62465 -18.11876,-2.42203 z" />
  </g>
  <g
     inkscape:groupmode="layer"
     id="layer7"
     inkscape:label="Trillium Sharp" />
  <g
     inkscape:groupmode="layer"
     id="layer6"
     inkscape:label="Trillium Outline Smol">
    <path
       id="path1965"
       style="fill:#4f2683;fill-opacity:1;stroke-width:0.264583"
       d="m 80.163593,184.81879 c 12.29987,-0.97506 11.534774,-0.93823 18.381123,-4.61803 6.610264,-4.08911 6.574804,-6.90467 7.438164,-10.28912 -3.36271,-0.94451 -5.78354,-2.38299 -12.629943,1.29712 -6.60998,4.0892 -6.194986,3.44557 -13.189344,13.61003 z m 25.819287,-14.90715 c 2.49932,-2.43994 4.95542,-3.81699 5.19155,-11.5862 -0.23635,-7.76901 0.11427,-7.08801 -5.19123,-18.22753 -5.3055,11.13952 -4.9556,10.45831 -5.19196,18.22732 0.23614,7.76922 2.69231,9.14648 5.19164,11.58641 z m 0,0 c 0.86336,3.38445 0.82813,6.19997 7.43838,10.28908 6.84634,3.67981 6.08115,3.6427 18.38102,4.61776 -6.99436,-10.16446 -6.57962,-9.52035 -13.18961,-13.60955 -6.8464,-3.6801 -9.26708,-2.24181 -12.62979,-1.29729 z" />
    <path
       id="path1965-3"
       style="fill:#807f83;fill-opacity:1;stroke-width:0.198437"
       d="m 86.652292,181.01618 c 9.224903,-0.7313 8.651081,-0.70367 13.785838,-3.46352 4.9577,-3.06684 4.93111,-5.17851 5.57863,-7.71684 -2.52204,-0.70839 -4.33765,-1.78725 -9.47246,0.97284 -4.957484,3.0669 -4.646239,2.58418 -9.892008,10.20752 z m 19.364468,-11.18036 c 1.87449,-1.82996 3.71656,-2.86275 3.89366,-8.68965 -0.17727,-5.82676 0.0857,-5.31601 -3.89342,-13.67065 -3.97913,8.35464 -3.71671,7.84373 -3.89397,13.67049 0.1771,5.82691 2.01923,6.85986 3.89373,8.68981 z m 0,0 c 0.64752,2.53833 0.62109,4.64997 5.57879,7.71681 5.13475,2.75985 4.56086,2.73202 13.78576,3.46332 -5.24577,-7.62335 -4.93471,-7.14027 -9.89221,-10.20717 -5.1348,-2.76007 -6.95031,-1.68135 -9.47234,-0.97296 z" />
    <path
       id="path846-1-0-9"
       style="fill:#4f2683;fill-opacity:1;stroke-width:0.207002"
       d="m 15.464743,107.67758 c -1.15434,1.97997 -2.06466,4.15844 -2.674612,6.35339 5.429797,1.4012 11.683827,1.17676 15.987397,-1.305 3.12042,-1.80383 5.25491,-4.74312 5.86264,-7.82273 0.60771,3.07961 2.74181,6.01889 5.86223,7.82273 4.30342,2.48199 10.55757,2.70618 15.98735,1.30497 -1.50141,-5.40293 -4.82279,-10.70682 -9.12381,-13.19296 -3.11078,-1.793411 -6.7078,-2.176261 -9.6723,-1.177021 2.35778,-2.06666 3.83225,-5.38084 3.8342,-8.980412 -0.002,-4.967883 -2.93535,-10.495927 -6.86373,-14.497661 -3.92838,4.001739 -6.86082,9.529762 -6.86337,14.497633 0.002,3.615333 1.48926,6.94287 3.8651,9.0076 -2.97951,-1.03318 -6.6134,-0.65989 -9.75188,1.149841 -2.553738,1.47615 -4.762097,3.94582 -6.449215,6.83962 z" />
    <path
       id="path846-1-5-9-8"
       style="fill:#ffffff;fill-opacity:1;stroke-width:0.155252"
       d="m 20.255988,106.10857 c -0.865758,1.48498 -1.54851,3.11883 -2.00597,4.76504 4.07234,1.05091 8.76287,0.88257 11.99055,-0.97875 2.34031,-1.35287 3.94118,-3.55734 4.39697,-5.86704 0.45579,2.3097 2.05637,4.51416 4.39668,5.86704 3.22748,1.86166 7.91817,2.02963 11.99051,0.97874 -1.12606,-4.05221 -3.61708,-8.03013 -6.84286,-9.89473 -2.33299,-1.345221 -5.03084,-1.632201 -7.25422,-0.88276 1.76834,-1.550011 2.87418,-4.035641 2.87565,-6.735328 -0.002,-3.725902 -2.20151,-7.871943 -5.14779,-10.873246 -2.94628,3.001306 -5.14563,7.147333 -5.14753,10.873227 10e-4,2.711506 1.11694,5.207156 2.89881,6.755707 -2.23463,-0.774891 -4.96004,-0.494911 -7.3139,0.86238 -1.9153,1.10711 -3.57157,2.95937 -4.8369,5.12972 z" />
    <path
       id="path846-1-0"
       style="fill:#4f2683;fill-opacity:1;stroke-width:0.276003"
       d="m 14.774898,83.830519 c -3.05583,-0.01294 -6.1781997,0.388231 -9.1193394,1.147217 2.0018997,7.203919 6.4304194,14.275833 12.1651494,17.590654 4.163174,2.40059 8.980164,2.90577 12.941334,1.55443 -3.15088,2.75481 -5.12214,7.17857 -5.12475,11.98429 0.003,6.62382 3.91355,13.99495 9.15138,19.33059 5.23784,-5.33564 9.14798,-12.70677 9.15138,-19.33059 -0.003,-4.78763 -1.95893,-9.19634 -5.0891,-11.95328 3.95824,1.34474 8.76809,0.83786 12.92583,-1.5596 5.73473,-3.314821 10.16275,-10.386736 12.16464,-17.590654 -7.23973,-1.868275 -15.57791,-1.569031 -21.31601,1.739945 -4.17332,2.412486 -7.02409,6.348227 -7.82434,10.468098 -0.79333,-4.129232 -3.64696,-8.076416 -7.82898,-10.493938 -3.407,-1.964703 -7.730974,-2.868252 -12.197194,-2.887162 z" />
    <path
       id="path846-1-5-9"
       style="fill:#ffffff;fill-opacity:1;stroke-width:0.207002"
       d="m 19.780802,88.316948 c -2.291884,-0.0097 -4.633654,0.291173 -6.839514,0.860413 1.50142,5.402938 4.82282,10.706868 9.123864,13.192989 3.12238,1.80044 6.73512,2.17933 9.706,1.16582 -2.36316,2.06611 -3.8416,5.38393 -3.84356,8.98822 0.002,4.96788 2.93516,10.49621 6.86353,14.49795 3.92838,-4.00174 6.86099,-9.53007 6.86354,-14.49795 -0.002,-3.59072 -1.4692,-6.89726 -3.81683,-8.96496 2.96868,1.00855 6.57607,0.6284 9.69438,-1.1697 4.30104,-2.486121 7.62206,-7.790051 9.12348,-13.192989 -5.4298,-1.401207 -11.68344,-1.176774 -15.98701,1.304958 -3.12999,1.809365 -5.26807,4.761171 -5.86826,7.85107 -0.59499,-3.096921 -2.73522,-6.057308 -5.87173,-7.87045 -2.55525,-1.473527 -5.79823,-2.151189 -9.14789,-2.165371 z" />
    <path
       id="path846-1-0-9-0"
       style="fill:#4f2683;fill-opacity:1;stroke-width:0.207002"
       d="m 174.50393,2.9953228 c -3.10075,3.158659 -5.57416,7.2681722 -6.48281,11.3026692 -0.38965,-0.26997 -0.79246,-0.526473 -1.20922,-0.767395 -3.407,-1.964698 -7.73097,-2.868253 -12.19719,-2.887162 -3.05583,-0.01294 -6.17821,0.388228 -9.11934,1.147217 2.00189,7.203921 6.43042,14.275837 12.16515,17.590659 0.36502,0.210478 0.73543,0.405161 1.10949,0.586525 -1.30876,1.28863 -2.47831,2.829081 -3.46542,4.522206 -1.15434,1.979969 -2.06482,4.158668 -2.67477,6.353616 4.26614,1.100913 9.03737,1.192319 12.97543,-0.02015 -0.0834,0.687835 -0.12777,1.387949 -0.12816,2.096513 0.003,6.62382 3.91355,13.994964 9.15138,19.330604 5.23783,-5.33564 9.14798,-12.706784 9.15138,-19.330604 -4.2e-4,-0.676449 -0.0411,-1.345247 -0.1173,-2.002977 3.87699,1.114808 8.51175,0.998902 12.66692,-0.07338 -1.11511,-4.012824 -3.23586,-7.968792 -6.01462,-10.758516 0.43955,-0.206534 0.87434,-0.431546 1.30173,-0.677995 5.73474,-3.314819 10.16275,-10.386737 12.16463,-17.590656 -7.23972,-1.8682762 -15.57792,-1.569027 -21.31601,1.739945 -0.49771,0.287719 -0.97619,0.597263 -1.43505,0.926042 -0.87363,-4.093409 -3.37822,-8.2803712 -6.52622,-11.4871552 z m -0.009,6.305042 c 1.93812,1.9743182 3.54819,4.4443332 4.42712,6.9639172 -2.22955,2.216008 -3.73455,4.944984 -4.28139,7.760248 -0.55917,-2.910435 -2.14277,-5.729949 -4.49275,-7.987625 0.89493,-2.440493 2.46719,-4.8216 4.34702,-6.7365402 z m -14.87455,5.8291012 c 3.34966,0.01418 6.59252,0.692229 9.14777,2.16576 3.13651,1.813139 5.277,4.773401 5.87199,7.87032 0.60019,-3.0899 2.73787,-6.041829 5.86786,-7.851201 4.30357,-2.481728 10.55734,-2.706029 15.98714,-1.30483 -1.50142,5.402943 -4.82244,10.706875 -9.12348,13.192995 -3.11831,1.798098 -6.72582,2.177987 -9.6945,1.169438 2.34763,2.0677 3.81482,5.374624 3.81682,8.965342 -0.003,4.96788 -2.93476,10.496084 -6.86314,14.497825 -3.92836,-4.001741 -6.86167,-9.529945 -6.86367,-14.497825 0.002,-3.604289 1.48054,-6.922487 3.8437,-8.988597 -2.97088,1.013511 -6.58401,0.634619 -9.70639,-1.16582 -4.30105,-2.48612 -7.62205,-7.790053 -9.12347,-13.192993 2.20586,-0.56924 4.54748,-0.870413 6.83937,-0.860414 z m 10.98125,15.806272 c -2.04786,1.790432 -3.59659,4.285826 -4.43126,7.132896 -2.57994,0.461447 -5.45749,0.294527 -8.08064,-0.382405 0.45746,-1.646211 1.14033,-3.280103 2.00608,-4.765084 0.39745,-0.681726 0.83742,-1.326502 1.30793,-1.932181 3.13709,0.928277 6.3834,0.906925 9.19789,-0.05323 z m 8.08891,0.031 c 2.73767,0.930073 5.88252,0.973169 8.93744,0.118856 1.45815,1.907153 2.58042,4.239707 3.23649,6.600631 -2.51491,0.648986 -5.26499,0.831279 -7.76128,0.438733 -0.82584,-2.854116 -2.36889,-5.358144 -4.41265,-7.15822 z" />
    <path
       id="path846-1-0-9-3"
       style="fill:#807f83;fill-opacity:1;stroke-width:0.207002"
       d="m 87.119701,107.01112 c -1.15434,1.97997 -2.064656,4.15844 -2.674608,6.35339 5.429798,1.4012 11.683828,1.17676 15.987397,-1.305 3.12042,-1.80383 5.25491,-4.74312 5.86264,-7.82273 0.60771,3.07961 2.74181,6.01889 5.86223,7.82273 4.30342,2.48199 10.55757,2.70618 15.98735,1.30497 -1.50141,-5.40293 -4.82279,-10.70682 -9.12381,-13.19296 -3.11078,-1.793411 -6.7078,-2.176261 -9.6723,-1.177021 2.35778,-2.06666 3.83225,-5.380838 3.8342,-8.980408 -0.002,-4.96789 -2.93535,-10.495932 -6.86373,-14.497666 -3.92838,4.001739 -6.860819,9.529766 -6.863369,14.497636 0.002,3.61533 1.489259,6.942868 3.865099,9.007598 -2.97951,-1.03318 -6.613399,-0.65989 -9.751879,1.149841 -2.55374,1.47615 -4.7621,3.94582 -6.44922,6.83962 z" />
    <path
       id="path846-1-5-9-8-5"
       style="fill:#ffffff;fill-opacity:1;stroke-width:0.155252"
       d="m 91.910951,105.44211 c -0.86576,1.48498 -1.54851,3.11883 -2.00597,4.76504 4.07234,1.05091 8.76287,0.88257 11.990549,-0.97875 2.34031,-1.35287 3.94118,-3.55734 4.39697,-5.86704 0.45579,2.3097 2.05637,4.51416 4.39668,5.86704 3.22748,1.86166 7.91817,2.02963 11.99051,0.97874 -1.12606,-4.05221 -3.61708,-8.03013 -6.84286,-9.89473 -2.33299,-1.345221 -5.03084,-1.632201 -7.25422,-0.882761 1.76834,-1.55001 2.87418,-4.035638 2.87565,-6.735328 -0.002,-3.7259 -2.20151,-7.87194 -5.14779,-10.87325 -2.94628,3.00131 -5.14563,7.14734 -5.14753,10.87323 10e-4,2.71151 1.11694,5.207158 2.89881,6.755708 -2.23463,-0.77489 -4.960039,-0.49491 -7.313899,0.862381 -1.9153,1.10711 -3.57157,2.95937 -4.8369,5.12972 z" />
    <path
       id="path846-1-0-4"
       style="fill:#4f2683;fill-opacity:1;stroke-width:0.276003"
       d="m 86.429861,83.164061 c -3.055831,-0.0129 -6.178201,0.38823 -9.119341,1.14721 2.0019,7.20392 6.43042,14.275838 12.165151,17.590659 4.16317,2.40059 8.98016,2.90577 12.941329,1.55443 -3.150879,2.75481 -5.122139,7.17857 -5.124749,11.98429 0.003,6.62382 3.913549,13.99495 9.151379,19.33059 5.23784,-5.33564 9.14798,-12.70677 9.15138,-19.33059 -0.003,-4.78763 -1.95893,-9.19634 -5.0891,-11.95328 3.95824,1.34474 8.76809,0.83786 12.92583,-1.5596 5.73473,-3.314821 10.16275,-10.386739 12.16464,-17.590659 -7.23973,-1.86827 -15.57791,-1.56903 -21.31601,1.73995 -4.17332,2.41248 -7.02409,6.34823 -7.82434,10.468098 -0.79333,-4.129238 -3.64696,-8.076418 -7.828979,-10.493938 -3.407,-1.9647 -7.73097,-2.86825 -12.19719,-2.88716 z" />
    <path
       id="path846-1-5-9-1"
       style="fill:#ffffff;fill-opacity:1;stroke-width:0.207002"
       d="m 91.435761,87.650491 c -2.29188,-0.01 -4.63365,0.29117 -6.839511,0.86041 1.501421,5.40294 4.822821,10.706868 9.123861,13.192989 3.12238,1.80044 6.735119,2.17933 9.705999,1.16582 -2.36316,2.06611 -3.841599,5.38393 -3.843559,8.98822 0.002,4.96788 2.935159,10.49621 6.863529,14.49795 3.92838,-4.00174 6.86099,-9.53007 6.86354,-14.49795 -0.002,-3.59072 -1.4692,-6.89726 -3.81683,-8.96496 2.96868,1.00855 6.57607,0.6284 9.69438,-1.1697 4.30104,-2.486121 7.62206,-7.790049 9.12348,-13.192989 -5.4298,-1.40121 -11.68344,-1.17678 -15.98701,1.30496 -3.12999,1.80936 -5.26807,4.76117 -5.86826,7.851068 -0.59499,-3.096918 -2.73522,-6.057308 -5.87173,-7.870448 -2.555249,-1.47353 -5.798229,-2.15119 -9.147889,-2.16537 z" />
    <path
       id="path846-1-0-9-3-1"
       style="fill:#807f83;fill-opacity:1;stroke-width:0.78237"
       d="M 663.46484 278.3457 C 651.74499 290.28442 642.39678 305.81588 638.96289 321.06445 C 641.85226 323.06634 644.53819 325.26969 647.00195 327.63672 C 650.38422 318.41199 656.32814 309.412 663.43359 302.17383 C 670.75879 309.63583 676.84271 318.97132 680.16406 328.49414 C 682.59766 326.0753 685.26118 323.82001 688.13086 321.76367 C 684.8293 306.29193 675.36327 290.46633 663.46484 278.3457 z M 603.99805 380.28906 C 599.05169 385.15996 594.63113 390.98178 590.90039 397.38086 C 586.53753 404.86421 583.09829 413.0967 580.79297 421.39258 C 596.917 425.5535 614.94854 425.89898 629.83203 421.31641 C 630.26554 417.74321 630.98503 414.25953 631.96875 410.9043 C 622.21781 412.64834 611.342 412.01747 601.42773 409.45898 C 603.15672 403.23709 605.7376 397.06369 609.00977 391.45117 C 610.51147 388.87538 612.17351 386.43727 613.95117 384.14844 C 610.58445 383.15207 607.25118 381.86637 603.99805 380.28906 z M 723.22461 380.73047 C 719.90254 382.29145 716.50193 383.554 713.07031 384.51367 C 718.58063 391.7214 722.82139 400.53671 725.30078 409.45898 C 715.79561 411.91185 705.40162 412.60083 695.9668 411.11719 C 696.95068 414.51718 697.66053 418.04911 698.08008 421.66992 C 712.73328 425.88338 730.25048 425.44531 745.95508 421.39258 C 741.74046 406.22599 733.72646 391.2743 723.22461 380.73047 z "
       transform="scale(0.26458333)" />
    <path
       id="path846-1-0-4-8"
       style="fill:#4f2683;fill-opacity:1;stroke-width:1.04316"
       d="M 588.29297 307.25 C 576.74338 307.20124 564.94229 308.71735 553.82617 311.58594 C 561.39241 338.81335 578.13012 365.54187 599.80469 378.07031 C 615.5395 387.14341 633.74545 389.05274 648.7168 383.94531 C 636.80796 394.35719 629.35752 411.07688 629.34766 429.24023 C 629.35899 454.27514 644.13902 482.13458 663.93555 502.30078 C 683.73211 482.13458 698.51059 454.27514 698.52344 429.24023 C 698.5121 411.14525 691.11963 394.48243 679.28906 384.0625 C 694.24934 389.14498 712.42829 387.22923 728.14258 378.16797 C 749.81715 365.63953 766.55294 338.91101 774.11914 311.68359 C 746.75638 304.62242 715.24199 305.75338 693.55469 318.25977 C 677.78151 327.3778 667.00699 342.25306 663.98242 357.82422 C 660.98401 342.21764 650.19864 327.29919 634.39258 318.16211 C 621.51573 310.73647 605.17317 307.32147 588.29297 307.25 z M 607.21289 324.20703 C 619.87302 324.26062 632.13142 326.82138 641.78906 332.39062 C 653.64359 339.24344 661.73169 350.43182 663.98047 362.13672 C 666.2489 350.45836 674.33027 339.30142 686.16016 332.46289 C 702.42562 323.08309 726.06191 322.23534 746.58398 327.53125 C 740.90933 347.95181 728.35746 367.99817 712.10156 377.39453 C 700.31582 384.19049 686.68115 385.62825 675.46094 381.81641 C 684.33387 389.63134 689.87916 402.12799 689.88672 415.69922 C 689.87708 434.47546 678.79273 455.36945 663.94531 470.49414 C 649.09793 455.36945 638.01147 434.47546 638.00391 415.69922 C 638.01131 402.07671 643.59962 389.53744 652.53125 381.72852 C 641.30273 385.5591 627.64878 384.12707 615.84766 377.32227 C 599.59176 367.92591 587.03794 347.87955 581.36328 327.45898 C 589.70039 325.30753 598.55067 324.16924 607.21289 324.20703 z "
       transform="scale(0.26458333)" />
    <path
       id="path846-1-0-4-9"
       style="fill:#4f2683;fill-opacity:1;stroke-width:0.276003"
       d="m 86.180301,152.18648 c -3.055831,-0.0129 -6.178201,0.38823 -9.119341,1.14721 2.0019,7.20392 6.43042,14.27583 12.165151,17.59066 4.16317,2.40059 8.98016,2.90577 12.941329,1.55443 -3.150879,2.75481 -5.122139,7.17857 -5.124749,11.98429 0.003,6.62382 3.913549,13.99495 9.151379,19.33059 5.23784,-5.33564 9.14798,-12.70677 9.15138,-19.33059 -0.003,-4.78763 -1.95893,-9.19634 -5.0891,-11.95328 3.95824,1.34474 8.76809,0.83786 12.92583,-1.5596 5.73473,-3.31483 10.16275,-10.38674 12.16464,-17.59066 -7.23973,-1.86827 -15.57791,-1.56903 -21.31601,1.73995 -4.17332,2.41248 -7.02409,6.34823 -7.82434,10.46809 -0.79333,-4.12923 -3.64696,-8.07641 -7.828979,-10.49393 -3.407,-1.9647 -7.73097,-2.86825 -12.19719,-2.88716 z" />
    <path
       id="path846-1-5-9-1-5"
       style="fill:#ffffff;fill-opacity:1;stroke-width:0.207002;fill-rule:nonzero"
       d="m 91.186201,156.67291 c -2.29188,-0.01 -4.63365,0.29117 -6.839511,0.86041 1.501421,5.40294 4.822821,10.70686 9.123861,13.19299 3.12238,1.80044 6.735119,2.17933 9.705999,1.16582 -2.36316,2.06611 -3.841599,5.38393 -3.843559,8.98822 0.002,4.96788 2.935159,10.49621 6.863529,14.49795 3.92838,-4.00174 6.86099,-9.53007 6.86354,-14.49795 -0.002,-3.59072 -1.4692,-6.89726 -3.81683,-8.96496 2.96868,1.00855 6.57607,0.6284 9.69438,-1.1697 4.30104,-2.48613 7.62206,-7.79005 9.12348,-13.19299 -5.4298,-1.40121 -11.68344,-1.17678 -15.98701,1.30496 -3.12999,1.80936 -5.26807,4.76117 -5.86826,7.85106 -0.59499,-3.09691 -2.73522,-6.0573 -5.87173,-7.87044 -2.555249,-1.47353 -5.798229,-2.15119 -9.147889,-2.16537 z" />
    <path
       id="path1965-0"
       style="fill:#808080;fill-opacity:1;stroke-width:0.999999"
       d="M 662.16602 522.13086 C 643.36295 561.6101 643.34629 562.12377 642.68164 586.20508 C 644.54641 587.76266 646.26377 589.43618 647.91016 591.1582 C 648.46737 579.15939 650.17279 575.46138 662.29297 550.01367 C 674.90928 576.50314 676.24065 579.45588 676.73828 592.70703 C 678.29392 590.9742 679.92078 589.28631 681.69141 587.70508 C 680.97704 562.08896 681.35813 562.42696 662.16602 522.13086 z M 607.6582 643.88867 C 589.62696 655.0108 588.29667 656.68848 564.58008 691.1543 C 608.37423 687.68256 608.62607 687.45322 630.10938 675.82812 C 630.70638 673.28958 631.48457 670.83334 632.36719 668.4375 C 621.36355 674.17351 617.58455 674.52343 589.10352 676.78125 C 603.14412 656.37694 606.67376 651.33604 614.17969 646.01562 C 611.99095 645.41374 609.81077 644.73466 607.6582 643.88867 z M 717.4082 644.34375 C 715.25699 645.15132 713.07993 645.79194 710.89648 646.35742 C 718.08079 651.55874 721.74254 656.81393 735.48242 676.78125 C 708.47052 674.63989 703.66216 674.19834 693.85352 669.26758 C 694.71519 671.71315 695.46886 674.21871 696.03516 676.80664 C 715.77854 687.47938 717.19493 687.77883 759.75 691.15234 C 736.32984 657.1173 734.8043 655.0977 717.4082 644.34375 z "
       transform="scale(0.26458333)" />
    <path
       id="path846-1-0-4-9-0"
       style="fill:#4f2683;fill-opacity:1;stroke-width:1.04316"
       d="M 587.32031 568.81836 C 575.77072 568.7696 563.96964 570.28571 552.85352 573.1543 C 560.41975 600.38171 577.15746 627.11018 598.83203 639.63867 C 614.56685 648.71177 632.77279 650.6211 647.74414 645.51367 C 635.8353 655.92555 628.38486 672.64524 628.375 690.80859 C 628.38634 715.8435 643.16637 743.70294 662.96289 763.86914 C 682.75945 743.70294 697.53793 715.8435 697.55078 690.80859 C 697.53944 672.71361 690.14697 656.05079 678.31641 645.63086 C 693.27668 650.71334 711.45563 648.79759 727.16992 639.73633 C 748.84449 627.20784 765.58029 600.47937 773.14648 573.25195 C 745.78373 566.19078 714.26934 567.32174 692.58203 579.82812 C 676.80885 588.94616 666.03433 603.82145 663.00977 619.39258 C 660.01135 603.78604 649.22598 588.86755 633.41992 579.73047 C 620.54307 572.30483 604.20051 568.88983 587.32031 568.81836 z M 606.24023 585.77539 C 618.90037 585.82898 631.15682 588.38974 640.81445 593.95898 C 652.66898 600.8118 660.75903 612.00217 663.00781 623.70703 C 665.27625 612.02871 673.35762 600.87173 685.1875 594.0332 C 701.45296 584.6534 725.0873 583.80565 745.60938 589.10156 C 739.93472 609.52212 727.38285 629.56845 711.12695 638.96484 C 699.34121 645.76081 685.70654 647.19661 674.48633 643.38477 C 683.35926 651.19969 688.90455 663.69635 688.91211 677.26758 C 688.90247 696.04382 677.82008 716.93977 662.97266 732.06445 C 648.12527 716.93977 637.03881 696.04382 637.03125 677.26758 C 637.03866 663.64506 642.62697 651.10579 651.55859 643.29688 C 640.33007 647.12746 626.67417 645.69544 614.87305 638.89062 C 598.61715 629.49423 586.06528 609.4479 580.39062 589.02734 C 588.72773 586.87589 597.57801 585.7376 606.24023 585.77539 z "
       transform="scale(0.26458333)" />
  </g>
  <g
     inkscape:groupmode="layer"
     id="layer4"
     inkscape:label="Trillium">
    <g
       inkscape:label="Layer 1"
       inkscape:groupmode="layer"
       id="layer1">
      <path
         id="path846-0"
         style="fill:#4f2683;fill-opacity:0.666667;stroke-width:0.276003"
         d="m 12.727149,16.692848 c -2.9550547,0.778408 -5.8672034,1.974039 -8.5116834,3.468386 3.7981897,6.440324 9.9061634,12.125077 16.3034264,13.842697 4.642632,1.241283 9.426234,0.482518 12.902681,-1.848001 -2.330526,3.476448 -3.089654,8.259674 -1.848369,12.902311 1.717658,6.397252 7.402357,12.505189 13.842681,16.303376 3.678391,-6.509488 5.547516,-14.641467 3.836426,-21.040478 -1.241639,-4.623812 -4.272372,-8.37597 -8.009425,-10.228824 4.171403,0.274455 8.68617,-1.460032 12.081737,-4.851902 4.681377,-4.686133 7.12817,-12.663129 7.19734,-20.1397077 -7.476581,0.06916 -15.453198,2.516293 -20.139359,7.1976477 -3.40671,3.410415 -5.1417,7.949882 -4.84838,12.136488 -1.835028,-3.783198 -5.613023,-6.857312 -10.278243,-8.110072 -3.799414,-1.015961 -8.209906,-0.769597 -12.528832,0.368079 z" />
    </g>
    <g
       inkscape:groupmode="layer"
       id="layer2"
       inkscape:label="Layer 2">
      <path
         id="path846-8"
         style="fill:#4f2683;fill-opacity:0.8;stroke-width:0.276003"
         d="m 14.562593,13.526413 c -3.031377,0.386037 -6.0746737,1.191327 -8.8915804,2.327715 2.9250637,6.88099 8.2387744,13.31436 14.3571144,15.852295 4.440893,1.836649 9.28261,1.708761 13.033508,-0.148053 -2.764355,3.142513 -4.141325,7.785731 -3.516645,12.550671 0.867955,6.566721 5.706774,13.364405 11.596237,17.97073 4.496581,-5.973673 7.411151,-13.792111 6.549938,-20.35972 -0.627487,-4.746322 -3.142536,-8.861969 -6.605773,-11.186754 4.099892,0.816584 8.802431,-0.313769 12.611677,-3.233411 5.252989,-4.035 8.720057,-11.624382 9.764521,-19.0279687 -7.421642,-0.907317 -15.649432,0.477718 -20.906542,4.5073577 -3.822714,2.936573 -6.13538,7.210744 -6.391031,11.399818 -1.325523,-3.990351 -4.669945,-7.531293 -9.131735,-9.38227 -3.6343,-1.503192 -8.039216,-1.834619 -12.469689,-1.27041 z" />
    </g>
    <g
       inkscape:groupmode="layer"
       id="layer3"
       inkscape:label="Layer 3">
      <path
         id="path846"
         style="fill:#4f2683;fill-opacity:1;stroke-width:0.276003"
         d="m 16.699116,10.704452 c -3.055831,-0.01294 -6.178203,0.388231 -9.1193397,1.147217 2.001891,7.203919 6.4304197,14.27583 12.1651487,17.590656 4.163169,2.400589 8.980157,2.905766 12.94133,1.554428 -3.150886,2.754807 -5.122138,7.178571 -5.124752,11.984283 0.0034,6.623833 3.913547,13.994955 9.151379,19.330601 5.237832,-5.335646 9.147979,-12.706768 9.151379,-19.330601 -0.0026,-4.78762 -1.958932,-9.196337 -5.089096,-11.953277 3.958233,1.344742 8.76808,0.837864 12.925827,-1.559594 5.734727,-3.314827 10.162741,-10.386738 12.164631,-17.590656 -7.239722,-1.868274 -15.577902,-1.56903 -21.31601,1.739945 -4.17331,2.412486 -7.024082,6.348227 -7.82433,10.468094 C 35.931946,19.95632 33.078322,16.009136 28.896305,13.591614 25.489302,11.626911 21.165331,10.723362 16.699116,10.704452 Z" />
    </g>
  </g>
</svg>
