<?xml version="1.0" encoding="UTF-8" standalone="no"?>
<!-- Created with Inkscape (http://www.inkscape.org/) -->

<svg
   width="50mm"
   height="50mm"
   viewBox="0 0 50 50"
   version="1.1"
   id="svg2005"
   inkscape:version="1.1 (c4e8f9e, 2021-05-24)"
   sodipodi:docname="trilloop-options.svg"
   xmlns:inkscape="http://www.inkscape.org/namespaces/inkscape"
   xmlns:sodipodi="http://sodipodi.sourceforge.net/DTD/sodipodi-0.dtd"
   xmlns="http://www.w3.org/2000/svg"
   xmlns:svg="http://www.w3.org/2000/svg">
  <sodipodi:namedview
     id="namedview2007"
     pagecolor="#ffffff"
     bordercolor="#666666"
     borderopacity="1.0"
     inkscape:pageshadow="2"
     inkscape:pageopacity="0"
     inkscape:pagecheckerboard="0"
     inkscape:document-units="mm"
     showgrid="false"
     inkscape:snap-nodes="false"
     inkscape:zoom="3.1963805"
     inkscape:cx="64.604324"
     inkscape:cy="110.28099"
     inkscape:window-width="1946"
     inkscape:window-height="1151"
     inkscape:window-x="1392"
     inkscape:window-y="135"
     inkscape:window-maximized="0"
     inkscape:current-layer="layer6" />
  <defs
     id="defs2002" />
  <g
     inkscape:label="Chubby Trillium More Angled"
     inkscape:groupmode="layer"
     id="layer1">
    <path
       id="path28850-71"
       style="fill:#4f2683;fill-opacity:0.333333;stroke-width:0.292216"
       d="m 5.218408,28.181197 c -0.7031545,0.410507 -1.4694602,1.007729 -2.2988627,1.86906 2.3079033,2.396745 4.1272702,2.747436 5.4556675,2.725356 0.7315218,-4.91e-4 1.3533012,-0.09755 1.8505032,-0.328471 0.04861,0.546049 0.275046,1.132737 0.640378,1.766493 0.645077,1.161466 1.858683,2.561995 5.088278,3.362325 0.92169,-3.197075 0.3156,-4.948354 -0.36772,-6.08774 -0.366193,-0.633258 -0.761056,-1.122703 -1.209639,-1.43783 0.448589,-0.315127 0.84353,-0.805078 1.209715,-1.438347 0.683321,-1.139387 1.289297,-2.890349 0.367606,-6.087425 -3.229595,0.800331 -4.442869,2.200919 -5.087947,3.362384 -0.365317,0.63373 -0.592236,1.220272 -0.640865,1.7663 -0.497189,-0.2309 -1.1186088,-0.327654 -1.8500926,-0.328145 -0.8510052,-0.01414 -1.9035712,0.12427 -3.1570147,0.856066 z" />
    <path
       id="path28850-0-8"
       style="fill:#4f2683;fill-opacity:0.666667;stroke-width:0.292216"
       d="m 5.9500676,26.528974 c -0.7854422,0.214527 -1.6802087,0.593067 -2.7042788,1.210383 1.6089401,2.912407 3.2755489,3.722035 4.5643953,4.044523 0.7067228,0.188857 1.3324359,0.256039 1.8724639,0.161667 -0.094369,0.540025 -0.0275,1.165327 0.1613511,1.872044 0.3224869,1.288847 1.1322569,2.955758 4.0446649,4.564699 1.71775,-2.849587 1.585575,-4.69806 1.220433,-5.975478 -0.189816,-0.706459 -0.444544,-1.281424 -0.796283,-1.701915 0.514865,-0.188282 1.023156,-0.559323 1.540767,-1.076239 0.954932,-0.923706 1.993442,-2.458169 1.93062,-5.784858 -3.326684,-0.06282 -4.861116,0.976024 -5.784823,1.930956 -0.516889,0.517583 -0.887885,1.025409 -1.076179,1.540246 -0.420486,-0.351714 -0.9956915,-0.606006 -1.7021234,-0.795803 -0.8183465,-0.233919 -1.8708714,-0.372645 -3.271008,0.0098 z" />
    <path
       id="path28850-7-45"
       style="fill:#4f2683;fill-opacity:1;stroke-width:0.292216"
       d="m 7.1309272,25.249166 c -0.814203,0.0039 -1.776454,0.13799 -2.925403,0.469222 0.80033,3.229594 2.200602,4.442985 3.362068,5.088061 0.633762,0.365336 1.220765,0.592175 1.766819,0.640788 -0.230923,0.4972 -0.328173,1.118502 -0.328664,1.850017 -0.02208,1.328397 0.328669,3.148094 2.7254148,5.455997 2.396746,-2.307903 2.747495,-4.1276 2.725415,-5.455997 -5.02e-4,-0.731515 -0.09774,-1.352817 -0.328662,-1.850017 0.546052,-0.04861 1.133056,-0.275452 1.766818,-0.640788 1.161465,-0.645076 2.561738,-1.858467 3.362068,-5.088061 -3.197076,-0.921691 -4.948097,-0.315383 -6.087484,0.367936 -0.633238,0.366167 -1.123027,0.760668 -1.438155,1.209229 C 11.416035,26.846992 10.926246,26.452491 10.293007,26.086324 9.5630882,25.648573 8.5823312,25.24216 7.1309272,25.249166 Z" />
  </g>
  <g
     inkscape:groupmode="layer"
     id="layer5"
     inkscape:label="Trillium Inner Loop">
    <path
       id="path28850-7-9"
       style="fill:#4f2683;fill-opacity:1;stroke-width:0.292216"
       d="m 27.438699,4.6604112 c -0.814203,0.00393 -1.776454,0.1379892 -2.925403,0.4692218 0.80033,3.2295943 2.200602,4.4429853 3.362068,5.088061 0.633762,0.365335 1.220765,0.592174 1.766818,0.640788 -0.230922,0.4972 -0.328172,1.118502 -0.328663,1.850016 -0.02208,1.328397 0.328668,3.148094 2.725415,5.455997 2.396746,-2.307902 2.747495,-4.1276 2.725415,-5.455996 -5.02e-4,-0.731515 -0.09774,-1.352817 -0.328662,-1.850017 0.546052,-0.04861 1.133056,-0.275452 1.766818,-0.640788 C 37.36397,9.5726183 38.764243,8.3592273 39.564573,5.129633 36.367497,4.2079422 34.616476,4.8142494 33.477089,5.4975693 32.843851,5.8637363 32.354062,6.2582373 32.038934,6.7067983 31.723807,6.2582373 31.234018,5.8637363 30.600779,5.4975693 29.87086,5.0598174 28.890103,4.6534045 27.438699,4.6604112 Z" />
    <path
       id="path28850-7-4"
       style="fill:#ffffff;fill-opacity:1;stroke-width:0.219162"
       d="M 28.589052,5.880067 C 27.9784,5.882997 27.256711,5.9835595 26.395,6.2319835 c 0.600247,2.422195 1.650451,3.332239 2.521551,3.8160455 0.475321,0.274002 0.915573,0.444131 1.325113,0.480591 -0.173191,0.3729 -0.246129,0.838876 -0.246497,1.387512 -0.01656,0.996298 0.246501,2.361071 2.044061,4.091998 1.79756,-1.730927 2.060621,-3.0957 2.044061,-4.091998 -3.76e-4,-0.548636 -0.07331,-1.014612 -0.246496,-1.387512 0.409539,-0.03646 0.849792,-0.206589 1.325113,-0.480591 C 36.033005,9.5642225 37.08321,8.6541785 37.683457,6.2319835 35.28565,5.5407152 33.972385,5.9954462 33.117844,6.5079355 32.642916,6.7825607 32.275574,7.0784372 32.039228,7.4148572 31.802883,7.0784372 31.435541,6.7825607 30.960612,6.5079355 30.413173,6.1796222 29.677605,5.8748125 28.589052,5.880067 Z" />
    <path
       id="path28850-7-3"
       style="fill:#4f2683;fill-opacity:1;stroke-width:0.146108"
       d="m 29.738702,7.0700446 c -0.407102,0.002 -0.888227,0.069 -1.462702,0.234611 0.400165,1.614797 1.100301,2.221492 1.681034,2.5440304 0.316881,0.182668 0.610383,0.296088 0.883409,0.320394 -0.115461,0.2486 -0.164086,0.559251 -0.164331,0.925009 -0.01104,0.664198 0.164334,1.574047 1.362707,2.727998 1.198373,-1.153951 1.373748,-2.0638 1.362708,-2.727998 -2.51e-4,-0.365758 -0.04887,-0.676409 -0.164331,-0.925009 0.273026,-0.02431 0.566528,-0.137726 0.883409,-0.320394 0.580732,-0.3225384 1.280869,-0.9292334 1.681034,-2.5440304 -1.598538,-0.460845 -2.474049,-0.157692 -3.043742,0.183968 -0.316619,0.183083 -0.561514,0.380334 -0.719078,0.604614 -0.157563,-0.22428 -0.402458,-0.421531 -0.719077,-0.604614 -0.36496,-0.218876 -0.855338,-0.422082 -1.58104,-0.418579 z" />
    <path
       id="path28850-7-7"
       style="fill:#ffffff;fill-opacity:1;stroke-width:0.073054"
       d="m 30.888851,8.2750263 c -0.203551,9.82e-4 -0.444114,0.0345 -0.731351,0.117305 0.200082,0.807399 0.55015,1.110746 0.840517,1.272015 0.15844,0.09133 0.305191,0.148044 0.441704,0.160197 -0.05773,0.1243005 -0.08204,0.2796267 -0.08216,0.4625057 -0.0055,0.332099 0.08217,0.787023 0.681353,1.363999 0.599187,-0.576976 0.686874,-1.0319 0.681354,-1.363999 -1.25e-4,-0.182879 -0.02444,-0.3382052 -0.08217,-0.4625057 0.136513,-0.01215 0.283264,-0.06886 0.441704,-0.160197 0.290366,-0.161269 0.640435,-0.464616 0.840517,-1.272015 -0.799269,-0.230423 -1.237024,-0.07885 -1.521871,0.09198 -0.158309,0.09154 -0.280757,0.190167 -0.359539,0.302307 -0.07878,-0.11214 -0.201229,-0.210765 -0.359538,-0.302307 -0.18248,-0.109438 -0.427669,-0.211041 -0.79052,-0.209289 z" />
  </g>
  <g
     inkscape:groupmode="layer"
     id="layer8"
     inkscape:label="Chubby Trillium">
    <path
       id="path28850"
       style="fill:#4f2683;fill-opacity:0.333333;stroke-width:0.292216"
       d="M 6.5896454,6.1973778 C 5.8042035,6.4119067 4.9094371,6.7904451 3.8853668,7.4077611 c 1.6089397,2.9124079 3.2755481,3.7220359 4.5643961,4.0445229 0.7067227,0.188857 1.3324347,0.256039 1.8724631,0.161667 -0.09437,0.540025 -0.0275,1.165327 0.161356,1.872043 0.322487,1.288848 1.132257,2.95576 4.044665,4.5647 1.717749,-2.849587 1.585575,-4.69806 1.220433,-5.975479 -0.189816,-0.706458 -0.444546,-1.281423 -0.796283,-1.701914 0.514864,-0.188286 1.023156,-0.5593239 1.540766,-1.0762399 0.954932,-0.923706 1.993443,-2.458168 1.930622,-5.7848571 -3.32669,-0.062821 -4.861122,0.9760245 -5.784829,1.9309558 -0.51689,0.5175847 -0.887885,1.02541 -1.07618,1.5402473 C 11.14229,6.631692 10.567086,6.3774001 9.8606536,6.1876036 9.0423066,5.953685 7.9897815,5.8149586 6.5896454,6.1973778 Z" />
    <path
       id="path28850-0"
       style="fill:#4f2683;fill-opacity:0.666667;stroke-width:0.292216"
       d="m 7.1200819,5.4644196 c -0.806724,0.1101712 -1.743245,0.3686825 -2.83913,0.8470494 1.21503,3.0974999 2.761703,4.117738 3.99743,4.605695 0.676026,0.279487 1.287617,0.427766 1.8353431,0.404689 -0.1640491,0.523088 -0.1793701,1.151768 -0.08438,1.877089 0.151499,1.319914 0.736766,3.078261 3.414249,5.053582 2.075,-2.600997 2.18523,-4.450908 1.989948,-5.765058 -0.09598,-0.725191 -0.273481,-1.328486 -0.567326,-1.791291 0.535036,-0.119468 1.087409,-0.420989 1.668063,-0.8659211 1.06733,-0.79116 2.297244,-2.1769425 2.669179,-5.4833708 C 15.913434,3.8503795 14.256533,4.6800538 13.216085,5.5062475 12.636059,5.9519364 12.201953,6.4069926 11.94807,6.8928479 11.577089,6.4892575 11.039997,6.1620619 10.364382,5.8816813 9.5835689,5.5429482 8.5581559,5.2680265 7.1200819,5.4644196 Z" />
    <path
       id="path28850-7"
       style="fill:#4f2683;fill-opacity:1;stroke-width:0.292216"
       d="m 7.7289109,4.8372024 c -0.814203,0.00393 -1.776454,0.1379892 -2.925403,0.4692218 0.80033,3.229594 2.200602,4.442985 3.362068,5.0880608 0.633762,0.365336 1.220765,0.592175 1.7668185,0.640788 -0.2309225,0.4972 -0.3281725,1.118502 -0.3286635,1.850017 -0.02208,1.328397 0.3286685,3.148094 2.7254151,5.455997 2.396746,-2.307903 2.747495,-4.1276 2.725415,-5.455997 -5.02e-4,-0.731515 -0.09774,-1.352817 -0.328662,-1.850017 0.546052,-0.04861 1.133056,-0.275452 1.766818,-0.640788 C 17.654182,9.7494092 19.054455,8.5360182 19.854785,5.3064242 16.657709,4.3847334 14.906688,4.9910406 13.767301,5.6743604 13.134063,6.0405275 12.644274,6.4350285 12.329146,6.8835892 12.014019,6.4350285 11.52423,6.0405275 10.890991,5.6743604 10.161072,5.2366086 9.1803149,4.8301957 7.7289109,4.8372024 Z" />
  </g>
  <g
     inkscape:groupmode="layer"
     id="layer6"
     inkscape:label="Trillium Inner Loop Cutout">
    <path
       id="path28850-7-3-0"
       style="fill:#4f2683;fill-opacity:1;stroke-width:0.552219"
       transform="scale(0.26458333)"
       d="m 115.18945,105.25977 c -1.53865,0.008 -3.3561,0.26078 -5.52734,0.88671 1.51243,6.10317 4.15862,8.3962 6.35351,9.61524 1.19767,0.6904 2.30599,1.11907 3.3379,1.21094 -0.43639,0.93959 -0.62017,2.1137 -0.6211,3.49609 -0.0417,2.51035 0.62111,5.94916 5.15039,10.31055 4.52929,-4.36139 5.19212,-7.8002 5.15039,-10.31055 -9.5e-4,-1.38239 -0.1847,-2.5565 -0.62109,-3.49609 1.03191,-0.0919 2.14218,-0.52054 3.33984,-1.21094 2.1949,-1.21904 4.84108,-3.51207 6.35352,-9.61524 -6.04172,-1.74177 -9.35074,-0.596 -11.50391,0.69532 -1.19667,0.69196 -2.12323,1.43748 -2.71875,2.28515 -0.59551,-0.84767 -1.52012,-1.59319 -2.71679,-2.28515 -1.37938,-0.82725 -3.23376,-1.59527 -5.97657,-1.58203 z m 4.34766,4.55468 c 1.3714,-0.007 2.29859,0.37739 2.98828,0.79102 0.59833,0.34598 1.05967,0.71874 1.35742,1.14258 0.29776,-0.42384 0.76104,-0.7966 1.35938,-1.14258 1.07658,-0.64566 2.73109,-1.21855 5.75195,-0.34766 -0.75621,3.05159 -2.07833,4.19712 -3.17578,4.80664 -0.59883,0.34521 -1.15397,0.55955 -1.66992,0.60547 0.21819,0.4698 0.31007,1.05685 0.31054,1.74805 0.0209,1.25518 -0.31152,2.97555 -2.57617,5.15625 -2.26463,-2.1807 -2.595,-3.90107 -2.57422,-5.15625 4.6e-4,-0.6912 0.0924,-1.27825 0.31055,-1.74805 -0.51595,-0.0459 -1.07109,-0.26028 -1.66992,-0.60547 -1.09745,-0.60952 -2.41957,-1.75505 -3.17578,-4.80664 1.08562,-0.31296 1.99434,-0.43965 2.76367,-0.44336 z M 106.49805,96.152344 c -3.07731,0.01474 -6.714159,0.521533 -11.056644,1.773437 3.02487,12.206339 8.317234,16.792389 12.707034,19.230469 2.39532,1.38079 4.61391,2.23814 6.67773,2.42187 -0.87277,1.87919 -1.24033,4.22742 -1.24219,6.99219 -0.0834,5.02072 1.24221,11.89831 10.30079,20.6211 9.05856,-8.72278 10.38423,-15.60039 10.30078,-20.6211 -0.002,-2.76478 -0.36941,-5.113 -1.24219,-6.99219 2.06382,-0.18372 4.28241,-1.04107 6.67773,-2.42187 4.38979,-2.43808 9.68217,-7.02413 12.70703,-19.230469 -12.08343,-3.483556 -18.70146,-1.192002 -23.00781,1.390625 -2.39334,1.383934 -4.24451,2.874964 -5.43554,4.570314 -1.19104,-1.69535 -3.04221,-3.18638 -5.43555,-4.570314 -2.75875,-1.654495 -6.46555,-3.190542 -11.95117,-3.164062 z m 4.34765,4.609376 c 4.11422,-0.0199 6.89383,1.13218 8.96289,2.37305 1.79501,1.03795 3.1829,2.15622 4.07618,3.42773 0.89327,-1.27151 2.28116,-2.38978 4.07617,-3.42773 3.22976,-1.93697 8.19328,-3.655643 17.25586,-1.04297 -2.26865,9.15475 -6.23696,12.59526 -9.5293,14.42382 -1.79649,1.0356 -3.45995,1.67861 -5.00781,1.81641 0.65456,1.40939 0.93022,3.17056 0.93164,5.24414 0.0626,3.76554 -0.93264,8.92276 -7.72656,15.46485 -6.79393,-6.54209 -7.7872,-11.69931 -7.72461,-15.46485 10e-4,-2.07358 0.27706,-3.83475 0.93164,-5.24414 -1.54787,-0.1378 -3.21328,-0.78081 -5.00977,-1.81641 -3.29235,-1.82856 -7.26065,-5.26907 -9.5293,-14.42382 3.25686,-0.93893 5.985,-1.31912 8.29297,-1.33008 z" />
  </g>
</svg>
