<?xml version="1.0" encoding="UTF-8" standalone="no"?>
<!-- Created with Inkscape (http://www.inkscape.org/) -->

<svg
   width="120mm"
   height="60mm"
   viewBox="0 0 120 60"
   version="1.1"
   id="svg959"
   inkscape:version="1.1 (c4e8f9e, 2021-05-24)"
   sodipodi:docname="trilloop-simple-top-font.svg"
   xmlns:inkscape="http://www.inkscape.org/namespaces/inkscape"
   xmlns:sodipodi="http://sodipodi.sourceforge.net/DTD/sodipodi-0.dtd"
   xmlns="http://www.w3.org/2000/svg"
   xmlns:svg="http://www.w3.org/2000/svg">
  <sodipodi:namedview
     id="namedview961"
     pagecolor="#000000"
     bordercolor="#666666"
     borderopacity="1.0"
     inkscape:pageshadow="2"
     inkscape:pageopacity="0"
     inkscape:pagecheckerboard="0"
     inkscape:document-units="mm"
     showgrid="false"
     showguides="false"
     inkscape:zoom="4.3994184"
     inkscape:cx="214.00556"
     inkscape:cy="114.44695"
     inkscape:window-width="3440"
     inkscape:window-height="1387"
     inkscape:window-x="0"
     inkscape:window-y="25"
     inkscape:window-maximized="1"
     inkscape:current-layer="layer1" />
  <defs
     id="defs956" />
  <g
     inkscape:label="Layer 1"
     inkscape:groupmode="layer"
     id="layer1">
    <path
       id="path1600-3-7-2-3-2-9"
       style="fill:#4f2683;fill-opacity:1;fill-rule:nonzero;stroke-width:0.322024"
       d="M 7.6362042,16.000351 C 5.8673526,16.007451 3.9835439,16.12368 2,16.384056 c 4.0867797,9.855971 10.311591,15.200833 12.883604,16.72124 2.318623,1.229866 6.407514,0.727352 9.255433,-0.718476 -2.10559,0.720135 -4.599423,0.851696 -6.129713,0.03996 -2.057599,-1.216343 -7.038066,-5.491721 -10.3074811,-13.376511 8.4631181,-1.110984 14.6563691,1.063993 16.7385421,2.237773 0.348578,0.218313 0.678088,0.510011 0.984031,0.857513 -0.669866,-1.280512 -1.526062,-2.353705 -2.501538,-2.9646 -2.114713,-1.192112 -7.621643,-3.210639 -15.2866738,-3.180624 z m 37.2275918,0 c -7.665041,-0.0299 -13.171972,1.988501 -15.286674,3.180624 -2.224405,1.393059 -3.833484,5.184765 -4.005313,8.374043 0.429145,-2.183561 1.561527,-4.408877 3.029643,-5.328284 2.082183,-1.173756 8.275414,-3.34877 16.738543,-2.237773 -3.269416,7.884776 -8.249868,12.160191 -10.307481,13.376511 -0.363356,0.19272 -0.780744,0.332474 -1.234659,0.423684 1.44388,0.06015 2.801751,-0.144522 3.818541,-0.68386 C 40.188399,31.584876 46.41322,26.240036 50.5,16.384056 48.516456,16.12366 46.632647,16.007279 44.863796,16.000351 Z M 29.040054,31.211837 c 1.676446,1.46343 3.037287,3.557168 3.099462,5.28831 -0.02451,2.390101 -1.23734,8.841083 -6.431053,15.61488 -5.193723,-6.773797 -6.4065,-13.224779 -6.431063,-15.61488 0.01478,-0.411042 0.102637,-0.842497 0.250623,-1.281201 -0.774023,1.220376 -1.275688,2.498827 -1.317003,3.649061 0.03056,2.987632 1.547137,11.05091 8.039273,19.518154 6.492127,-8.467244 8.00856,-16.530522 8.039275,-19.518154 -0.0942,-2.622926 -2.573443,-5.912718 -5.24952,-7.65617 z" />
    <path
       id="path1600-3-7-2-3-28-2"
       style="fill:#4f2683;fill-opacity:1;fill-rule:nonzero;stroke-width:0.322024"
       d="m 71.636209,16.000338 c -1.768853,0.0071 -3.652663,0.122725 -5.636209,0.383106 4.086784,9.855969 10.311599,15.20083 12.883612,16.721239 2.318624,1.229869 6.407521,0.727953 9.25543,-0.717878 -2.105582,0.720132 -4.599417,0.851698 -6.129709,0.03997 -2.057601,-1.216349 -7.038066,-5.492317 -10.307487,-13.377111 8.463124,-1.110985 14.656368,1.064589 16.738543,2.238371 0.348577,0.218309 0.678088,0.51001 0.984031,0.857514 -0.669867,-1.28051 -1.526065,-2.354302 -2.501538,-2.965195 -2.114717,-1.192114 -7.62165,-3.210042 -15.286673,-3.180023 z m 16.502833,16.386467 c -1.605651,1.046077 -3.093018,3.019946 -3.149591,4.593704 0.01848,1.792582 0.928164,6.630663 4.823442,11.711007 3.89529,-5.080344 4.804977,-9.918425 4.823453,-11.711007 -0.02483,-0.690146 -0.325654,-1.457216 -0.790088,-2.18944 0.0888,0.263215 0.141123,0.521978 0.150361,0.7686 -0.01478,1.434053 -0.742292,5.304535 -3.858522,9.368811 -3.116218,-4.064276 -3.84433,-7.934758 -3.859111,-9.368811 0.03729,-1.038684 0.854165,-2.294808 1.860033,-3.172864 z M 108.86379,16.000338 c -7.66504,-0.0299 -13.171956,1.987903 -15.286662,3.180025 -2.224406,1.393057 -3.833486,5.185364 -4.005315,8.374641 0.429145,-2.18356 1.561528,-4.409472 3.029646,-5.328884 2.082186,-1.173757 8.275401,-3.348766 16.738531,-2.237772 -3.26942,7.884779 -8.24986,12.160787 -10.307464,13.37711 -0.363369,0.192717 -0.780747,0.331897 -1.234661,0.42309 1.44388,0.06015 2.801735,-0.144521 3.818525,-0.683865 2.57201,-1.520416 8.79681,-6.86526 12.88361,-16.721239 -1.98356,-0.260392 -3.86736,-0.37618 -5.63621,-0.383106 z M 89.571813,27.555004 c -0.10312,-1.913566 -1.069033,-4.18929 -2.403672,-5.025145 -1.561642,-0.880316 -6.206269,-2.511256 -12.553604,-1.678031 2.452068,5.913592 6.18695,9.12072 7.730163,10.032983 0.610072,0.323636 1.424538,0.446587 2.290886,0.410557 -0.272351,-0.05471 -0.52253,-0.13861 -0.74056,-0.254213 -1.234557,-0.729797 -4.222954,-3.295271 -6.184607,-8.026147 5.077883,-0.666597 8.793827,0.638424 10.043129,1.342665 0.880876,0.551653 1.560777,1.887195 1.818265,3.197331 z M 102.94116,21.37935 c -4.599021,-0.01815 -7.903049,1.19311 -9.171879,1.90837 -0.585279,0.366545 -1.098894,1.010573 -1.50081,1.778883 0.18355,-0.208502 0.381037,-0.383373 0.590176,-0.514393 1.249292,-0.704254 4.965258,-2.00926 10.043123,-1.342665 -1.96165,4.730877 -4.949455,7.29634 -6.184,8.026151 -0.918174,0.48704 -2.414353,0.40761 -3.677709,-0.02451 1.708748,0.867493 4.161474,1.168753 5.552662,0.430848 1.543197,-0.912264 5.278087,-4.118807 7.730147,-10.032387 -1.19013,-0.156242 -2.32039,-0.226168 -3.38171,-0.230332 z m -9.901099,9.831878 c 1.676449,1.463429 3.03729,3.557167 3.099462,5.288308 -0.02448,2.390102 -1.237351,8.841088 -6.431055,15.614882 -5.193717,-6.773794 -6.406506,-13.22478 -6.431067,-15.614882 0.01478,-0.411038 0.102659,-0.842497 0.250618,-1.281201 -0.774026,1.220374 -1.275689,2.498829 -1.317006,3.649062 0.03061,2.987635 1.547138,11.050916 8.039281,19.518155 6.492118,-8.467239 8.008553,-16.53052 8.039269,-19.518155 -0.09423,-2.622926 -2.573434,-5.912719 -5.249514,-7.656169 z" />
    <text
       xml:space="preserve"
       style="font-style:normal;font-weight:normal;font-size:7.76111px;line-height:1.25;font-family:sans-serif;letter-spacing:0px;fill:#ffffff;fill-opacity:1;stroke:none;stroke-width:0.264583"
       x="50.939266"
       y="7.0604649"
       id="text4209-1"><tspan
         sodipodi:role="line"
         id="tspan4207-0"
         style="font-style:normal;font-variant:normal;font-weight:bold;font-stretch:normal;font-size:7.76111px;font-family:'Source Sans Pro';-inkscape-font-specification:'Source Sans Pro Bold';text-align:end;text-anchor:end;fill:#ffffff;fill-opacity:1;stroke-width:0.264583"
         x="50.939266"
         y="7.0604649">TRILLIUM</tspan><tspan
         sodipodi:role="line"
         style="font-style:normal;font-variant:normal;font-weight:bold;font-stretch:normal;font-size:7.76111px;font-family:'Source Sans Pro';-inkscape-font-specification:'Source Sans Pro Bold';text-align:end;text-anchor:end;fill:#ffffff;fill-opacity:1;stroke-width:0.264583"
         x="50.939266"
         y="17.051577"
         id="tspan6796" /></text>
    <path
       id="rect5213-1"
       style="fill:#4f2683;fill-opacity:1;stroke:none;stroke-width:0.419518;stroke-linejoin:round"
       d="m 9.3811352,2 -2.847371,4.931999 h 1.295529 L 10.676665,2.000517 Z m -2.199349,5.17e-4 -2.847371,4.931998 h 1.295529 l 2.847888,-4.931481 z m -2.199349,5.17e-4 -2.847371,4.931998 h 1.295011 l 2.84789,-4.931482 z m 6.5825448,0.03979 -0.647507,1.122412 5.694744,-5.17e-4 0.647504,-1.121895 z M 10.464789,3.946133 9.8172852,5.068546 15.512028,5.068029 16.159533,3.946133 Z M 9.3645992,5.85041 8.7170922,6.972822 14.411835,6.972305 15.059342,5.85041 Z" />
    <text
       xml:space="preserve"
       style="font-style:normal;font-weight:normal;font-size:9.17222px;line-height:1.25;font-family:sans-serif;fill:#ffffff;fill-opacity:1;stroke:none;stroke-width:0.264583"
       x="1.2937391"
       y="14.209394"
       id="text11476"><tspan
         sodipodi:role="line"
         id="tspan11474"
         style="font-style:normal;font-variant:normal;font-weight:bold;font-stretch:normal;font-size:9.17222px;font-family:'Source Sans Pro';-inkscape-font-specification:'Source Sans Pro Bold';fill:#ffffff;fill-opacity:1;stroke-width:0.264583"
         x="1.2937391"
         y="14.209394">HYPERLOOP</tspan></text>
    <text
       xml:space="preserve"
       style="font-style:normal;font-weight:normal;font-size:7.76111px;line-height:1.25;font-family:sans-serif;letter-spacing:0px;fill:#ffffff;fill-opacity:1;stroke:none;stroke-width:0.264583"
       x="114.93926"
       y="7.0604649"
       id="text4209-1-4"><tspan
         sodipodi:role="line"
         id="tspan4207-0-1"
         style="font-style:normal;font-variant:normal;font-weight:bold;font-stretch:normal;font-size:7.76111px;font-family:'Source Sans Pro';-inkscape-font-specification:'Source Sans Pro Bold';text-align:end;text-anchor:end;fill:#ffffff;fill-opacity:1;stroke-width:0.264583"
         x="114.93926"
         y="7.0604649">TRILLIUM</tspan><tspan
         sodipodi:role="line"
         style="font-style:normal;font-variant:normal;font-weight:bold;font-stretch:normal;font-size:7.76111px;font-family:'Source Sans Pro';-inkscape-font-specification:'Source Sans Pro Bold';text-align:end;text-anchor:end;fill:#ffffff;fill-opacity:1;stroke-width:0.264583"
         x="114.93926"
         y="17.051577"
         id="tspan6796-9" /></text>
    <path
       id="rect5213-1-6"
       style="fill:#4f2683;fill-opacity:1;stroke:none;stroke-width:0.419518;stroke-linejoin:round"
       d="m 73.38113,2 -2.847371,4.931999 h 1.295529 L 74.67666,2.000517 Z m -2.199349,5.17e-4 -2.847371,4.931998 h 1.295529 l 2.847888,-4.931481 z m -2.199349,5.17e-4 -2.847371,4.931998 h 1.295011 l 2.84789,-4.931482 z m 6.582545,0.03979 -0.647507,1.122412 5.694744,-5.17e-4 0.647504,-1.121895 z M 74.464784,3.946133 73.81728,5.068546 79.512023,5.068029 80.159528,3.946133 Z M 73.364594,5.85041 72.717087,6.972822 78.41183,6.972305 79.059337,5.85041 Z" />
    <text
       xml:space="preserve"
       style="font-style:normal;font-weight:normal;font-size:9.17222px;line-height:1.25;font-family:sans-serif;fill:#ffffff;fill-opacity:1;stroke:none;stroke-width:0.264583"
       x="65.293739"
       y="14.209396"
       id="text11476-8"><tspan
         sodipodi:role="line"
         id="tspan11474-4"
         style="font-style:normal;font-variant:normal;font-weight:bold;font-stretch:normal;font-size:9.17222px;font-family:'Source Sans Pro';-inkscape-font-specification:'Source Sans Pro Bold';fill:#ffffff;fill-opacity:1;stroke-width:0.264583"
         x="65.293739"
         y="14.209396">HYPERLOOP</tspan></text>
  </g>
</svg>
