<?xml version="1.0" encoding="UTF-8" standalone="no"?>
<!-- Created with Inkscape (http://www.inkscape.org/) -->

<svg
   width="130mm"
   height="100mm"
   viewBox="0 0 130 100"
   version="1.1"
   id="svg24897"
   inkscape:version="1.1 (c4e8f9e, 2021-05-24)"
   sodipodi:docname="trillium-gray-side-text.svg"
   xmlns:inkscape="http://www.inkscape.org/namespaces/inkscape"
   xmlns:sodipodi="http://sodipodi.sourceforge.net/DTD/sodipodi-0.dtd"
   xmlns="http://www.w3.org/2000/svg"
   xmlns:svg="http://www.w3.org/2000/svg">
  <sodipodi:namedview
     id="namedview24899"
     pagecolor="#ffffff"
     bordercolor="#666666"
     borderopacity="1.0"
     inkscape:pageshadow="2"
     inkscape:pageopacity="0"
     inkscape:pagecheckerboard="0"
     inkscape:document-units="mm"
     showgrid="false"
     inkscape:zoom="3.1108586"
     inkscape:cx="220.35717"
     inkscape:cy="187.24734"
     inkscape:window-width="3440"
     inkscape:window-height="1387"
     inkscape:window-x="0"
     inkscape:window-y="25"
     inkscape:window-maximized="1"
     inkscape:current-layer="layer1" />
  <defs
     id="defs24894" />
  <g
     inkscape:label="Layer 1"
     inkscape:groupmode="layer"
     id="layer1">
    <path
       id="path1600-3-5-0-9-8"
       style="fill:#807f83;fill-opacity:1;fill-rule:nonzero;stroke-width:0.224896"
       d="m 23.00021,2 c -1.60035,3.2092002 -2.66084,6.3480202 -3.35224,9.08369 0.5559,0.2023 1.02526,0.4037 1.39785,0.58807 0.50066,-1.51962 1.14002,-3.1299298 1.9544,-4.7630098 0.97796,1.96109 1.70496,3.8901298 2.24017,5.6673498 0.34605,-0.18101 0.79325,-0.38242 1.33119,-0.58756 C 25.89333,9.0520102 24.78027,5.5695502 23.00021,2 Z M 14.15579,20.25987 C 11.98128,22.3024 9.5677801,24.97384 7.4047801,28.24232 11.05044,28.01965 14.35364,27.34853 17.09826,26.56079 c -0.0916,-0.60987 -0.13201,-1.11829 -0.13644,-1.50535 -1.62054,0.34713 -3.40503,0.61616 -5.30562,0.73226 1.16647,-1.76263 2.42387,-3.30681 3.6525,-4.62761 -0.33848,-0.23633 -0.72782,-0.53639 -1.15291,-0.90022 z m 17.69402,1.19681 c -0.48293,0.38489 -0.9038,0.67474 -1.23714,0.87231 1.11104,1.23026 2.23616,2.64057 3.28714,4.22868 -2.10936,-0.12886 -4.07599,-0.44495 -5.83376,-0.84852 -0.0354,0.41084 -0.10071,0.8972 -0.20308,1.44642 2.85609,0.86207 6.37524,1.61719 10.28826,1.85621 -2.01501,-3.04485 -4.24731,-5.57207 -6.30142,-7.5551 z" />
    <path
       id="path1600-3-7-2-3-2-3"
       style="fill:#4f2683;fill-opacity:1;fill-rule:nonzero;stroke-width:0.278866"
       d="m 39.119182,7.2946882 c -6.637769,-0.02599 -11.406659,1.721999 -13.237954,2.7543538 -1.92628,1.20636 -3.319721,4.489903 -3.46852,7.251753 0.371628,-1.89092 1.352769,-3.817998 2.624129,-4.614188 1.80313,-1.01645 7.165822,-2.8999658 14.494722,-1.937866 -2.831251,6.828059 -7.143695,10.53048 -8.925552,11.583789 -0.314661,0.166888 -0.676625,0.287922 -1.069703,0.366903 1.250368,0.0521 2.426253,-0.125154 3.306773,-0.592212 2.2273,-1.316651 7.617873,-5.945174 11.156942,-14.4802538 -1.717712,-0.225491 -3.349045,-0.32628 -4.880837,-0.332279 z M 6.8808388,7.2952052 C 5.3490474,7.3012032 3.7177099,7.4014762 2,7.6269672 5.5390698,16.162037 10.929632,20.79058 13.156941,22.107221 c 2.00788,1.065038 5.548785,0.630391 8.015015,-0.621668 -1.8234,0.623621 -3.983003,0.737553 -5.308203,0.03462 -1.78184,-1.053331 -6.0948202,-4.756237 -8.9260701,-11.5843068 7.3288901,-0.96209 12.6921191,0.9213968 14.4952391,1.9378658 0.30187,0.189061 0.587721,0.442178 0.852661,0.743108 C 21.705503,11.50794 20.96353,10.578058 20.11879,10.049038 18.287497,9.0166952 13.518602,7.2692112 6.8808388,7.2952052 Z M 25.416141,20.467527 c 1.451772,1.267301 2.630244,3.080435 2.684074,4.579564 -0.0213,2.069783 -1.071518,7.656203 -5.56917,13.522174 -4.497639,-5.865971 -5.547888,-11.452391 -5.569168,-13.522174 0.0128,-0.355949 0.0889,-0.72958 0.217041,-1.10949 -0.67028,1.05682 -1.104729,2.163931 -1.140499,3.160011 0.0266,2.587231 1.339799,9.569868 6.961849,16.902329 5.622049,-7.332461 6.935258,-14.315098 6.961849,-16.902329 -0.0816,-2.271398 -2.228546,-5.120296 -4.545976,-6.630085 z" />
    <path
       id="path1600-3-5-0-91"
       style="fill:#807f83;fill-opacity:1;fill-rule:nonzero;stroke-width:0.224896"
       d="m 23.000117,52 c -1.60036,3.2092 -2.66084,6.34802 -3.35225,9.08369 0.5559,0.2023 1.02526,0.4037 1.39784,0.58807 0.50067,-1.51962 1.14002,-3.12993 1.95441,-4.76301 0.97795,1.96108 1.70495,3.89013 2.24017,5.66735 0.34605,-0.18101 0.79324,-0.38242 1.33119,-0.58756 C 25.893217,59.05201 24.780167,55.56955 23.000117,52 Z m -8.84442,18.25987 c -2.17452,2.04253 -4.5880204,4.71397 -6.7510104,7.98245 3.6456504,-0.22267 6.9488504,-0.89379 9.6934604,-1.68153 -0.0916,-0.60987 -0.132,-1.11829 -0.13643,-1.50535 -1.62054,0.34713 -3.40504,0.61616 -5.30561,0.73226 1.16646,-1.76263 2.42386,-3.30681 3.65249,-4.62761 -0.33847,-0.23633 -0.72783,-0.53639 -1.1529,-0.90022 z m 17.69401,1.19681 c -0.48293,0.38489 -0.9038,0.67474 -1.23714,0.87231 1.11104,1.23026 2.23616,2.64057 3.28714,4.22867 -2.10936,-0.12885 -4.07599,-0.44495 -5.83375,-0.84851 -0.0354,0.41084 -0.10072,0.8972 -0.20309,1.44642 2.85609,0.86207 6.37523,1.61719 10.28826,1.85621 -2.01501,-3.04485 -4.2473,-5.57207 -6.30142,-7.5551 z" />
    <path
       id="path1600-3-7-2-3-28"
       style="fill:#4f2683;fill-opacity:1;fill-rule:nonzero;stroke-width:0.278866"
       d="M 6.8808391,57.294702 C 5.3490479,57.3007 3.7177099,57.40149 2,57.626982 c 3.5390701,8.535069 8.929632,13.16361 11.156942,14.480251 2.00788,1.065041 5.548784,0.629875 8.015014,-0.622184 -1.82339,0.623621 -3.983003,0.738072 -5.308203,0.03514 -1.78184,-1.05333 -6.0948199,-4.756235 -8.9260701,-11.584305 7.3288901,-0.962091 12.6921191,0.921395 14.4952391,1.937866 0.30186,0.189058 0.587206,0.442177 0.852143,0.743107 C 21.704977,61.507956 20.96353,60.578075 20.118791,60.049054 18.287489,59.016708 13.5186,57.268707 6.8808391,57.294702 Z M 21.171956,71.485049 c -1.39046,0.905881 -2.678482,2.615211 -2.727482,3.978053 0.01596,1.55234 0.803776,5.742022 4.177007,10.141498 3.373239,-4.399476 4.161006,-8.589158 4.177006,-10.141498 -0.02147,-0.597651 -0.282017,-1.261404 -0.684197,-1.895493 0.07693,0.227941 0.122224,0.452022 0.130225,0.665593 -0.01277,1.241859 -0.642808,4.593619 -3.341399,8.1132 -2.698589,-3.519581 -3.329114,-6.871341 -3.341914,-8.1132 0.0323,-0.89948 0.739694,-1.987772 1.610754,-2.748153 z M 39.11918,57.294702 c -6.637769,-0.02599 -11.406656,1.721998 -13.237951,2.754352 -1.926291,1.20636 -3.319722,4.489905 -3.468521,7.251756 0.371629,-1.890922 1.352251,-3.817999 2.623611,-4.614191 1.80313,-1.01645 7.16634,-2.899965 14.49524,-1.937866 -2.83125,6.828062 -7.14422,10.53048 -8.92607,11.583789 -0.314661,0.166891 -0.676106,0.287924 -1.069187,0.366903 1.250371,0.0521 2.426256,-0.125151 3.306776,-0.592212 2.2273,-1.316649 7.617873,-5.945172 11.156942,-14.480251 C 42.282308,57.40149 40.650974,57.3007 39.11918,57.294702 Z M 22.412708,67.30081 c -0.08929,-1.657112 -0.925758,-3.627327 -2.081527,-4.351158 -1.35235,-0.762339 -5.374501,-2.1747 -10.8711712,-1.453139 2.1234402,5.12105 5.3577752,7.898357 6.6941652,8.688358 0.52831,0.280271 1.233628,0.386218 1.983858,0.355015 -0.23584,-0.04738 -0.452495,-0.120031 -0.641305,-0.220141 -1.0691,-0.631989 -3.656995,-2.85364 -5.355745,-6.95048 4.39734,-0.57726 7.615273,0.553376 8.697143,1.163238 0.76282,0.477719 1.351602,1.633755 1.574582,2.768307 z m 11.349178,-5.347478 c -3.863538,0.0243 -6.636605,1.044607 -7.714258,1.652095 -0.506841,0.317421 -0.951613,0.875652 -1.299662,1.540992 0.158959,-0.18056 0.330486,-0.332507 0.511596,-0.445969 1.08186,-0.60987 4.299286,-1.739979 8.696626,-1.162719 -1.698749,4.09684 -4.286139,6.31848 -5.355227,6.95048 -0.795121,0.421769 -2.09078,0.353499 -3.184819,-0.02067 1.47974,0.751229 3.603752,1.012114 4.808492,0.373103 1.336379,-0.789999 4.570725,-3.567319 6.694165,-8.688359 -1.116512,-0.146568 -2.172092,-0.20515 -3.156913,-0.198953 z m -8.345744,8.514209 c 1.451769,1.267299 2.630233,3.080436 2.684073,4.579565 -0.0213,2.06978 -1.07152,7.656203 -5.569169,13.522171 -4.49765,-5.865968 -5.547899,-11.452391 -5.569169,-13.522171 0.0128,-0.35595 0.0889,-0.729584 0.217041,-1.109493 -0.67029,1.056819 -1.104719,2.163934 -1.140499,3.160014 0.0266,2.58723 1.339789,9.569867 6.96185,16.902326 5.622049,-7.332459 6.935247,-14.315096 6.961848,-16.902326 -0.0816,-2.271401 -2.228545,-5.120296 -4.545975,-6.630086 z" />
    <text
       xml:space="preserve"
       style="font-style:normal;font-weight:normal;font-size:13.4723px;line-height:1.25;font-family:sans-serif;letter-spacing:0px;fill:#000000;fill-opacity:1;stroke:none;stroke-width:0.459282"
       x="126.95226"
       y="16.411318"
       id="text4209-1"><tspan
         sodipodi:role="line"
         id="tspan4207-0"
         style="font-style:normal;font-variant:normal;font-weight:bold;font-stretch:normal;font-size:13.4723px;font-family:'Source Sans Pro';-inkscape-font-specification:'Source Sans Pro Bold';text-align:end;text-anchor:end;fill:#000000;fill-opacity:1;stroke-width:0.459282"
         x="126.95226"
         y="16.411318">TRILLIUM</tspan><tspan
         sodipodi:role="line"
         style="font-style:normal;font-variant:normal;font-weight:bold;font-stretch:normal;font-size:13.4723px;font-family:'Source Sans Pro';-inkscape-font-specification:'Source Sans Pro Bold';text-align:end;text-anchor:end;fill:#000000;fill-opacity:1;stroke-width:0.459282"
         x="126.95226"
         y="33.754616"
         id="tspan6796" /></text>
    <path
       id="rect5213-1"
       style="fill:#4f2683;fill-opacity:1;stroke:none;stroke-width:0.728229;stroke-linejoin:round"
       d="m 54.812703,7.627 -4.94267,8.561316 h 2.248871 l 4.942672,-8.560419 z m -3.817787,8.97e-4 -4.94267,8.561315 h 2.248871 l 4.943568,-8.560417 z m -3.817787,8.98e-4 -4.94267,8.561314 h 2.247972 l 4.943571,-8.560418 z m 11.426451,0.06907 -1.123989,1.948363 9.885343,-8.97e-4 1.123984,-1.947466 z m -1.909793,3.307372 -1.123984,1.948364 9.885341,-8.97e-4 1.123986,-1.947467 z m -1.909789,3.30558 -1.123989,1.948362 9.885342,-8.97e-4 1.123989,-1.947465 z" />
    <text
       xml:space="preserve"
       style="font-style:normal;font-weight:normal;font-size:15.9218px;line-height:1.25;font-family:sans-serif;fill:#000000;fill-opacity:1;stroke:none;stroke-width:0.459282"
       x="40.774021"
       y="28.82094"
       id="text11476"><tspan
         sodipodi:role="line"
         id="tspan11474"
         style="font-style:normal;font-variant:normal;font-weight:bold;font-stretch:normal;font-size:15.9218px;font-family:'Source Sans Pro';-inkscape-font-specification:'Source Sans Pro Bold';fill:#000000;fill-opacity:1;stroke-width:0.459282"
         x="40.774021"
         y="28.82094">HYPERLOOP</tspan></text>
    <text
       xml:space="preserve"
       style="font-style:normal;font-weight:normal;font-size:13.4723px;line-height:1.25;font-family:sans-serif;letter-spacing:0px;fill:#000000;fill-opacity:1;stroke:none;stroke-width:0.459282"
       x="126.69714"
       y="66.411316"
       id="text4209-1-5"><tspan
         sodipodi:role="line"
         id="tspan4207-0-4"
         style="font-style:normal;font-variant:normal;font-weight:bold;font-stretch:normal;font-size:13.4723px;font-family:'Source Sans Pro';-inkscape-font-specification:'Source Sans Pro Bold';text-align:end;text-anchor:end;fill:#000000;fill-opacity:1;stroke-width:0.459282"
         x="126.69714"
         y="66.411316">TRILLIUM</tspan><tspan
         sodipodi:role="line"
         style="font-style:normal;font-variant:normal;font-weight:bold;font-stretch:normal;font-size:13.4723px;font-family:'Source Sans Pro';-inkscape-font-specification:'Source Sans Pro Bold';text-align:end;text-anchor:end;fill:#000000;fill-opacity:1;stroke-width:0.459282"
         x="126.69714"
         y="83.754616"
         id="tspan6796-2" /></text>
    <path
       id="rect5213-1-2"
       style="fill:#4f2683;fill-opacity:1;stroke:none;stroke-width:0.72823;stroke-linejoin:round"
       d="m 54.557547,57.627 -4.942673,8.56132 h 2.248873 l 4.942674,-8.560423 z m -3.817789,8.97e-4 -4.942672,8.561319 h 2.248872 l 4.94357,-8.560421 z m -3.817789,8.98e-4 -4.942672,8.561318 h 2.247973 l 4.943574,-8.560422 z m 11.426457,0.06907 -1.12399,1.948364 9.885348,-8.97e-4 1.123984,-1.947467 z m -1.909795,3.307373 -1.123984,1.948366 9.885346,-8.98e-4 1.123986,-1.947468 z m -1.909789,3.305582 -1.123989,1.948363 9.885346,-8.97e-4 1.123989,-1.947466 z" />
    <text
       xml:space="preserve"
       style="font-style:normal;font-weight:normal;font-size:15.9218px;line-height:1.25;font-family:sans-serif;fill:#000000;fill-opacity:1;stroke:none;stroke-width:0.459282"
       x="40.518867"
       y="78.820938"
       id="text11476-4"><tspan
         sodipodi:role="line"
         id="tspan11474-2"
         style="font-style:normal;font-variant:normal;font-weight:bold;font-stretch:normal;font-size:15.9218px;font-family:'Source Sans Pro';-inkscape-font-specification:'Source Sans Pro Bold';fill:#000000;fill-opacity:1;stroke-width:0.459282"
         x="40.518867"
         y="78.820938">HYPERLOOP</tspan></text>
  </g>
</svg>
