<?xml version="1.0" encoding="UTF-8" standalone="no"?>
<!-- Created with Inkscape (http://www.inkscape.org/) -->

<svg
   width="160mm"
   height="110mm"
   viewBox="0 0 160 110"
   version="1.1"
   id="svg15072"
   inkscape:version="1.1 (c4e8f9e, 2021-05-24)"
   sodipodi:docname="trilloop-less-phallic-final.svg"
   xmlns:inkscape="http://www.inkscape.org/namespaces/inkscape"
   xmlns:sodipodi="http://sodipodi.sourceforge.net/DTD/sodipodi-0.dtd"
   xmlns:xlink="http://www.w3.org/1999/xlink"
   xmlns="http://www.w3.org/2000/svg"
   xmlns:svg="http://www.w3.org/2000/svg">
  <sodipodi:namedview
     id="namedview15074"
     pagecolor="#000000"
     bordercolor="#666666"
     borderopacity="1.0"
     inkscape:pageshadow="2"
     inkscape:pageopacity="0"
     inkscape:pagecheckerboard="0"
     inkscape:document-units="mm"
     showgrid="false"
     inkscape:snap-nodes="true"
     inkscape:zoom="3.1108586"
     inkscape:cx="291.39865"
     inkscape:cy="206.53462"
     inkscape:window-width="3440"
     inkscape:window-height="1387"
     inkscape:window-x="0"
     inkscape:window-y="25"
     inkscape:window-maximized="1"
     inkscape:current-layer="layer1" />
  <defs
     id="defs15069">
    <inkscape:path-effect
       effect="fill_between_many"
       method="originald"
       linkedpaths="#path1600-3-5-0-9-5,0,1"
       id="path-effect15866"
       is_visible="true"
       lpeversion="0"
       join="true"
       close="true"
       autoreverse="true"
       applied="false" />
  </defs>
  <g
     inkscape:label="Layer 1"
     inkscape:groupmode="layer"
     id="layer1">
    <use
       x="0"
       y="0"
       xlink:href="#path15868"
       id="use16108"
       transform="translate(-0.12028105,48.834107)"
       width="100%"
       height="100%" />
    <path
       inkscape:original-d="M 2.8867455,-18.222579"
       inkscape:path-effect="#path-effect15866"
       d="m 27.183516,9.8796913 c -1.315505,2.6379947 -2.246282,5.2252207 -2.89892,7.5582977 -2.285011,-1.223655 -8.553977,-3.328515 -17.0508439,-2.213096 3.1194759,7.523154 7.7512729,11.849568 10.0939309,13.434194 -1.652802,1.704945 -3.376888,3.758854 -4.959826,6.150812 3.035898,-0.185425 5.821438,-0.698188 8.219085,-1.325991 -0.008,0.08007 -0.01435,0.1599 -0.01718,0.238591 0.02527,2.457869 1.272799,9.091374 6.613756,16.057211 4.955648,-6.46332 6.386309,-12.638262 6.587246,-15.459262 2.302638,0.579137 4.942578,1.04552 7.806215,1.22044 -1.677826,-2.535334 -3.514335,-4.692886 -5.256345,-6.455677 0.07289,-0.03297 0.144868,-0.06738 0.214043,-0.104076 2.115935,-1.250819 7.236489,-5.647916 10.598605,-13.756242 -8.496876,-1.115419 -14.765843,0.989431 -17.050847,2.213096 -0.652439,-2.332888 -1.583232,-4.919957 -2.898917,-7.5582977 z"
       id="path15868"
       style="fill:#ffffff;fill-opacity:1;stroke:none;stroke-opacity:1" />
    <path
       id="path1600-3-5-0-9-5"
       style="fill:#ffffff;fill-opacity:1;fill-rule:nonzero;stroke-width:0.213651"
       d="m 27.183516,9.8796913 c -1.315505,2.6379947 -2.246282,5.2252207 -2.89892,7.5582977 -2.285011,-1.223655 -8.553977,-3.328515 -17.0508439,-2.213096 3.1194759,7.523154 7.7512729,11.849568 10.0939309,13.434194 -1.652802,1.704945 -3.376888,3.758854 -4.959826,6.150812 3.035898,-0.185425 5.821438,-0.698188 8.219085,-1.325991 -0.008,0.08007 -0.01435,0.1599 -0.01718,0.238591 0.02527,2.457869 1.272799,9.091374 6.613756,16.057211 4.955648,-6.46332 6.386309,-12.638262 6.587246,-15.459262 2.302638,0.579137 4.942578,1.04552 7.806215,1.22044 -1.677826,-2.535334 -3.514335,-4.692886 -5.256345,-6.455677 0.07289,-0.03297 0.144868,-0.06738 0.214043,-0.104076 2.115935,-1.250819 7.236489,-5.647916 10.598605,-13.756242 -8.496876,-1.115419 -14.765843,0.989431 -17.050847,2.213096 -0.652439,-2.332888 -1.583232,-4.919957 -2.898917,-7.5582977 z m 0,4.6633057 c 0.670648,1.34484 1.215503,2.672807 1.65884,3.943119 -1.25471,1.474083 -2.105323,3.856168 -2.217025,5.929407 0.35305,-1.796375 1.285132,-3.627101 2.492924,-4.383481 0.07237,-0.04079 0.152795,-0.08368 0.237117,-0.12715 0.06044,-0.03115 0.123437,-0.06297 0.189988,-0.09524 0.0198,-0.0096 0.04005,-0.01926 0.06038,-0.02897 0.276199,-0.131586 0.599875,-0.270526 0.970559,-0.411885 2.411339,-0.919562 6.768407,-1.905949 12.311939,-1.178224 -2.18499,5.269487 -5.298486,8.579824 -7.297619,10.172972 -3.49e-4,2.79e-4 -6.31e-4,7.02e-4 -9.5e-4,9.5e-4 -0.09845,0.07845 -0.192942,0.150762 -0.28572,0.220918 -0.03189,0.02411 -0.06357,0.04757 -0.09474,0.07069 -0.07924,0.0588 -0.156782,0.115375 -0.231228,0.167897 -0.0091,0.0065 -0.01939,0.01425 -0.02847,0.02061 -0.0034,0.0024 -0.0069,0.0045 -0.01031,0.0068 -0.08136,0.05688 -0.158177,0.108335 -0.233192,0.15759 -0.02573,0.01688 -0.05115,0.0331 -0.0761,0.04909 -0.06105,0.03915 -0.119556,0.07614 -0.175752,0.109968 -0.01477,0.0089 -0.03074,0.01896 -0.04516,0.02749 -0.298925,0.158546 -0.64279,0.273529 -1.016217,0.348558 0.447036,0.01863 0.884146,0.0064 1.299974,-0.03977 0.964699,1.093795 1.934323,2.328301 2.845407,3.705018 -1.370252,-0.08371 -2.675077,-0.252035 -3.898445,-0.47178 -0.526057,-1.943812 -2.284187,-4.090994 -4.161088,-5.313782 1.37918,1.203933 2.498722,2.926413 2.54987,4.350586 -0.0019,0.184341 -0.01242,0.397673 -0.03338,0.638203 -0.007,0.08018 -0.01516,0.163345 -0.02455,0.249391 -4.07e-4,0.0037 -0.001,0.007 -0.0015,0.0108 -0.0046,0.04186 -0.01002,0.0864 -0.01522,0.129604 -0.008,0.0658 -0.01616,0.131925 -0.02553,0.200789 -0.0036,0.02698 -0.0079,0.05454 -0.01178,0.08198 -0.013,0.09154 -0.02717,0.185243 -0.04271,0.281792 -0.0017,0.01042 -0.0028,0.01996 -0.0044,0.03044 -0.0011,0.0067 -0.0023,0.01334 -0.0034,0.02013 -0.01917,0.116679 -0.03981,0.236313 -0.06283,0.35985 -0.481092,2.581143 -1.839626,6.635968 -5.065375,10.843084 -3.471623,-4.527796 -4.781221,-8.880464 -5.161105,-11.408142 -0.01919,-0.127753 -0.03497,-0.249034 -0.04958,-0.367213 -0.0042,-0.03374 -0.0085,-0.0672 -0.01227,-0.100147 -0.0128,-0.110565 -0.02393,-0.218296 -0.03289,-0.319594 -2.52e-4,-0.0028 -7.32e-4,-0.006 -9.5e-4,-0.0088 -1.12e-4,-0.0012 -3.82e-4,-0.0027 -4.93e-4,-0.0039 -0.0091,-0.104998 -0.01579,-0.203441 -0.02111,-0.29799 -0.0014,-0.02578 -0.0028,-0.05111 -0.0039,-0.0761 -0.0038,-0.0809 -0.0063,-0.158363 -0.0073,-0.230736 -1.23e-4,-0.008 -8.92e-4,-0.01762 -9.5e-4,-0.02553 -2.8e-5,-0.0025 2.4e-5,-0.0053 0,-0.0079 0.01216,-0.338151 0.08445,-0.693104 0.206188,-1.054018 -0.23972,0.377958 -0.447662,0.762497 -0.615619,1.145821 -1.429318,0.288559 -2.983403,0.511053 -4.630907,0.611695 0.757848,-1.145172 1.556129,-2.190906 2.358409,-3.140454 1.946364,0.515975 4.684374,0.06691 6.681504,-0.946997 -1.73222,0.592439 -3.783853,0.700674 -5.042793,0.03289 -0.156212,-0.09234 -0.333087,-0.206118 -0.527253,-0.341686 -0.0028,-0.002 -0.006,-0.0044 -0.0088,-0.0064 -0.0027,-0.0019 -0.0056,-0.004 -0.0084,-0.0059 -0.07036,-0.04932 -0.142714,-0.101538 -0.217482,-0.156603 -0.01907,-0.01403 -0.03908,-0.02929 -0.05842,-0.04369 -0.06517,-0.04857 -0.131645,-0.09888 -0.199806,-0.151697 -0.01747,-0.01352 -0.03537,-0.02744 -0.05302,-0.04124 -0.07272,-0.05689 -0.146597,-0.116103 -0.22239,-0.177715 -0.01761,-0.01432 -0.03524,-0.02814 -0.05302,-0.04271 -0.08549,-0.0701 -0.172701,-0.142953 -0.261665,-0.218955 -0.0042,-0.0036 -0.0081,-0.0067 -0.01227,-0.01031 -1.994761,-1.707318 -4.826343,-4.910999 -6.856762,-9.807722 5.366002,-0.704415 9.620673,0.19639 12.074817,1.088873 -1.25e-4,4.96e-4 -3.67e-4,9.5e-4 -4.9e-4,0.0015 0.528103,0.192185 0.974003,0.383521 1.327954,0.558673 1.61e-4,-4.86e-4 3.3e-4,-9.5e-4 4.91e-4,-0.0014 0.135748,0.0671 0.258382,0.132071 0.367213,0.193424 0.286768,0.179605 0.558336,0.419575 0.810029,0.705461 -0.287519,-0.549621 -0.617215,-1.05208 -0.980381,-1.479162 0.443234,-1.270248 0.988721,-2.598341 1.659331,-3.943118 z" />
    <path
       id="path1600-3-5-0-9"
       style="fill:#807f83;fill-opacity:1;fill-rule:nonzero;stroke-width:0.224896"
       d="m 27.216489,8.9381736 c -1.60035,3.2092004 -2.66084,6.3480204 -3.35224,9.0836904 0.5559,0.2023 1.02526,0.4037 1.39784,0.58807 0.50067,-1.51962 1.14002,-3.12993 1.9544,-4.76301 0.97796,1.96109 1.70496,3.89013 2.24018,5.66735 0.34604,-0.18101 0.79324,-0.38242 1.33118,-0.58756 -0.67825,-2.93653 -1.7913,-6.41899 -3.57136,-9.9885404 z m -8.84442,18.2598704 c -2.17451,2.04253 -4.58801,4.71397 -6.75101,7.98245 3.64566,-0.22267 6.94885,-0.89379 9.69347,-1.68153 -0.0916,-0.60987 -0.132,-1.11829 -0.13643,-1.50535 -1.62054,0.34713 -3.40504,0.61616 -5.30562,0.73226 1.16647,-1.76263 2.42387,-3.30681 3.6525,-4.62761 -0.33848,-0.23633 -0.72783,-0.53639 -1.15291,-0.90022 z m 17.69402,1.19681 c -0.48293,0.38489 -0.9038,0.67474 -1.23714,0.87231 1.11104,1.23026 2.23616,2.64057 3.28714,4.22868 -2.10936,-0.12886 -4.07599,-0.44495 -5.83376,-0.84852 -0.0354,0.41084 -0.10071,0.8972 -0.20308,1.44642 2.85609,0.86207 6.37523,1.61719 10.28826,1.85621 -2.01501,-3.04485 -4.24731,-5.57207 -6.30142,-7.5551 z" />
    <path
       id="path1600-3-7-2-3-2"
       style="fill:#4f2683;fill-opacity:1;fill-rule:nonzero;stroke-width:0.278866"
       d="m 27.216489,50.938124 c 5.62205,-7.33246 6.93524,-14.3151 6.96184,-16.90233 -0.0816,-2.2714 -2.22854,-5.1203 -4.54597,-6.63009 1.45177,1.2673 2.63023,3.08044 2.68407,4.57957 -0.0213,2.06978 -1.07152,7.65622 -5.56917,13.52219 -4.49765,-5.86597 -5.54789,-11.45241 -5.56916,-13.52219 0.0128,-0.35595 0.0889,-0.72957 0.21704,-1.10948 -0.67029,1.05682 -1.10472,2.16392 -1.1405,3.16 0.0266,2.58723 1.33979,9.56987 6.96185,16.90233 z" />
    <path
       id="path1600-3-7-2-8-4-2"
       style="fill:#4f2683;fill-opacity:1;fill-rule:nonzero;stroke-width:0.278866"
       d="m 48.216489,14.565054 c -9.16113,-1.20262 -15.86487,1.15145 -18.11877,2.42204 -1.92629,1.20636 -3.32004,4.49012 -3.46884,7.25197 0.37163,-1.89092 1.35263,-3.81807 2.62399,-4.61426 1.80313,-1.01645 7.16624,-2.90015 14.49514,-1.93805 -2.83125,6.82806 -7.14413,10.53081 -8.92598,11.58412 -0.31466,0.16689 -0.67627,0.2878 -1.06935,0.36678 1.25037,0.0521 2.42637,-0.12524 3.30689,-0.5923 2.2273,-1.31665 7.61785,-5.94522 11.15692,-14.4803 z" />
    <path
       id="path1600-3-7-2-7-9-7"
       style="fill:#4f2683;fill-opacity:1;fill-rule:nonzero;stroke-width:0.278866"
       d="m 6.216499,14.565064 c 3.53907,8.53507 8.92961,13.16365 11.15692,14.48029 2.00788,1.06504 5.54857,0.63018 8.0148,-0.62188 -1.82339,0.62362 -3.98285,0.73763 -5.30805,0.0347 -1.78184,-1.05333 -6.09472,-4.75607 -8.92597,-11.58414 7.32889,-0.96209 12.69201,0.9216 14.49513,1.93807 0.30186,0.18906 0.58738,0.44177 0.85232,0.7427 -0.58009,-1.1089 -1.32165,-2.03868 -2.16639,-2.5677 -2.25391,-1.27058 -8.95764,-3.62465 -18.11876,-2.42203 z" />
    <path
       id="path1600-3-5-0-9-8"
       style="fill:#807f83;fill-opacity:1;fill-rule:nonzero;stroke-width:0.224896"
       d="m 78.543525,9.4311312 c -1.60035,3.2091998 -2.66084,6.3480198 -3.35224,9.0836898 0.5559,0.2023 1.02526,0.4037 1.39784,0.58807 0.50067,-1.51962 1.14002,-3.12993 1.9544,-4.76301 0.97796,1.96109 1.70496,3.89013 2.24018,5.66735 0.34604,-0.18101 0.79324,-0.38242 1.33118,-0.58756 -0.67825,-2.93653 -1.7913,-6.41899 -3.57136,-9.9885398 z m -8.84442,18.2598698 c -2.17451,2.04253 -4.58801,4.71397 -6.75101,7.98245 3.64566,-0.22267 6.94885,-0.89379 9.69347,-1.68153 -0.0916,-0.60987 -0.132,-1.11829 -0.13643,-1.50535 -1.62054,0.34713 -3.40504,0.61616 -5.30562,0.73226 1.16647,-1.76263 2.42387,-3.30681 3.6525,-4.62761 -0.33848,-0.23633 -0.72783,-0.53639 -1.15291,-0.90022 z m 17.69402,1.19681 c -0.48293,0.38489 -0.9038,0.67474 -1.23714,0.87231 1.11104,1.23026 2.23616,2.64057 3.28714,4.22868 -2.10936,-0.12886 -4.07599,-0.44495 -5.83376,-0.84852 -0.0354,0.41084 -0.10071,0.8972 -0.20308,1.44642 2.85609,0.86207 6.37523,1.61719 10.28826,1.85621 -2.01501,-3.04485 -4.24731,-5.57207 -6.30142,-7.5551 z" />
    <path
       id="path1600-3-7-2-3-2-3"
       style="fill:#4f2683;fill-opacity:1;fill-rule:nonzero;stroke-width:0.278866"
       d="m 78.543525,51.431081 c 5.62205,-7.33246 6.93524,-14.3151 6.96184,-16.90233 -0.0816,-2.2714 -2.22854,-5.1203 -4.54597,-6.63009 1.45177,1.2673 2.63023,3.08044 2.68407,4.57957 -0.0213,2.06978 -1.07152,7.65622 -5.56917,13.52219 -4.49765,-5.86597 -5.54789,-11.45241 -5.56916,-13.52219 0.0128,-0.35595 0.0889,-0.72957 0.21704,-1.10948 -0.67029,1.05682 -1.10472,2.16392 -1.1405,3.16 0.0266,2.58723 1.33979,9.56987 6.96185,16.90233 z" />
    <path
       id="path1600-3-7-2-8-4-2-2"
       style="fill:#4f2683;fill-opacity:1;fill-rule:nonzero;stroke-width:0.278866"
       d="m 99.543525,15.058011 c -9.16113,-1.20262 -15.86487,1.15145 -18.11877,2.42204 -1.92629,1.20636 -3.32004,4.49012 -3.46884,7.25197 0.37163,-1.89092 1.35263,-3.81807 2.62399,-4.61426 1.80313,-1.01645 7.16624,-2.90015 14.49514,-1.93805 -2.83125,6.82806 -7.14413,10.53081 -8.92598,11.58412 -0.31466,0.16689 -0.67627,0.2878 -1.06935,0.36678 1.25037,0.0521 2.42637,-0.12524 3.30689,-0.5923 2.2273,-1.31665 7.61785,-5.94522 11.15692,-14.4803 z" />
    <path
       id="path1600-3-7-2-7-9-7-8"
       style="fill:#4f2683;fill-opacity:1;fill-rule:nonzero;stroke-width:0.278866"
       d="m 57.543535,15.058021 c 3.53907,8.53507 8.92961,13.16365 11.15692,14.48029 2.00788,1.06504 5.54857,0.63018 8.0148,-0.62188 -1.82339,0.62362 -3.98285,0.73763 -5.30805,0.0347 -1.78184,-1.05333 -6.09472,-4.75607 -8.92597,-11.58414 7.32889,-0.96209 12.69201,0.9216 14.49513,1.93807 0.30186,0.18906 0.58738,0.44177 0.85232,0.7427 -0.58009,-1.1089 -1.32165,-2.03868 -2.16639,-2.5677 -2.25391,-1.27058 -8.95764,-3.62465 -18.11876,-2.42203 z" />
    <path
       id="path1600-3-5-0"
       style="fill:#807f83;fill-opacity:1;fill-rule:nonzero;stroke-width:0.224896"
       d="m 26.974596,57.836027 c -1.60036,3.2092 -2.66084,6.34802 -3.35225,9.08369 0.5559,0.2023 1.02526,0.4037 1.39784,0.58807 0.50067,-1.51962 1.14002,-3.12993 1.95441,-4.76301 0.97795,1.96108 1.70495,3.89013 2.24017,5.66735 0.34605,-0.18101 0.79324,-0.38242 1.33119,-0.58756 -0.67826,-2.93653 -1.79131,-6.41899 -3.57136,-9.98854 z m -8.84442,18.25987 c -2.17452,2.04253 -4.58802,4.71397 -6.75101,7.98245 3.64565,-0.22267 6.94885,-0.89379 9.69346,-1.68153 -0.0916,-0.60987 -0.132,-1.11829 -0.13643,-1.50535 -1.62054,0.34713 -3.40504,0.61616 -5.30561,0.73226 1.16646,-1.76263 2.42386,-3.30681 3.65249,-4.62761 -0.33847,-0.23633 -0.72783,-0.53639 -1.1529,-0.90022 z m 17.69401,1.19681 c -0.48293,0.38489 -0.9038,0.67474 -1.23714,0.87231 1.11104,1.23026 2.23616,2.64057 3.28714,4.22867 -2.10936,-0.12885 -4.07599,-0.44495 -5.83375,-0.84851 -0.0354,0.41084 -0.10072,0.8972 -0.20309,1.44642 2.85609,0.86207 6.37523,1.61719 10.28826,1.85621 -2.01501,-3.04485 -4.2473,-5.57207 -6.30142,-7.5551 z" />
    <path
       id="path1600-3-7-2-3"
       style="fill:#4f2683;fill-opacity:1;fill-rule:nonzero;stroke-width:0.278866"
       d="m 26.974586,99.835977 c 5.62205,-7.33246 6.93524,-14.3151 6.96184,-16.90233 -0.0816,-2.2714 -2.22854,-5.1203 -4.54597,-6.63009 1.45177,1.2673 2.63023,3.08044 2.68407,4.57957 -0.0213,2.06978 -1.07152,7.65622 -5.56917,13.52219 -4.49765,-5.86597 -5.54789,-11.45241 -5.56916,-13.52219 0.0128,-0.35595 0.0889,-0.72957 0.21704,-1.10948 -0.67029,1.05682 -1.10472,2.16392 -1.1405,3.16 0.0266,2.58723 1.33979,9.56987 6.96185,16.90233 z" />
    <path
       id="path1600-3-7-2-8-4"
       style="fill:#4f2683;fill-opacity:1;fill-rule:nonzero;stroke-width:0.278866"
       d="m 47.974586,63.462907 c -9.16113,-1.20262 -15.86487,1.15145 -18.11877,2.42204 -1.92629,1.20636 -3.32004,4.49012 -3.46884,7.25197 0.37163,-1.89092 1.35263,-3.81807 2.62399,-4.61426 1.80313,-1.01645 7.16624,-2.90015 14.49514,-1.93805 -2.83125,6.82806 -7.14413,10.53081 -8.92598,11.58412 -0.31466,0.16689 -0.67627,0.2878 -1.06935,0.36678 1.25037,0.0521 2.42637,-0.12524 3.30689,-0.5923 2.2273,-1.31665 7.61785,-5.94522 11.15692,-14.4803 z" />
    <path
       id="path1600-3-7-2-7-9"
       style="fill:#4f2683;fill-opacity:1;fill-rule:nonzero;stroke-width:0.278866"
       d="m 5.974596,63.462917 c 3.5390704,8.53507 8.92961,13.16365 11.15692,14.48029 2.00788,1.06504 5.54857,0.63018 8.0148,-0.62188 -1.82339,0.62362 -3.98285,0.73763 -5.30805,0.0347 -1.78184,-1.05333 -6.09472,-4.75607 -8.92597,-11.58414 7.32889,-0.96209 12.69201,0.9216 14.49513,1.93807 0.30186,0.18906 0.58738,0.44177 0.85232,0.7427 -0.58009,-1.1089 -1.32165,-2.03868 -2.16639,-2.5677 -2.25391,-1.27058 -8.95764,-3.62465 -18.11876,-2.42203 z" />
    <path
       id="path1600-3-7-2-1-0-2"
       style="fill:#4f2683;fill-opacity:1;fill-rule:nonzero;stroke-width:0.16732"
       d="m 26.595836,91.440787 c -3.37323,-4.39948 -4.16114,-8.58906 -4.1771,-10.1414 0.049,-1.36284 1.33712,-3.07218 2.72758,-3.97806 -0.87106,0.76038 -1.57814,1.84827 -1.61044,2.74775 0.0128,1.24186 0.64291,4.59373 3.3415,8.11331 2.69859,-3.51958 3.32873,-6.87145 3.3415,-8.11331 -0.008,-0.21357 -0.0533,-0.43775 -0.13023,-0.66569 0.40218,0.63409 0.66283,1.29835 0.6843,1.896 -0.016,1.55234 -0.80387,5.74192 -4.17711,10.1414 z" />
    <path
       id="path1600-3-7-2-1-0-0-7"
       style="fill:#4f2683;fill-opacity:1;fill-rule:nonzero;stroke-width:0.16732"
       d="m 40.893496,67.988507 c -2.12344,5.12104 -5.35777,7.89818 -6.69415,8.68818 -1.20474,0.63901 -3.32915,0.3781 -4.80889,-0.37313 1.09404,0.37417 2.38972,0.44257 3.18484,0.0208 1.06909,-0.632 3.65683,-2.85364 5.35558,-6.95048 -4.39734,-0.57726 -7.61522,0.55296 -8.69708,1.16283 -0.18111,0.11346 -0.35243,0.26507 -0.51139,0.44563 0.34805,-0.66534 0.79299,-1.22321 1.29983,-1.54063 1.35235,-0.76234 5.37458,-2.17478 10.87126,-1.45321 z" />
    <path
       id="path1600-3-7-2-1-0-0-1-1"
       style="fill:#4f2683;fill-opacity:1;fill-rule:nonzero;stroke-width:0.16732"
       d="m 13.434416,67.332507 c 5.49667,-0.72156 9.5189,0.69088 10.87125,1.45322 1.15577,0.72383 1.99202,2.69408 2.08131,4.35119 -0.22298,-1.13455 -0.81158,-2.29084 -1.5744,-2.76856 -1.08187,-0.60986 -4.29974,-1.74009 -8.69708,-1.16283 1.69875,4.09684 4.28648,6.31849 5.35558,6.95048 0.18881,0.10011 0.40578,0.17268 0.64162,0.22006 -0.75023,0.0312 -1.45582,-0.0751 -1.98413,-0.35537 -1.33639,-0.79 -4.57071,-3.56714 -6.69415,-8.68819 z" />
    <path
       id="path1600-3-5-0-91"
       style="fill:#807f83;fill-opacity:1;fill-rule:nonzero;stroke-width:0.224896"
       d="m 79.144936,57.663832 c -1.60036,3.2092 -2.66084,6.34802 -3.35225,9.08369 0.5559,0.2023 1.02526,0.4037 1.39784,0.58807 0.50067,-1.51962 1.14002,-3.12993 1.95441,-4.76301 0.97795,1.96108 1.70495,3.89013 2.24017,5.66735 0.34605,-0.18101 0.79324,-0.38242 1.33119,-0.58756 -0.67826,-2.93653 -1.79131,-6.41899 -3.57136,-9.98854 z m -8.84442,18.25987 c -2.17452,2.04253 -4.58802,4.71397 -6.75101,7.98245 3.64565,-0.22267 6.94885,-0.89379 9.69346,-1.68153 -0.0916,-0.60987 -0.132,-1.11829 -0.13643,-1.50535 -1.62054,0.34713 -3.40504,0.61616 -5.30561,0.73226 1.16646,-1.76263 2.42386,-3.30681 3.65249,-4.62761 -0.33847,-0.23633 -0.72783,-0.53639 -1.1529,-0.90022 z m 17.69401,1.19681 c -0.48293,0.38489 -0.9038,0.67474 -1.23714,0.87231 1.11104,1.23026 2.23616,2.64057 3.28714,4.22867 -2.10936,-0.12885 -4.07599,-0.44495 -5.83375,-0.84851 -0.0354,0.41084 -0.10072,0.8972 -0.20309,1.44642 2.85609,0.86207 6.37523,1.61719 10.28826,1.85621 -2.01501,-3.04485 -4.2473,-5.57207 -6.30142,-7.5551 z" />
    <path
       id="path1600-3-7-2-3-28"
       style="fill:#4f2683;fill-opacity:1;fill-rule:nonzero;stroke-width:0.278866"
       d="m 79.144926,99.66378 c 5.62205,-7.33246 6.93524,-14.315098 6.96184,-16.902328 -0.0816,-2.2714 -2.22854,-5.1203 -4.54597,-6.63009 1.45177,1.2673 2.63023,3.08044 2.68407,4.57957 -0.0213,2.06978 -1.07152,7.65622 -5.56917,13.522188 -4.49765,-5.865968 -5.54789,-11.452408 -5.56916,-13.522188 0.0128,-0.35595 0.0889,-0.72957 0.21704,-1.10948 -0.67029,1.05682 -1.10472,2.16392 -1.1405,3.16 0.0266,2.58723 1.33979,9.569868 6.96185,16.902328 z" />
    <path
       id="path1600-3-7-2-8-4-7"
       style="fill:#4f2683;fill-opacity:1;fill-rule:nonzero;stroke-width:0.278866"
       d="m 100.14493,63.290712 c -9.161134,-1.20262 -15.864874,1.15145 -18.118774,2.42204 -1.92629,1.20636 -3.32004,4.49012 -3.46884,7.25197 0.37163,-1.89092 1.35263,-3.81807 2.62399,-4.61426 1.80313,-1.01645 7.16624,-2.90015 14.49514,-1.93805 -2.83125,6.82806 -7.14413,10.53081 -8.92598,11.58412 -0.31466,0.16689 -0.67627,0.2878 -1.06935,0.36678 1.25037,0.0521 2.42637,-0.12524 3.30689,-0.5923 2.2273,-1.31665 7.61785,-5.94522 11.156924,-14.4803 z" />
    <path
       id="path1600-3-7-2-7-9-0"
       style="fill:#4f2683;fill-opacity:1;fill-rule:nonzero;stroke-width:0.278866"
       d="m 58.144936,63.290722 c 3.53907,8.53507 8.92961,13.16365 11.15692,14.48029 2.00788,1.06504 5.54857,0.63018 8.0148,-0.62188 -1.82339,0.62362 -3.98285,0.73763 -5.30805,0.0347 -1.78184,-1.05333 -6.09472,-4.75607 -8.92597,-11.58414 7.32889,-0.96209 12.69201,0.9216 14.49513,1.93807 0.30186,0.18906 0.58738,0.44177 0.85232,0.7427 -0.58009,-1.1089 -1.32165,-2.03868 -2.16639,-2.5677 -2.25391,-1.27058 -8.95764,-3.62465 -18.11876,-2.42203 z" />
    <path
       id="path1600-3-7-2-1-0-2-0"
       style="fill:#4f2683;fill-opacity:1;fill-rule:nonzero;stroke-width:0.16732"
       d="m 78.766176,91.26859 c -3.37323,-4.399478 -4.16114,-8.589058 -4.1771,-10.141398 0.049,-1.36284 1.33712,-3.07218 2.72758,-3.97806 -0.87106,0.76038 -1.57814,1.84827 -1.61044,2.74775 0.0128,1.24186 0.64291,4.59373 3.3415,8.11331 2.69859,-3.51958 3.32873,-6.87145 3.3415,-8.11331 -0.008,-0.21357 -0.0533,-0.43775 -0.13023,-0.66569 0.40218,0.63409 0.66283,1.29835 0.6843,1.896 -0.016,1.55234 -0.80387,5.74192 -4.17711,10.141398 z" />
    <path
       id="path1600-3-7-2-1-0-0-7-4"
       style="fill:#4f2683;fill-opacity:1;fill-rule:nonzero;stroke-width:0.16732"
       d="m 93.063836,67.816312 c -2.12344,5.12104 -5.35777,7.89818 -6.69415,8.68818 -1.20474,0.63901 -3.32915,0.3781 -4.80889,-0.37313 1.09404,0.37417 2.38972,0.44257 3.18484,0.0208 1.06909,-0.632 3.65683,-2.85364 5.35558,-6.95048 -4.39734,-0.57726 -7.61522,0.55296 -8.69708,1.16283 -0.18111,0.11346 -0.35243,0.26507 -0.51139,0.44563 0.34805,-0.66534 0.79299,-1.22321 1.29983,-1.54063 1.35235,-0.76234 5.37458,-2.17478 10.87126,-1.45321 z" />
    <path
       id="path1600-3-7-2-1-0-0-1-1-3"
       style="fill:#4f2683;fill-opacity:1;fill-rule:nonzero;stroke-width:0.16732"
       d="m 65.604756,67.160312 c 5.49667,-0.72156 9.5189,0.69088 10.87125,1.45322 1.15577,0.72383 1.99202,2.69408 2.08131,4.35119 -0.22298,-1.13455 -0.81158,-2.29084 -1.5744,-2.76856 -1.08187,-0.60986 -4.29974,-1.74009 -8.69708,-1.16283 1.69875,4.09684 4.28648,6.31849 5.35558,6.95048 0.18881,0.10011 0.40578,0.17268 0.64162,0.22006 -0.75023,0.0312 -1.45582,-0.0751 -1.98413,-0.35537 -1.33639,-0.79 -4.57071,-3.56714 -6.69415,-8.68819 z" />
    <path
       id="path1600-3-7-2-3-2-9"
       style="fill:#4f2683;fill-opacity:1;fill-rule:nonzero;stroke-width:0.278866"
       d="m 113.18281,13.882799 c -1.53179,0.006 -3.16313,0.106789 -4.88084,0.33228 3.53907,8.535071 8.92963,13.163612 11.15694,14.480253 2.00788,1.065041 5.54878,0.629875 8.01502,-0.622183 -1.8234,0.62362 -3.98301,0.737552 -5.30821,0.03462 -1.78184,-1.05333 -6.09482,-4.755721 -8.92607,-11.58379 7.32889,-0.96209 12.69212,0.921396 14.49524,1.937866 0.30186,0.18906 0.58721,0.44166 0.85215,0.74259 -0.58009,-1.1089 -1.32154,-2.038265 -2.16628,-2.567285 -1.8313,-1.032346 -6.60019,-2.780348 -13.23795,-2.754354 z m 32.23834,0 c -6.63777,-0.02599 -11.40666,1.722 -13.23795,2.754354 -1.92629,1.20636 -3.31972,4.489903 -3.46852,7.251753 0.37163,-1.890919 1.35225,-3.817998 2.62361,-4.614188 1.80313,-1.01645 7.16634,-2.899966 14.49524,-1.937866 -2.83125,6.828059 -7.14422,10.53048 -8.92607,11.583789 -0.31466,0.166891 -0.67611,0.287922 -1.06919,0.366903 1.25037,0.0521 2.42626,-0.125154 3.30678,-0.592212 2.2273,-1.316651 7.61787,-5.945174 11.15694,-14.480253 -1.71771,-0.225491 -3.34905,-0.326281 -4.88084,-0.33228 z m -13.70304,13.172839 c 1.45177,1.267301 2.63023,3.080435 2.68407,4.579567 -0.0213,2.06978 -1.07151,7.6562 -5.56916,13.522171 -4.49766,-5.865971 -5.5479,-11.452391 -5.56917,-13.522171 0.0128,-0.355952 0.0889,-0.729583 0.21704,-1.109493 -0.67029,1.05682 -1.10472,2.163934 -1.1405,3.160014 0.0266,2.587228 1.33979,9.569865 6.96185,16.902326 5.62205,-7.332461 6.93525,-14.315098 6.96185,-16.902326 -0.0816,-2.271401 -2.22855,-5.120296 -4.54598,-6.630088 z" />
    <path
       id="path1600-3-7-2-3-28-2"
       style="fill:#4f2683;fill-opacity:1;fill-rule:nonzero;stroke-width:0.278866"
       d="m 131.91494,99.927809 c 5.62205,-7.33246 6.93524,-14.315098 6.96184,-16.902328 -0.0816,-2.2714 -2.22854,-5.1203 -4.54597,-6.63009 1.45177,1.2673 2.63023,3.08044 2.68407,4.57957 -0.0213,2.06978 -1.07152,7.65622 -5.56917,13.522188 -4.49765,-5.865968 -5.54789,-11.452408 -5.56916,-13.522188 0.0128,-0.35595 0.0889,-0.72957 0.21704,-1.10948 -0.67029,1.05682 -1.10472,2.16392 -1.1405,3.16 0.0266,2.58723 1.33979,9.569868 6.96185,16.902328 z" />
    <path
       id="path1600-3-7-2-8-4-7-3"
       style="fill:#4f2683;fill-opacity:1;fill-rule:nonzero;stroke-width:0.278866"
       d="m 152.91495,63.554741 c -9.16114,-1.20262 -15.86488,1.15145 -18.11878,2.42204 -1.92629,1.20636 -3.32004,4.49012 -3.46884,7.25197 0.37163,-1.89092 1.35263,-3.81807 2.62399,-4.61426 1.80313,-1.01645 7.16624,-2.90015 14.49514,-1.93805 -2.83125,6.82806 -7.14413,10.53081 -8.92598,11.58412 -0.31466,0.16689 -0.67627,0.2878 -1.06935,0.36678 1.25037,0.0521 2.42637,-0.12524 3.30689,-0.5923 2.2273,-1.31665 7.61785,-5.94522 11.15693,-14.4803 z" />
    <path
       id="path1600-3-7-2-7-9-0-2"
       style="fill:#4f2683;fill-opacity:1;fill-rule:nonzero;stroke-width:0.278866"
       d="m 110.91495,63.554751 c 3.53907,8.53507 8.92961,13.16365 11.15692,14.48029 2.00788,1.06504 5.54857,0.63018 8.0148,-0.62188 -1.82339,0.62362 -3.98285,0.73763 -5.30805,0.0347 -1.78184,-1.05333 -6.09472,-4.75607 -8.92597,-11.58414 7.32889,-0.96209 12.69201,0.9216 14.49513,1.93807 0.30186,0.18906 0.58738,0.44177 0.85232,0.7427 -0.58009,-1.1089 -1.32165,-2.03868 -2.16639,-2.5677 -2.25391,-1.27058 -8.95764,-3.62465 -18.11876,-2.42203 z" />
    <path
       id="path1600-3-7-2-1-0-2-0-1"
       style="fill:#4f2683;fill-opacity:1;fill-rule:nonzero;stroke-width:0.16732"
       d="m 131.53619,91.532619 c -3.37323,-4.399478 -4.16114,-8.589058 -4.1771,-10.141398 0.049,-1.36284 1.33712,-3.07218 2.72758,-3.97806 -0.87106,0.76038 -1.57814,1.84827 -1.61044,2.74775 0.0128,1.24186 0.64291,4.59373 3.3415,8.11331 2.69859,-3.51958 3.32873,-6.87145 3.3415,-8.11331 -0.008,-0.21357 -0.0533,-0.43775 -0.13023,-0.66569 0.40218,0.63409 0.66283,1.29835 0.6843,1.896 -0.016,1.55234 -0.80387,5.74192 -4.17711,10.141398 z" />
    <path
       id="path1600-3-7-2-1-0-0-7-4-1"
       style="fill:#4f2683;fill-opacity:1;fill-rule:nonzero;stroke-width:0.16732"
       d="m 145.83385,68.080341 c -2.12344,5.12104 -5.35777,7.89818 -6.69415,8.68818 -1.20474,0.63901 -3.32915,0.3781 -4.80889,-0.37313 1.09404,0.37417 2.38972,0.44257 3.18484,0.0208 1.06909,-0.632 3.65683,-2.85364 5.35558,-6.95048 -4.39734,-0.57726 -7.61522,0.55296 -8.69708,1.16283 -0.18111,0.11346 -0.35243,0.26507 -0.51139,0.44563 0.34805,-0.66534 0.79299,-1.22321 1.29983,-1.54063 1.35235,-0.76234 5.37458,-2.17478 10.87126,-1.45321 z" />
    <path
       id="path1600-3-7-2-1-0-0-1-1-3-0"
       style="fill:#4f2683;fill-opacity:1;fill-rule:nonzero;stroke-width:0.16732"
       d="m 118.37477,67.424341 c 5.49667,-0.72156 9.5189,0.69088 10.87125,1.45322 1.15577,0.72383 1.99202,2.69408 2.08131,4.35119 -0.22298,-1.13455 -0.81158,-2.29084 -1.5744,-2.76856 -1.08187,-0.60986 -4.29974,-1.74009 -8.69708,-1.16283 1.69875,4.09684 4.28648,6.31849 5.35558,6.95048 0.18881,0.10011 0.40578,0.17268 0.64162,0.22006 -0.75023,0.0312 -1.45582,-0.0751 -1.98413,-0.35537 -1.33639,-0.79 -4.57071,-3.56714 -6.69415,-8.68819 z" />
  </g>
</svg>
